Dekko.ufo
<glyph name="exclam" format="1">
  <advance width="333"/>
  <unicode hex="0021"/>
  <outline>
    <contour>
      <point x="131" y="202" type="line"/>
      <point x="151" y="188"/>
      <point x="183" y="187"/>
      <point x="193" y="196" type="curve"/>
      <point x="206" y="734" type="line"/>
      <point x="197" y="738"/>
      <point x="172" y="747"/>
      <point x="147" y="747" type="curve" smooth="yes"/>
      <point x="132" y="747"/>
      <point x="117" y="743"/>
      <point x="105" y="734" type="curve"/>
    </contour>
    <contour>
      <point x="96" y="25" type="curve" smooth="yes"/>
      <point x="96" y="16"/>
      <point x="112" y="-16"/>
      <point x="173" y="-16" type="curve" smooth="yes"/>
      <point x="202" y="-16"/>
      <point x="233" y="18"/>
      <point x="233" y="42" type="curve" smooth="yes"/>
      <point x="233" y="61"/>
      <point x="217" y="89"/>
      <point x="152" y="89" type="curve" smooth="yes"/>
      <point x="124" y="89"/>
      <point x="96" y="48"/>
    </contour>
  </outline>
</glyph>
<glyph name="numbersign" format="1">
  <advance width="681"/>
  <unicode hex="0023"/>
  <outline>
    <contour>
      <point x="88" y="189" type="curve"/>
      <point x="516" y="189" type="line"/>
      <point x="544" y="192"/>
      <point x="612" y="238"/>
      <point x="558" y="242" type="curve"/>
      <point x="115" y="242" type="line"/>
      <point x="98" y="238"/>
      <point x="40" y="208"/>
    </contour>
    <contour>
      <point x="115" y="404" type="curve"/>
      <point x="527" y="404" type="line"/>
      <point x="557" y="407"/>
      <point x="623" y="453"/>
      <point x="570" y="458" type="curve"/>
      <point x="142" y="458" type="line" smooth="yes"/>
      <point x="122" y="458"/>
      <point x="95" y="442"/>
      <point x="95" y="425" type="curve" smooth="yes"/>
      <point x="95" y="418"/>
      <point x="101" y="410"/>
    </contour>
    <contour>
      <point x="157" y="26" type="line"/>
      <point x="143" y="1"/>
      <point x="156" y="-8"/>
      <point x="171" y="-8" type="curve" smooth="yes"/>
      <point x="188" y="-8"/>
      <point x="211" y="3"/>
      <point x="220" y="17" type="curve"/>
      <point x="291" y="611" type="line"/>
      <point x="295" y="634"/>
      <point x="294" y="641"/>
      <point x="279" y="641" type="curve" smooth="yes"/>
      <point x="259" y="641"/>
      <point x="226" y="626"/>
      <point x="216" y="610" type="curve"/>
    </contour>
    <contour>
      <point x="368" y="26" type="line"/>
      <point x="357" y="1"/>
      <point x="367" y="-8"/>
      <point x="382" y="-8" type="curve" smooth="yes"/>
      <point x="399" y="-8"/>
      <point x="422" y="3"/>
      <point x="431" y="17" type="curve"/>
      <point x="503" y="611" type="line"/>
      <point x="505" y="633"/>
      <point x="505" y="641"/>
      <point x="490" y="641" type="curve" smooth="yes"/>
      <point x="470" y="641"/>
      <point x="437" y="626"/>
      <point x="427" y="610" type="curve"/>
    </contour>
  </outline>
</glyph>
<glyph name="dollar" format="1">
  <advance width="527"/>
  <unicode hex="0024"/>
  <outline>
    <contour>
      <point x="62" y="33" type="curve" smooth="yes"/>
      <point x="87" y="12"/>
      <point x="155" y="-7"/>
      <point x="211" y="-14" type="curve"/>
      <point x="196" y="-118" type="line"/>
      <point x="204" y="-122"/>
      <point x="221" y="-130"/>
      <point x="240" y="-130" type="curve" smooth="yes"/>
      <point x="252" y="-130"/>
      <point x="264" y="-127"/>
      <point x="277" y="-118" type="curve"/>
      <point x="278" y="-13" type="line"/>
      <point x="388" y="0"/>
      <point x="484" y="79"/>
      <point x="484" y="179" type="curve" smooth="yes"/>
      <point x="484" y="308"/>
      <point x="380" y="345"/>
      <point x="286" y="377" type="curve"/>
      <point x="206" y="403"/>
      <point x="133" y="433"/>
      <point x="133" y="520" type="curve" smooth="yes"/>
      <point x="133" y="581"/>
      <point x="190" y="614"/>
      <point x="251" y="614" type="curve" smooth="yes"/>
      <point x="328" y="614"/>
      <point x="376" y="590"/>
      <point x="399" y="553" type="curve"/>
      <point x="399" y="553"/>
      <point x="413" y="483"/>
      <point x="429" y="483" type="curve" smooth="yes"/>
      <point x="438" y="483"/>
      <point x="448" y="488"/>
      <point x="448" y="499" type="curve" smooth="yes"/>
      <point x="449" y="526"/>
      <point x="450" y="566"/>
      <point x="452" y="590" type="curve" smooth="yes"/>
      <point x="455" y="627"/>
      <point x="385" y="664"/>
      <point x="319" y="671" type="curve"/>
      <point x="332" y="763" type="line"/>
      <point x="324" y="767"/>
      <point x="307" y="775"/>
      <point x="288" y="775" type="curve" smooth="yes"/>
      <point x="276" y="775"/>
      <point x="264" y="772"/>
      <point x="251" y="763" type="curve"/>
      <point x="249" y="668" type="line"/>
      <point x="146" y="652"/>
      <point x="62" y="585"/>
      <point x="62" y="490" type="curve" smooth="yes"/>
      <point x="62" y="361"/>
      <point x="166" y="323"/>
      <point x="260" y="293" type="curve" smooth="yes"/>
      <point x="336" y="268"/>
      <point x="409" y="240"/>
      <point x="409" y="142" type="curve" smooth="yes"/>
      <point x="409" y="91"/>
      <point x="347" y="45"/>
      <point x="287" y="45" type="curve" smooth="yes"/>
      <point x="181" y="45"/>
      <point x="124" y="76"/>
      <point x="113" y="112" type="curve"/>
      <point x="113" y="112"/>
      <point x="98" y="188"/>
      <point x="82" y="188" type="curve" smooth="yes"/>
      <point x="73" y="188"/>
      <point x="63" y="183"/>
      <point x="63" y="171" type="curve" smooth="yes"/>
      <point x="62" y="144"/>
      <point x="61" y="83"/>
      <point x="59" y="59" type="curve" smooth="yes"/>
      <point x="58" y="44"/>
      <point x="59" y="35"/>
    </contour>
  </outline>
</glyph>
<glyph name="percent" format="1">
  <advance width="948"/>
  <unicode hex="0025"/>
  <outline>
    <contour>
      <point x="293" y="-68" type="line"/>
      <point x="282" y="-93"/>
      <point x="292" y="-102"/>
      <point x="307" y="-102" type="curve" smooth="yes"/>
      <point x="324" y="-102"/>
      <point x="347" y="-91"/>
      <point x="356" y="-77" type="curve"/>
      <point x="658" y="737" type="line"/>
      <point x="662" y="761"/>
      <point x="661" y="768"/>
      <point x="645" y="768" type="curve" smooth="yes"/>
      <point x="625" y="768"/>
      <point x="595" y="752"/>
      <point x="585" y="736" type="curve"/>
    </contour>
    <contour>
      <point x="223" y="273" type="curve" smooth="yes"/>
      <point x="273" y="273"/>
      <point x="322" y="288"/>
      <point x="359" y="320" type="curve" smooth="yes"/>
      <point x="407" y="363"/>
      <point x="422" y="431"/>
      <point x="422" y="485" type="curve" smooth="yes"/>
      <point x="422" y="575"/>
      <point x="378" y="672"/>
      <point x="255" y="672" type="curve" smooth="yes"/>
      <point x="131" y="672"/>
      <point x="62" y="568"/>
      <point x="62" y="458" type="curve" smooth="yes"/>
      <point x="62" y="332"/>
      <point x="132" y="273"/>
    </contour>
    <contour>
      <point x="258" y="320" type="curve" smooth="yes"/>
      <point x="169" y="320"/>
      <point x="143" y="410"/>
      <point x="143" y="485" type="curve" smooth="yes"/>
      <point x="143" y="547"/>
      <point x="160" y="625"/>
      <point x="225" y="625" type="curve" smooth="yes"/>
      <point x="314" y="625"/>
      <point x="339" y="535"/>
      <point x="339" y="458" type="curve" smooth="yes"/>
      <point x="339" y="387"/>
      <point x="319" y="320"/>
    </contour>
    <contour>
      <point x="524" y="168" type="curve" smooth="yes"/>
      <point x="524" y="42"/>
      <point x="597" y="-17"/>
      <point x="688" y="-17" type="curve" smooth="yes"/>
      <point x="735" y="-17"/>
      <point x="787" y="-2"/>
      <point x="823" y="30" type="curve" smooth="yes"/>
      <point x="870" y="73"/>
      <point x="887" y="141"/>
      <point x="887" y="195" type="curve" smooth="yes"/>
      <point x="887" y="285"/>
      <point x="840" y="382"/>
      <point x="720" y="382" type="curve" smooth="yes"/>
      <point x="596" y="382"/>
      <point x="524" y="278"/>
    </contour>
    <contour>
      <point x="608" y="195" type="curve" smooth="yes"/>
      <point x="608" y="258"/>
      <point x="622" y="335"/>
      <point x="690" y="335" type="curve" smooth="yes"/>
      <point x="779" y="335"/>
      <point x="804" y="245"/>
      <point x="804" y="168" type="curve" smooth="yes"/>
      <point x="804" y="97"/>
      <point x="784" y="30"/>
      <point x="722" y="30" type="curve" smooth="yes"/>
      <point x="631" y="30"/>
      <point x="608" y="120"/>
    </contour>
  </outline>
</glyph>
<glyph name="ampersand" format="1">
  <advance width="708"/>
  <unicode hex="0026"/>
  <outline>
    <contour>
      <point x="672" y="54" type="curve" smooth="yes"/>
      <point x="669" y="53"/>
      <point x="666" y="53"/>
      <point x="663" y="53" type="curve" smooth="yes"/>
      <point x="607" y="53"/>
      <point x="544" y="114"/>
      <point x="511" y="146" type="curve"/>
      <point x="397" y="252"/>
      <point x="208" y="396"/>
      <point x="208" y="533" type="curve" smooth="yes"/>
      <point x="208" y="567"/>
      <point x="231" y="617"/>
      <point x="282" y="617" type="curve" smooth="yes"/>
      <point x="357" y="617"/>
      <point x="394" y="571"/>
      <point x="394" y="503" type="curve" smooth="yes"/>
      <point x="394" y="443"/>
      <point x="359" y="407"/>
      <point x="316" y="381" type="curve" smooth="yes"/>
      <point x="266" y="351" type="line" smooth="yes"/>
      <point x="183" y="301"/>
      <point x="60" y="239"/>
      <point x="60" y="127" type="curve"/>
      <point x="63" y="29"/>
      <point x="162" y="-23"/>
      <point x="264" y="-23" type="curve" smooth="yes"/>
      <point x="450" y="-23"/>
      <point x="608" y="173"/>
      <point x="608" y="311" type="curve" smooth="yes"/>
      <point x="608" y="325"/>
      <point x="611" y="373"/>
      <point x="594" y="373" type="curve" smooth="yes"/>
      <point x="571" y="373"/>
      <point x="532" y="345"/>
      <point x="525" y="331" type="curve"/>
      <point x="532" y="318"/>
      <point x="535" y="302"/>
      <point x="535" y="284" type="curve" smooth="yes"/>
      <point x="535" y="236"/>
      <point x="514" y="179"/>
      <point x="493" y="148" type="curve"/>
      <point x="453" y="95"/>
      <point x="380" y="42"/>
      <point x="309" y="42" type="curve" smooth="yes"/>
      <point x="223" y="42"/>
      <point x="147" y="84"/>
      <point x="147" y="172" type="curve" smooth="yes"/>
      <point x="147" y="315"/>
      <point x="468" y="313"/>
      <point x="468" y="541" type="curve" smooth="yes"/>
      <point x="468" y="615"/>
      <point x="410" y="672"/>
      <point x="334" y="672" type="curve" smooth="yes"/>
      <point x="222" y="672"/>
      <point x="126" y="577"/>
      <point x="126" y="499" type="curve" smooth="yes"/>
      <point x="126" y="392"/>
      <point x="252" y="268"/>
      <point x="352" y="178" type="curve" smooth="yes"/>
      <point x="414" y="122"/>
      <point x="525" y="-4"/>
      <point x="611" y="-4" type="curve" smooth="yes"/>
      <point x="616" y="-4"/>
      <point x="620" y="-4"/>
      <point x="625" y="-3" type="curve" smooth="yes"/>
      <point x="634" y="-1"/>
      <point x="692" y="23"/>
      <point x="692" y="33" type="curve" smooth="yes"/>
      <point x="692" y="35"/>
      <point x="684" y="54"/>
      <point x="677" y="54" type="curve" smooth="yes"/>
      <point x="676" y="54"/>
      <point x="674" y="54"/>
    </contour>
  </outline>
</glyph>
<glyph name="parenleft" format="1">
  <advance width="415"/>
  <unicode hex="0028"/>
  <outline>
    <contour>
      <point x="177" y="229" type="curve" smooth="yes"/>
      <point x="177" y="460"/>
      <point x="247" y="619"/>
      <point x="276" y="645" type="curve"/>
      <point x="296" y="655"/>
      <point x="282" y="681"/>
      <point x="261" y="684" type="curve" smooth="yes"/>
      <point x="258" y="684"/>
      <point x="261" y="687"/>
      <point x="260" y="687" type="curve" smooth="yes"/>
      <point x="260" y="687"/>
      <point x="258" y="687"/>
      <point x="258" y="687" type="curve"/>
      <point x="184" y="633"/>
      <point x="87" y="476"/>
      <point x="87" y="232" type="curve" smooth="yes"/>
      <point x="87" y="-11"/>
      <point x="184" y="-134"/>
      <point x="258" y="-188" type="curve"/>
      <point x="258" y="-188"/>
      <point x="260" y="-188"/>
      <point x="260" y="-188" type="curve"/>
      <point x="261" y="-188"/>
      <point x="258" y="-185"/>
      <point x="261" y="-185" type="curve" smooth="yes"/>
      <point x="282" y="-182"/>
      <point x="296" y="-157"/>
      <point x="276" y="-146" type="curve"/>
      <point x="247" y="-120"/>
      <point x="177" y="-1"/>
    </contour>
  </outline>
</glyph>
<glyph name="asterisk" format="1">
  <advance width="694"/>
  <unicode hex="002A"/>
  <outline>
    <contour>
      <point x="94" y="557" type="curve" smooth="yes"/>
      <point x="94" y="550"/>
      <point x="97" y="544"/>
      <point x="105" y="542" type="curve"/>
      <point x="144" y="538"/>
      <point x="195" y="537"/>
      <point x="237" y="536" type="curve" smooth="yes"/>
      <point x="259" y="536"/>
      <point x="297" y="539"/>
      <point x="313" y="539" type="curve"/>
      <point x="254" y="470" type="line"/>
      <point x="228" y="434"/>
      <point x="198" y="393"/>
      <point x="173" y="359" type="curve"/>
      <point x="165" y="340"/>
      <point x="174" y="334"/>
      <point x="190" y="334" type="curve" smooth="yes"/>
      <point x="208" y="334"/>
      <point x="236" y="346"/>
      <point x="243" y="353" type="curve"/>
      <point x="266" y="389"/>
      <point x="298" y="442"/>
      <point x="321" y="485" type="curve"/>
      <point x="336" y="522" type="line"/>
      <point x="341" y="509"/>
      <point x="345" y="480"/>
      <point x="351" y="461" type="curve" smooth="yes"/>
      <point x="368" y="411"/>
      <point x="386" y="355"/>
      <point x="405" y="320" type="curve"/>
      <point x="411" y="312"/>
      <point x="417" y="308"/>
      <point x="423" y="308" type="curve" smooth="yes"/>
      <point x="442" y="308"/>
      <point x="469" y="333"/>
      <point x="469" y="353" type="curve"/>
      <point x="468" y="361" type="line"/>
      <point x="453" y="390"/>
      <point x="435" y="427"/>
      <point x="418" y="460" type="curve"/>
      <point x="372" y="531" type="line"/>
      <point x="411" y="525"/>
      <point x="486" y="506"/>
      <point x="540" y="502" type="curve"/>
      <point x="555" y="504"/>
      <point x="600" y="527"/>
      <point x="599" y="546" type="curve" smooth="yes"/>
      <point x="599" y="552"/>
      <point x="595" y="555"/>
      <point x="587" y="562" type="curve"/>
      <point x="541" y="565"/>
      <point x="479" y="568"/>
      <point x="430" y="570" type="curve"/>
      <point x="364" y="568" type="line"/>
      <point x="418" y="627" type="line"/>
      <point x="444" y="660"/>
      <point x="472" y="695"/>
      <point x="496" y="728" type="curve"/>
      <point x="510" y="753"/>
      <point x="501" y="764"/>
      <point x="484" y="764" type="curve" smooth="yes"/>
      <point x="466" y="764"/>
      <point x="438" y="750"/>
      <point x="427" y="735" type="curve" smooth="yes"/>
      <point x="397" y="690"/>
      <point x="362" y="619"/>
      <point x="343" y="588" type="curve"/>
      <point x="338" y="603"/>
      <point x="332" y="635"/>
      <point x="326" y="654" type="curve" smooth="yes"/>
      <point x="314" y="693"/>
      <point x="298" y="737"/>
      <point x="280" y="776" type="curve"/>
      <point x="275" y="779"/>
      <point x="270" y="780"/>
      <point x="265" y="780" type="curve" smooth="yes"/>
      <point x="242" y="780"/>
      <point x="220" y="749"/>
      <point x="220" y="729" type="curve"/>
      <point x="235" y="694"/>
      <point x="255" y="656"/>
      <point x="274" y="621" type="curve"/>
      <point x="306" y="576" type="line"/>
      <point x="270" y="583"/>
      <point x="202" y="598"/>
      <point x="154" y="601" type="curve" smooth="yes"/>
      <point x="137" y="602"/>
      <point x="94" y="582"/>
    </contour>
  </outline>
</glyph>
<glyph name="plus" format="1">
  <advance width="582"/>
  <unicode hex="002B"/>
  <outline>
    <contour>
      <point x="265" y="174" type="line"/>
      <point x="286" y="128"/>
      <point x="326" y="184"/>
      <point x="330" y="201" type="curve"/>
      <point x="330" y="508" type="line"/>
      <point x="329" y="526"/>
      <point x="321" y="533"/>
      <point x="312" y="533" type="curve" smooth="yes"/>
      <point x="293" y="533"/>
      <point x="267" y="507"/>
      <point x="265" y="488" type="curve"/>
    </contour>
    <contour>
      <point x="128" y="320" type="curve"/>
      <point x="428" y="320" type="line"/>
      <point x="456" y="323"/>
      <point x="524" y="370"/>
      <point x="469" y="374" type="curve"/>
      <point x="156" y="374" type="line"/>
      <point x="138" y="370"/>
      <point x="83" y="339"/>
    </contour>
  </outline>
</glyph>
<glyph name="comma" format="1">
  <advance width="242"/>
  <unicode hex="002C"/>
  <outline>
    <contour>
      <point x="59" y="27" type="curve" smooth="yes"/>
      <point x="59" y="14"/>
      <point x="64" y="-14"/>
      <point x="88" y="-14" type="curve" smooth="yes"/>
      <point x="93" y="-14"/>
      <point x="105" y="-16"/>
      <point x="110" y="-16" type="curve" smooth="yes"/>
      <point x="119" y="-16"/>
      <point x="123" y="-32"/>
      <point x="123" y="-59" type="curve" smooth="yes"/>
      <point x="123" y="-95"/>
      <point x="96" y="-145"/>
      <point x="70" y="-164" type="curve"/>
      <point x="47" y="-174"/>
      <point x="64" y="-199"/>
      <point x="84" y="-202" type="curve" smooth="yes"/>
      <point x="86" y="-202"/>
      <point x="84" y="-205"/>
      <point x="85" y="-205" type="curve"/>
      <point x="86" y="-205" type="line"/>
      <point x="162" y="-160"/>
      <point x="198" y="-95"/>
      <point x="198" y="-11" type="curve" smooth="yes"/>
      <point x="198" y="19"/>
      <point x="185" y="86"/>
      <point x="118" y="86" type="curve" smooth="yes"/>
      <point x="83" y="86"/>
      <point x="59" y="69"/>
    </contour>
  </outline>
</glyph>
<glyph name="slash" format="1">
  <advance width="429"/>
  <unicode hex="002F"/>
  <outline>
    <contour>
      <point x="32" y="-116" type="line"/>
      <point x="21" y="-141"/>
      <point x="31" y="-150"/>
      <point x="46" y="-150" type="curve" smooth="yes"/>
      <point x="66" y="-150"/>
      <point x="89" y="-139"/>
      <point x="98" y="-125" type="curve"/>
      <point x="400" y="689" type="line"/>
      <point x="403" y="712"/>
      <point x="402" y="719"/>
      <point x="387" y="719" type="curve" smooth="yes"/>
      <point x="367" y="719"/>
      <point x="334" y="704"/>
      <point x="324" y="688" type="curve"/>
    </contour>
  </outline>
</glyph>
<glyph name="zero" format="1">
  <advance width="612"/>
  <unicode hex="0030"/>
  <outline>
    <contour>
      <point x="57" y="301" type="curve"/>
      <point x="58" y="236"/>
      <point x="62" y="184"/>
      <point x="83" y="124" type="curve"/>
      <point x="124" y="28"/>
      <point x="199" y="-17"/>
      <point x="281" y="-17" type="curve" smooth="yes"/>
      <point x="344" y="-17"/>
      <point x="413" y="4"/>
      <point x="468" y="59" type="curve"/>
      <point x="535" y="129"/>
      <point x="555" y="245"/>
      <point x="555" y="342" type="curve" smooth="yes"/>
      <point x="555" y="492"/>
      <point x="497" y="673"/>
      <point x="335" y="673" type="curve" smooth="yes"/>
      <point x="264" y="673"/>
      <point x="194" y="636"/>
      <point x="138" y="583" type="curve"/>
      <point x="74" y="509"/>
      <point x="61" y="405"/>
    </contour>
    <contour>
      <point x="148" y="342" type="curve" smooth="yes"/>
      <point x="147" y="448"/>
      <point x="154" y="612"/>
      <point x="281" y="612" type="curve" smooth="yes"/>
      <point x="434" y="612"/>
      <point x="466" y="436"/>
      <point x="466" y="302" type="curve" smooth="yes"/>
      <point x="466" y="203"/>
      <point x="457" y="42"/>
      <point x="328" y="42" type="curve" smooth="yes"/>
      <point x="172" y="42"/>
      <point x="149" y="218"/>
    </contour>
  </outline>
</glyph>
<glyph name="one" format="1">
  <advance width="460"/>
  <unicode hex="0031"/>
  <outline>
    <contour>
      <point x="64" y="20" type="curve" smooth="yes"/>
      <point x="64" y="12"/>
      <point x="67" y="0"/>
      <point x="83" y="0" type="curve" smooth="yes"/>
      <point x="401" y="0" type="line" smooth="yes"/>
      <point x="425" y="0"/>
      <point x="435" y="6"/>
      <point x="435" y="22" type="curve" smooth="yes"/>
      <point x="435" y="35"/>
      <point x="428" y="42"/>
      <point x="416" y="45" type="curve" smooth="yes"/>
      <point x="388" y="53"/>
      <point x="306" y="50"/>
      <point x="302" y="76" type="curve"/>
      <point x="302" y="650" type="line" smooth="yes"/>
      <point x="302" y="659"/>
      <point x="278" y="675"/>
      <point x="266" y="675" type="curve" smooth="yes"/>
      <point x="256" y="675"/>
      <point x="250" y="672"/>
      <point x="247" y="670" type="curve" smooth="yes"/>
      <point x="204" y="639"/>
      <point x="129" y="588"/>
      <point x="64" y="560" type="curve" smooth="yes"/>
      <point x="31" y="545"/>
      <point x="60" y="508"/>
      <point x="89" y="518" type="curve" smooth="yes"/>
      <point x="128" y="530"/>
      <point x="171" y="554"/>
      <point x="215" y="574" type="curve"/>
      <point x="215" y="60" type="line"/>
      <point x="213" y="60" type="line"/>
      <point x="202" y="55"/>
      <point x="94" y="44"/>
      <point x="76" y="37" type="curve" smooth="yes"/>
      <point x="68" y="34"/>
      <point x="64" y="25"/>
    </contour>
  </outline>
</glyph>
<glyph name="three" format="1">
  <advance width="557"/>
  <unicode hex="0033"/>
  <outline>
    <contour>
      <point x="58" y="41" type="curve" smooth="yes"/>
      <point x="58" y="-3"/>
      <point x="184" y="-17"/>
      <point x="212" y="-17" type="curve" smooth="yes"/>
      <point x="343" y="-17"/>
      <point x="488" y="65"/>
      <point x="488" y="198" type="curve" smooth="yes"/>
      <point x="488" y="291"/>
      <point x="433" y="344"/>
      <point x="337" y="359" type="curve"/>
      <point x="358" y="366"/>
      <point x="372" y="376"/>
      <point x="392" y="393" type="curve"/>
      <point x="428" y="429"/>
      <point x="455" y="480"/>
      <point x="455" y="528" type="curve" smooth="yes"/>
      <point x="455" y="608"/>
      <point x="393" y="675"/>
      <point x="262" y="675" type="curve" smooth="yes"/>
      <point x="183" y="675"/>
      <point x="51" y="617"/>
      <point x="51" y="542" type="curve" smooth="yes"/>
      <point x="51" y="529"/>
      <point x="54" y="505"/>
      <point x="84" y="505" type="curve" smooth="yes"/>
      <point x="110" y="505"/>
      <point x="154" y="531"/>
      <point x="154" y="553" type="curve" smooth="yes"/>
      <point x="154" y="559"/>
      <point x="147" y="560"/>
      <point x="147" y="579" type="curve" smooth="yes"/>
      <point x="147" y="613"/>
      <point x="165" y="618"/>
      <point x="217" y="618" type="curve" smooth="yes"/>
      <point x="310" y="618"/>
      <point x="364" y="584"/>
      <point x="364" y="487" type="curve" smooth="yes"/>
      <point x="364" y="423"/>
      <point x="329" y="371"/>
      <point x="253" y="365" type="curve" smooth="yes"/>
      <point x="228" y="363"/>
      <point x="217" y="364"/>
      <point x="198" y="364" type="curve" smooth="yes"/>
      <point x="172" y="364"/>
      <point x="159" y="343"/>
      <point x="159" y="322" type="curve" smooth="yes"/>
      <point x="159" y="315"/>
      <point x="169" y="313"/>
      <point x="186" y="313" type="curve" smooth="yes"/>
      <point x="208" y="313"/>
      <point x="200" y="314"/>
      <point x="223" y="314" type="curve" smooth="yes"/>
      <point x="330" y="314"/>
      <point x="396" y="285"/>
      <point x="396" y="168" type="curve" smooth="yes"/>
      <point x="396" y="84"/>
      <point x="354" y="42"/>
      <point x="260" y="42" type="curve" smooth="yes"/>
      <point x="219" y="42"/>
      <point x="138" y="75"/>
      <point x="127" y="104" type="curve"/>
      <point x="123" y="107"/>
      <point x="118" y="108"/>
      <point x="112" y="108" type="curve" smooth="yes"/>
      <point x="86" y="108"/>
      <point x="58" y="64"/>
    </contour>
  </outline>
</glyph>
<glyph name="four" format="1">
  <advance width="558"/>
  <unicode hex="0034"/>
  <outline>
    <contour>
      <point x="239" y="653" type="curve"/>
      <point x="174" y="491"/>
      <point x="69" y="295"/>
      <point x="14" y="224" type="curve" smooth="yes"/>
      <point x="4" y="212"/>
      <point x="29" y="172"/>
      <point x="44" y="172" type="curve" smooth="yes"/>
      <point x="476" y="172" type="line" smooth="yes"/>
      <point x="504" y="172"/>
      <point x="527" y="191"/>
      <point x="527" y="214" type="curve" smooth="yes"/>
      <point x="527" y="222"/>
      <point x="521" y="223"/>
      <point x="501" y="223" type="curve" smooth="yes"/>
      <point x="59" y="223" type="line"/>
      <point x="82" y="206" type="line"/>
      <point x="124" y="256"/>
      <point x="263" y="473"/>
      <point x="337" y="633" type="curve"/>
      <point x="346" y="664"/>
      <point x="310" y="675"/>
      <point x="286" y="675" type="curve" smooth="yes"/>
      <point x="255" y="675"/>
      <point x="246" y="667"/>
    </contour>
    <contour>
      <point x="338" y="-3" type="line" smooth="yes"/>
      <point x="338" y="-12"/>
      <point x="351" y="-16"/>
      <point x="360" y="-16" type="curve" smooth="yes"/>
      <point x="385" y="-16"/>
      <point x="419" y="12"/>
      <point x="425" y="30" type="curve"/>
      <point x="425" y="381" type="line" smooth="yes"/>
      <point x="425" y="390"/>
      <point x="415" y="397"/>
      <point x="405" y="397" type="curve" smooth="yes"/>
      <point x="380" y="398"/>
      <point x="339" y="370"/>
      <point x="338" y="346" type="curve"/>
    </contour>
  </outline>
</glyph>
<glyph name="six" format="1">
  <advance width="585"/>
  <unicode hex="0036"/>
  <outline>
    <contour>
      <point x="413" y="672" type="line"/>
      <point x="207" y="638"/>
      <point x="49" y="472"/>
      <point x="49" y="254" type="curve" smooth="yes"/>
      <point x="49" y="148"/>
      <point x="127" y="-17"/>
      <point x="278" y="-17" type="curve" smooth="yes"/>
      <point x="433" y="-17"/>
      <point x="526" y="119"/>
      <point x="526" y="231" type="curve" smooth="yes"/>
      <point x="526" y="339"/>
      <point x="471" y="428"/>
      <point x="342" y="428" type="curve" smooth="yes"/>
      <point x="308" y="428"/>
      <point x="218" y="412"/>
      <point x="186" y="360" type="curve"/>
      <point x="182" y="352"/>
      <point x="177" y="345"/>
      <point x="177" y="341" type="curve" smooth="yes"/>
      <point x="177" y="341"/>
      <point x="189" y="323"/>
      <point x="199" y="331" type="curve" smooth="yes"/>
      <point x="219" y="347"/>
      <point x="253" y="366"/>
      <point x="303" y="366" type="curve" smooth="yes"/>
      <point x="384" y="366"/>
      <point x="430" y="310"/>
      <point x="430" y="194" type="curve" smooth="yes"/>
      <point x="430" y="120"/>
      <point x="404" y="44"/>
      <point x="321" y="44" type="curve" smooth="yes"/>
      <point x="191" y="44"/>
      <point x="143" y="203"/>
      <point x="143" y="292" type="curve" smooth="yes"/>
      <point x="143" y="420"/>
      <point x="162" y="485"/>
      <point x="257" y="551" type="curve"/>
      <point x="300" y="576"/>
      <point x="345" y="588"/>
      <point x="397" y="597" type="curve"/>
      <point x="415" y="605"/>
      <point x="443" y="637"/>
      <point x="443" y="662" type="curve" smooth="yes"/>
      <point x="443" y="668"/>
      <point x="437" y="672"/>
      <point x="423" y="672" type="curve" smooth="yes"/>
    </contour>
  </outline>
</glyph>
<glyph name="seven" format="1">
  <advance width="473"/>
  <unicode hex="0037"/>
  <outline>
    <contour>
      <point x="99" y="645" type="line"/>
      <point x="99" y="645"/>
      <point x="92" y="604"/>
      <point x="92" y="604" type="curve"/>
      <point x="402" y="604" type="line"/>
      <point x="380" y="623" type="line"/>
      <point x="285" y="392"/>
      <point x="223" y="217"/>
      <point x="125" y="8" type="curve" smooth="yes"/>
      <point x="117" y="-9"/>
      <point x="136" y="-16"/>
      <point x="151" y="-16" type="curve" smooth="yes"/>
      <point x="185" y="-16"/>
      <point x="223" y="-12"/>
      <point x="234" y="18" type="curve" smooth="yes"/>
      <point x="310" y="225"/>
      <point x="368" y="408"/>
      <point x="449" y="627" type="curve" smooth="yes"/>
      <point x="454" y="642"/>
      <point x="451" y="658"/>
      <point x="435" y="662" type="curve"/>
      <point x="63" y="662" type="line"/>
      <point x="48" y="658"/>
      <point x="51" y="601"/>
      <point x="27" y="538" type="curve" smooth="yes"/>
      <point x="19" y="517"/>
      <point x="39" y="506"/>
      <point x="52" y="506" type="curve" smooth="yes"/>
      <point x="70" y="506"/>
      <point x="68" y="513"/>
      <point x="96" y="558" type="curve" smooth="yes"/>
      <point x="111" y="583"/>
      <point x="122" y="606"/>
      <point x="128" y="617" type="curve"/>
    </contour>
  </outline>
</glyph>
<glyph name="eight" format="1">
  <advance width="590"/>
  <unicode hex="0038"/>
  <outline>
    <contour>
      <point x="346" y="329" type="line"/>
      <point x="421" y="365"/>
      <point x="497" y="436"/>
      <point x="497" y="521" type="curve" smooth="yes"/>
      <point x="497" y="606"/>
      <point x="400" y="672"/>
      <point x="312" y="672" type="curve" smooth="yes"/>
      <point x="210" y="672"/>
      <point x="79" y="586"/>
      <point x="79" y="490" type="curve" smooth="yes"/>
      <point x="79" y="279"/>
      <point x="435" y="320"/>
      <point x="435" y="143" type="curve" smooth="yes"/>
      <point x="435" y="62"/>
      <point x="373" y="39"/>
      <point x="310" y="39" type="curve" smooth="yes"/>
      <point x="232" y="39"/>
      <point x="144" y="88"/>
      <point x="144" y="180" type="curve" smooth="yes"/>
      <point x="144" y="257"/>
      <point x="197" y="282"/>
      <point x="265" y="313" type="curve"/>
      <point x="257" y="349" type="line"/>
      <point x="164" y="302"/>
      <point x="59" y="251"/>
      <point x="59" y="150" type="curve" smooth="yes"/>
      <point x="59" y="54"/>
      <point x="147" y="-16"/>
      <point x="270" y="-16" type="curve" smooth="yes"/>
      <point x="395" y="-16"/>
      <point x="521" y="61"/>
      <point x="521" y="172" type="curve" smooth="yes"/>
      <point x="521" y="244"/>
      <point x="480" y="278"/>
      <point x="395" y="322" type="curve" smooth="yes"/>
      <point x="322" y="359"/>
      <point x="161" y="415"/>
      <point x="161" y="513" type="curve" smooth="yes"/>
      <point x="161" y="578"/>
      <point x="204" y="611"/>
      <point x="265" y="611" type="curve" smooth="yes"/>
      <point x="353" y="611"/>
      <point x="416" y="556"/>
      <point x="416" y="490" type="curve" smooth="yes"/>
      <point x="416" y="421"/>
      <point x="370" y="387"/>
      <point x="321" y="353" type="curve"/>
    </contour>
  </outline>
</glyph>
<glyph name="equal" format="1">
  <advance width="642"/>
  <unicode hex="003D"/>
  <outline>
    <contour>
      <point x="118" y="140" type="curve"/>
      <point x="481" y="140" type="line"/>
      <point x="509" y="143"/>
      <point x="577" y="190"/>
      <point x="521" y="194" type="curve"/>
      <point x="145" y="194" type="line"/>
      <point x="128" y="190"/>
      <point x="73" y="160"/>
    </contour>
    <contour>
      <point x="118" y="320" type="curve"/>
      <point x="481" y="320" type="line"/>
      <point x="509" y="323"/>
      <point x="577" y="370"/>
      <point x="521" y="374" type="curve"/>
      <point x="145" y="374" type="line"/>
      <point x="128" y="370"/>
      <point x="73" y="339"/>
    </contour>
  </outline>
</glyph>
<glyph name="greater" format="1">
  <advance width="566"/>
  <unicode hex="003E"/>
  <outline>
    <contour>
      <point x="67" y="482" type="curve" smooth="yes"/>
      <point x="92" y="444"/>
      <point x="310" y="333"/>
      <point x="389" y="283" type="curve"/>
      <point x="294" y="220"/>
      <point x="63" y="91"/>
      <point x="63" y="70" type="curve" smooth="yes"/>
      <point x="63" y="50"/>
      <point x="85" y="37"/>
      <point x="91" y="37" type="curve" smooth="yes"/>
      <point x="91" y="37"/>
      <point x="92" y="37"/>
      <point x="92" y="37" type="curve"/>
      <point x="447" y="240" type="line"/>
      <point x="470" y="248"/>
      <point x="482" y="262"/>
      <point x="482" y="290" type="curve" smooth="yes"/>
      <point x="482" y="316"/>
      <point x="473" y="329"/>
      <point x="447" y="341" type="curve"/>
      <point x="92" y="528" type="line"/>
      <point x="92" y="528"/>
      <point x="91" y="528"/>
      <point x="91" y="528" type="curve"/>
      <point x="84" y="528"/>
      <point x="63" y="516"/>
      <point x="63" y="496" type="curve" smooth="yes"/>
      <point x="63" y="491"/>
      <point x="64" y="486"/>
    </contour>
  </outline>
</glyph>
<glyph name="at" format="1">
  <advance width="1005"/>
  <unicode hex="0040"/>
  <outline>
    <contour>
      <point x="657" y="416" type="curve"/>
      <point x="630" y="347"/>
      <point x="598" y="256"/>
      <point x="574" y="186" type="curve" smooth="yes"/>
      <point x="562" y="151"/>
      <point x="550" y="105"/>
      <point x="550" y="69" type="curve" smooth="yes"/>
      <point x="550" y="11"/>
      <point x="577" y="-16"/>
      <point x="620" y="-16" type="curve" smooth="yes"/>
      <point x="657" y="-16"/>
      <point x="723" y="8"/>
      <point x="754" y="29" type="curve" smooth="yes"/>
      <point x="872" y="111"/>
      <point x="958" y="188"/>
      <point x="958" y="384" type="curve" smooth="yes"/>
      <point x="958" y="541"/>
      <point x="838" y="675"/>
      <point x="651" y="675" type="curve" smooth="yes"/>
      <point x="364" y="675"/>
      <point x="70" y="423"/>
      <point x="70" y="125" type="curve" smooth="yes"/>
      <point x="70" y="-121"/>
      <point x="260" y="-223"/>
      <point x="450" y="-223" type="curve" smooth="yes"/>
      <point x="599" y="-223"/>
      <point x="706" y="-182"/>
      <point x="771" y="-111" type="curve" smooth="yes"/>
      <point x="780" y="-101"/>
      <point x="782" y="-93"/>
      <point x="782" y="-88" type="curve" smooth="yes"/>
      <point x="782" y="-81"/>
      <point x="777" y="-76"/>
      <point x="769" y="-76" type="curve" smooth="yes"/>
      <point x="758" y="-76"/>
      <point x="738" y="-82"/>
      <point x="727" y="-93" type="curve" smooth="yes"/>
      <point x="678" y="-140"/>
      <point x="589" y="-173"/>
      <point x="461" y="-173" type="curve" smooth="yes"/>
      <point x="242" y="-173"/>
      <point x="147" y="-22"/>
      <point x="147" y="144" type="curve" smooth="yes"/>
      <point x="147" y="388"/>
      <point x="353" y="619"/>
      <point x="596" y="619" type="curve" smooth="yes"/>
      <point x="756" y="619"/>
      <point x="887" y="537"/>
      <point x="887" y="357" type="curve" smooth="yes"/>
      <point x="887" y="219"/>
      <point x="762" y="43"/>
      <point x="689" y="43" type="curve" smooth="yes"/>
      <point x="655" y="43"/>
      <point x="642" y="56"/>
      <point x="642" y="82" type="curve" smooth="yes"/>
      <point x="642" y="134"/>
      <point x="709" y="311"/>
      <point x="758" y="433" type="curve" smooth="yes"/>
      <point x="759" y="437"/>
      <point x="759" y="440"/>
      <point x="759" y="444" type="curve" smooth="yes"/>
      <point x="759" y="452"/>
      <point x="756" y="458"/>
      <point x="746" y="458" type="curve" smooth="yes"/>
      <point x="724" y="458"/>
      <point x="667" y="435"/>
    </contour>
    <contour>
      <point x="598" y="174" type="line"/>
      <point x="559" y="117"/>
      <point x="508" y="43"/>
      <point x="443" y="43" type="curve" smooth="yes"/>
      <point x="398" y="43"/>
      <point x="378" y="93"/>
      <point x="378" y="160" type="curve" smooth="yes"/>
      <point x="378" y="254"/>
      <point x="465" y="409"/>
      <point x="557" y="409" type="curve" smooth="yes"/>
      <point x="589" y="409"/>
      <point x="620" y="395"/>
      <point x="637" y="363" type="curve" smooth="yes"/>
      <point x="641" y="355"/>
      <point x="649" y="352"/>
      <point x="659" y="352" type="curve" smooth="yes"/>
      <point x="684" y="352"/>
      <point x="716" y="365"/>
      <point x="716" y="389" type="curve" smooth="yes"/>
      <point x="716" y="394" type="line"/>
      <point x="692" y="440"/>
      <point x="646" y="458"/>
      <point x="596" y="458" type="curve" smooth="yes"/>
      <point x="456" y="458"/>
      <point x="279" y="319"/>
      <point x="279" y="133" type="curve" smooth="yes"/>
      <point x="279" y="38"/>
      <point x="339" y="-16"/>
      <point x="400" y="-16" type="curve" smooth="yes"/>
      <point x="488" y="-16"/>
      <point x="554" y="50"/>
      <point x="603" y="125" type="curve"/>
    </contour>
  </outline>
</glyph>
<glyph name="A" format="1">
  <advance width="571"/>
  <unicode hex="0041"/>
  <outline>
    <contour>
      <point x="285" y="808" type="move" name="top"/>
    </contour>
    <contour>
      <point x="95" y="43" type="line"/>
      <point x="271" y="568" type="line"/>
      <point x="353" y="358"/>
      <point x="381" y="217"/>
      <point x="460" y="9" type="curve"/>
      <point x="479" y="-18"/>
      <point x="541" y="29"/>
      <point x="539" y="60" type="curve"/>
      <point x="448" y="302"/>
      <point x="415" y="421"/>
      <point x="317" y="663" type="curve"/>
      <point x="275" y="676"/>
      <point x="249" y="658"/>
      <point x="229" y="615" type="curve"/>
      <point x="18" y="16" type="line"/>
    </contour>
    <contour>
      <point x="122" y="197" type="curve"/>
      <point x="239" y="197"/>
      <point x="308" y="196"/>
      <point x="423" y="196" type="curve"/>
      <point x="443" y="198"/>
      <point x="469" y="220"/>
      <point x="469" y="236" type="curve" smooth="yes"/>
      <point x="469" y="244"/>
      <point x="462" y="251"/>
      <point x="444" y="252" type="curve"/>
      <point x="327" y="252"/>
      <point x="266" y="254"/>
      <point x="152" y="254" type="curve"/>
      <point x="135" y="249"/>
      <point x="77" y="211"/>
    </contour>
    <contour>
      <point x="-34" y="20" type="curve" smooth="yes"/>
      <point x="-34" y="12"/>
      <point x="-31" y="0"/>
      <point x="-15" y="0" type="curve" smooth="yes"/>
      <point x="139" y="0" type="line" smooth="yes"/>
      <point x="163" y="0"/>
      <point x="173" y="6"/>
      <point x="173" y="22" type="curve" smooth="yes"/>
      <point x="173" y="35"/>
      <point x="166" y="38"/>
      <point x="154" y="41" type="curve" smooth="yes"/>
      <point x="124" y="49"/>
      <point x="105" y="46"/>
      <point x="105" y="74" type="curve" smooth="yes"/>
      <point x="105" y="74"/>
      <point x="31" y="51"/>
      <point x="31" y="51" type="curve"/>
      <point x="21" y="46"/>
      <point x="-5" y="40"/>
      <point x="-22" y="33" type="curve" smooth="yes"/>
      <point x="-30" y="30"/>
      <point x="-34" y="25"/>
    </contour>
    <contour>
      <point x="394" y="20" type="curve" smooth="yes"/>
      <point x="394" y="12"/>
      <point x="397" y="0"/>
      <point x="413" y="0" type="curve" smooth="yes"/>
      <point x="565" y="0" type="line" smooth="yes"/>
      <point x="589" y="0"/>
      <point x="599" y="16"/>
      <point x="599" y="22" type="curve" smooth="yes"/>
      <point x="599" y="35"/>
      <point x="592" y="38"/>
      <point x="580" y="41" type="curve" smooth="yes"/>
      <point x="550" y="49"/>
      <point x="544" y="52"/>
      <point x="532" y="79" type="curve" smooth="yes"/>
      <point x="532" y="79"/>
      <point x="445" y="51"/>
      <point x="445" y="51" type="curve"/>
      <point x="435" y="46"/>
      <point x="423" y="40"/>
      <point x="406" y="33" type="curve" smooth="yes"/>
      <point x="398" y="30"/>
      <point x="394" y="25"/>
    </contour>
  </outline>
</glyph>
<glyph name="B" format="1">
  <advance width="607"/>
  <unicode hex="0042"/>
  <outline>
    <contour>
      <point x="311" y="808" type="move" name="top"/>
    </contour>
    <contour>
      <point x="48" y="24" type="curve" smooth="yes"/>
      <point x="48" y="16"/>
      <point x="51" y="0"/>
      <point x="67" y="0" type="curve" smooth="yes"/>
      <point x="261" y="0" type="line"/>
      <point x="267" y="0" type="line"/>
      <point x="282" y="0" type="line" smooth="yes"/>
      <point x="415" y="2"/>
      <point x="568" y="37"/>
      <point x="568" y="212" type="curve" smooth="yes"/>
      <point x="568" y="266"/>
      <point x="520" y="351"/>
      <point x="398" y="355" type="curve"/>
      <point x="472" y="384"/>
      <point x="518" y="447"/>
      <point x="518" y="502" type="curve" smooth="yes"/>
      <point x="518" y="635"/>
      <point x="406" y="665"/>
      <point x="310" y="665" type="curve" smooth="yes"/>
      <point x="236" y="665"/>
      <point x="234" y="658"/>
      <point x="156" y="658" type="curve" smooth="yes"/>
      <point x="67" y="658" type="line" smooth="yes"/>
      <point x="51" y="658"/>
      <point x="48" y="642"/>
      <point x="48" y="634" type="curve" smooth="yes"/>
      <point x="48" y="629"/>
      <point x="52" y="624"/>
      <point x="60" y="621" type="curve" smooth="yes"/>
      <point x="77" y="614"/>
      <point x="102" y="608"/>
      <point x="112" y="603" type="curve"/>
      <point x="112" y="55" type="line"/>
      <point x="102" y="50"/>
      <point x="77" y="44"/>
      <point x="60" y="37" type="curve" smooth="yes"/>
      <point x="52" y="34"/>
      <point x="48" y="29"/>
    </contour>
    <contour>
      <point x="200" y="368" type="curve"/>
      <point x="200" y="609" type="line"/>
      <point x="217" y="611"/>
      <point x="235" y="612"/>
      <point x="252" y="612" type="curve" smooth="yes"/>
      <point x="391" y="612"/>
      <point x="428" y="581"/>
      <point x="428" y="486" type="curve" smooth="yes"/>
      <point x="428" y="424"/>
      <point x="377" y="366"/>
      <point x="256" y="366" type="curve" smooth="yes"/>
      <point x="234" y="366"/>
      <point x="217" y="366"/>
    </contour>
    <contour>
      <point x="200" y="59" type="curve"/>
      <point x="200" y="317" type="line"/>
      <point x="214" y="318"/>
      <point x="231" y="319"/>
      <point x="248" y="319" type="curve"/>
      <point x="301" y="319" type="line"/>
      <point x="431" y="322"/>
      <point x="473" y="284"/>
      <point x="473" y="194" type="curve" smooth="yes"/>
      <point x="473" y="90"/>
      <point x="380" y="53"/>
      <point x="304" y="53" type="curve" smooth="yes"/>
      <point x="269" y="53"/>
      <point x="231" y="54"/>
    </contour>
  </outline>
</glyph>
<glyph name="C" format="1">
  <advance width="567"/>
  <unicode hex="0043"/>
  <outline>
    <contour>
      <point x="342" y="808" type="move" name="top"/>
    </contour>
    <contour>
      <point x="327" y="616" type="curve" smooth="yes"/>
      <point x="384" y="616"/>
      <point x="455" y="584"/>
      <point x="465" y="553" type="curve"/>
      <point x="465" y="553"/>
      <point x="488" y="465"/>
      <point x="504" y="465" type="curve" smooth="yes"/>
      <point x="513" y="465"/>
      <point x="530" y="470"/>
      <point x="533" y="482" type="curve" smooth="yes"/>
      <point x="540" y="514"/>
      <point x="539" y="572"/>
      <point x="539" y="600" type="curve"/>
      <point x="535" y="631"/>
      <point x="449" y="672"/>
      <point x="373" y="672" type="curve" smooth="yes"/>
      <point x="178" y="672"/>
      <point x="41" y="534"/>
      <point x="41" y="314" type="curve" smooth="yes"/>
      <point x="41" y="97"/>
      <point x="182" y="-16"/>
      <point x="313" y="-16" type="curve" smooth="yes"/>
      <point x="414" y="-16"/>
      <point x="490" y="18"/>
      <point x="541" y="82" type="curve" smooth="yes"/>
      <point x="549" y="91"/>
      <point x="553" y="104"/>
      <point x="549" y="108" type="curve"/>
      <point x="547" y="112"/>
      <point x="534" y="114"/>
      <point x="529" y="114" type="curve" smooth="yes"/>
      <point x="521" y="114"/>
      <point x="480" y="88"/>
      <point x="467" y="76" type="curve"/>
      <point x="438" y="53"/>
      <point x="386" y="43"/>
      <point x="363" y="43" type="curve" smooth="yes"/>
      <point x="231" y="43"/>
      <point x="134" y="160"/>
      <point x="134" y="341" type="curve" smooth="yes"/>
      <point x="134" y="483"/>
      <point x="178" y="616"/>
    </contour>
  </outline>
</glyph>
<glyph name="D" format="1">
  <advance width="648"/>
  <unicode hex="0044"/>
  <outline>
    <contour>
      <point x="330" y="808" type="move" name="top"/>
    </contour>
    <contour>
      <point x="278" y="611" type="line" smooth="yes"/>
      <point x="457" y="611"/>
      <point x="527" y="484"/>
      <point x="527" y="339" type="curve" smooth="yes"/>
      <point x="527" y="156"/>
      <point x="437" y="45"/>
      <point x="273" y="45" type="curve" smooth="yes"/>
      <point x="240" y="45"/>
      <point x="213" y="48"/>
      <point x="201" y="48" type="curve"/>
      <point x="201" y="611" type="line"/>
    </contour>
    <contour>
      <point x="143" y="0" type="line" smooth="yes"/>
      <point x="213" y="0"/>
      <point x="236" y="-5"/>
      <point x="277" y="-5" type="curve" smooth="yes"/>
      <point x="510" y="-5"/>
      <point x="616" y="174"/>
      <point x="616" y="349" type="curve" smooth="yes"/>
      <point x="616" y="546"/>
      <point x="516" y="665"/>
      <point x="295" y="665" type="curve" smooth="yes"/>
      <point x="240" y="665"/>
      <point x="181" y="658"/>
      <point x="146" y="658" type="curve" smooth="yes"/>
      <point x="112" y="658" type="line"/>
      <point x="112" y="0" type="line"/>
    </contour>
    <contour>
      <point x="48" y="24" type="curve" smooth="yes"/>
      <point x="48" y="16"/>
      <point x="51" y="0"/>
      <point x="67" y="0" type="curve" smooth="yes"/>
      <point x="112" y="0" type="line"/>
      <point x="122" y="23" type="line"/>
      <point x="112" y="55" type="line"/>
      <point x="102" y="50"/>
      <point x="77" y="44"/>
      <point x="60" y="37" type="curve" smooth="yes"/>
      <point x="52" y="34"/>
      <point x="48" y="29"/>
    </contour>
    <contour>
      <point x="48" y="634" type="curve" smooth="yes"/>
      <point x="48" y="629"/>
      <point x="52" y="624"/>
      <point x="60" y="621" type="curve" smooth="yes"/>
      <point x="77" y="614"/>
      <point x="102" y="608"/>
      <point x="112" y="603" type="curve"/>
      <point x="122" y="635" type="line"/>
      <point x="112" y="658" type="line"/>
      <point x="67" y="658" type="line" smooth="yes"/>
      <point x="51" y="658"/>
      <point x="48" y="642"/>
    </contour>
  </outline>
</glyph>
<glyph name="F" format="1">
  <advance width="500"/>
  <unicode hex="0046"/>
  <outline>
    <contour>
      <point x="258" y="808" type="move" name="top"/>
    </contour>
    <contour>
      <point x="48" y="24" type="curve" smooth="yes"/>
      <point x="48" y="16"/>
      <point x="51" y="0"/>
      <point x="67" y="0" type="curve" smooth="yes"/>
      <point x="299" y="0" type="line" smooth="yes"/>
      <point x="314" y="0"/>
      <point x="319" y="18"/>
      <point x="319" y="24" type="curve" smooth="yes"/>
      <point x="319" y="30"/>
      <point x="316" y="38"/>
      <point x="308" y="40" type="curve" smooth="yes"/>
      <point x="283" y="47"/>
      <point x="223" y="52"/>
      <point x="201" y="57" type="curve"/>
      <point x="201" y="303" type="line"/>
      <point x="374" y="294" type="line"/>
      <point x="392" y="296"/>
      <point x="409" y="336"/>
      <point x="409" y="352" type="curve" smooth="yes"/>
      <point x="409" y="358"/>
      <point x="405" y="363"/>
      <point x="392" y="364" type="curve"/>
      <point x="201" y="357" type="line"/>
      <point x="201" y="613" type="line"/>
      <point x="354" y="613" type="line" smooth="yes"/>
      <point x="381" y="613"/>
      <point x="394" y="592"/>
      <point x="405" y="554" type="curve" smooth="yes"/>
      <point x="415" y="519"/>
      <point x="418" y="488"/>
      <point x="440" y="488" type="curve" smooth="yes"/>
      <point x="460" y="488"/>
      <point x="476" y="596"/>
      <point x="476" y="628" type="curve" smooth="yes"/>
      <point x="476" y="656"/>
      <point x="433" y="658"/>
      <point x="389" y="658" type="curve" smooth="yes"/>
      <point x="67" y="658" type="line" smooth="yes"/>
      <point x="51" y="658"/>
      <point x="48" y="642"/>
      <point x="48" y="634" type="curve" smooth="yes"/>
      <point x="48" y="629"/>
      <point x="52" y="624"/>
      <point x="60" y="621" type="curve" smooth="yes"/>
      <point x="77" y="614"/>
      <point x="102" y="608"/>
      <point x="112" y="603" type="curve"/>
      <point x="112" y="55" type="line"/>
      <point x="102" y="50"/>
      <point x="77" y="44"/>
      <point x="60" y="37" type="curve" smooth="yes"/>
      <point x="52" y="34"/>
      <point x="48" y="29"/>
    </contour>
  </outline>
</glyph>
<glyph name="H" format="1">
  <advance width="718"/>
  <unicode hex="0048"/>
  <outline>
    <contour>
      <point x="348" y="808" type="move" name="top"/>
    </contour>
    <contour>
      <point x="48" y="24" type="curve" smooth="yes"/>
      <point x="48" y="16"/>
      <point x="51" y="0"/>
      <point x="67" y="0" type="curve" smooth="yes"/>
      <point x="239" y="0" type="line" smooth="yes"/>
      <point x="263" y="0"/>
      <point x="273" y="16"/>
      <point x="273" y="22" type="curve" smooth="yes"/>
      <point x="273" y="35"/>
      <point x="266" y="38"/>
      <point x="254" y="41" type="curve" smooth="yes"/>
      <point x="224" y="49"/>
      <point x="202" y="46"/>
      <point x="202" y="74" type="curve" smooth="yes"/>
      <point x="202" y="311" type="line"/>
      <point x="507" y="311" type="line" smooth="yes"/>
      <point x="509" y="311"/>
      <point x="513" y="312"/>
      <point x="516" y="313" type="curve"/>
      <point x="516" y="55" type="line"/>
      <point x="506" y="50"/>
      <point x="481" y="44"/>
      <point x="464" y="37" type="curve" smooth="yes"/>
      <point x="456" y="34"/>
      <point x="452" y="29"/>
      <point x="452" y="24" type="curve" smooth="yes"/>
      <point x="452" y="16"/>
      <point x="455" y="0"/>
      <point x="471" y="0" type="curve" smooth="yes"/>
      <point x="643" y="0" type="line" smooth="yes"/>
      <point x="667" y="0"/>
      <point x="677" y="16"/>
      <point x="677" y="22" type="curve" smooth="yes"/>
      <point x="677" y="35"/>
      <point x="670" y="38"/>
      <point x="658" y="41" type="curve" smooth="yes"/>
      <point x="628" y="49"/>
      <point x="606" y="46"/>
      <point x="606" y="74" type="curve" smooth="yes"/>
      <point x="606" y="584" type="line" smooth="yes"/>
      <point x="606" y="612"/>
      <point x="628" y="609"/>
      <point x="658" y="617" type="curve" smooth="yes"/>
      <point x="670" y="620"/>
      <point x="677" y="623"/>
      <point x="677" y="636" type="curve" smooth="yes"/>
      <point x="677" y="642"/>
      <point x="667" y="658"/>
      <point x="643" y="658" type="curve" smooth="yes"/>
      <point x="471" y="658" type="line" smooth="yes"/>
      <point x="455" y="658"/>
      <point x="452" y="642"/>
      <point x="452" y="634" type="curve" smooth="yes"/>
      <point x="452" y="629"/>
      <point x="456" y="624"/>
      <point x="464" y="621" type="curve" smooth="yes"/>
      <point x="481" y="614"/>
      <point x="506" y="608"/>
      <point x="516" y="603" type="curve"/>
      <point x="516" y="365" type="line"/>
      <point x="202" y="365" type="line"/>
      <point x="202" y="588" type="line"/>
      <point x="204" y="612"/>
      <point x="225" y="609"/>
      <point x="254" y="617" type="curve" smooth="yes"/>
      <point x="266" y="620"/>
      <point x="273" y="623"/>
      <point x="273" y="636" type="curve" smooth="yes"/>
      <point x="273" y="642"/>
      <point x="263" y="658"/>
      <point x="239" y="658" type="curve" smooth="yes"/>
      <point x="67" y="658" type="line" smooth="yes"/>
      <point x="51" y="658"/>
      <point x="48" y="642"/>
      <point x="48" y="634" type="curve" smooth="yes"/>
      <point x="48" y="629"/>
      <point x="52" y="624"/>
      <point x="60" y="621" type="curve" smooth="yes"/>
      <point x="77" y="614"/>
      <point x="102" y="608"/>
      <point x="112" y="603" type="curve"/>
      <point x="112" y="55" type="line"/>
      <point x="102" y="50"/>
      <point x="77" y="44"/>
      <point x="60" y="37" type="curve" smooth="yes"/>
      <point x="52" y="34"/>
      <point x="48" y="29"/>
    </contour>
  </outline>
</glyph>
<glyph name="I" format="1">
  <advance width="314"/>
  <unicode hex="0049"/>
  <outline>
    <contour>
      <point x="154" y="808" type="move" name="top"/>
    </contour>
    <contour>
      <point x="202" y="657" type="line"/>
      <point x="112" y="657" type="line"/>
      <point x="112" y="0" type="line"/>
      <point x="202" y="0" type="line"/>
    </contour>
    <contour>
      <point x="48" y="634" type="curve" smooth="yes"/>
      <point x="48" y="629"/>
      <point x="52" y="624"/>
      <point x="60" y="621" type="curve" smooth="yes"/>
      <point x="77" y="614"/>
      <point x="102" y="608"/>
      <point x="112" y="603" type="curve"/>
      <point x="202" y="584" type="line"/>
      <point x="202" y="612"/>
      <point x="224" y="609"/>
      <point x="254" y="617" type="curve" smooth="yes"/>
      <point x="266" y="620"/>
      <point x="273" y="623"/>
      <point x="273" y="636" type="curve" smooth="yes"/>
      <point x="273" y="642"/>
      <point x="263" y="658"/>
      <point x="239" y="658" type="curve" smooth="yes"/>
      <point x="67" y="658" type="line" smooth="yes"/>
      <point x="51" y="658"/>
      <point x="48" y="642"/>
    </contour>
    <contour>
      <point x="48" y="24" type="curve" smooth="yes"/>
      <point x="48" y="16"/>
      <point x="51" y="0"/>
      <point x="67" y="0" type="curve" smooth="yes"/>
      <point x="239" y="0" type="line" smooth="yes"/>
      <point x="263" y="0"/>
      <point x="273" y="16"/>
      <point x="273" y="22" type="curve" smooth="yes"/>
      <point x="273" y="35"/>
      <point x="266" y="38"/>
      <point x="254" y="41" type="curve" smooth="yes"/>
      <point x="224" y="49"/>
      <point x="202" y="46"/>
      <point x="202" y="74" type="curve"/>
      <point x="112" y="55" type="line"/>
      <point x="102" y="50"/>
      <point x="77" y="44"/>
      <point x="60" y="37" type="curve" smooth="yes"/>
      <point x="52" y="34"/>
      <point x="48" y="29"/>
    </contour>
  </outline>
</glyph>
<glyph name="J" format="1">
  <advance width="339"/>
  <unicode hex="004A"/>
  <outline>
    <contour>
      <point x="185" y="808" type="move" name="top"/>
    </contour>
    <contour>
      <point x="107" y="-68" type="curve" smooth="yes"/>
      <point x="92" y="-86"/>
      <point x="76" y="-103"/>
      <point x="76" y="-113" type="curve" smooth="yes"/>
      <point x="76" y="-120"/>
      <point x="81" y="-139"/>
      <point x="89" y="-139" type="curve" smooth="yes"/>
      <point x="97" y="-139"/>
      <point x="104" y="-139"/>
      <point x="124" y="-128" type="curve" smooth="yes"/>
      <point x="222" y="-77"/>
      <point x="235" y="-21"/>
      <point x="235" y="87" type="curve" smooth="yes"/>
      <point x="235" y="588" type="line"/>
      <point x="237" y="612"/>
      <point x="259" y="609"/>
      <point x="288" y="617" type="curve" smooth="yes"/>
      <point x="300" y="620"/>
      <point x="307" y="623"/>
      <point x="307" y="636" type="curve" smooth="yes"/>
      <point x="307" y="642"/>
      <point x="297" y="658"/>
      <point x="273" y="658" type="curve" smooth="yes"/>
      <point x="101" y="658" type="line" smooth="yes"/>
      <point x="85" y="658"/>
      <point x="82" y="642"/>
      <point x="82" y="634" type="curve" smooth="yes"/>
      <point x="82" y="629"/>
      <point x="86" y="624"/>
      <point x="94" y="621" type="curve" smooth="yes"/>
      <point x="111" y="614"/>
      <point x="136" y="608"/>
      <point x="146" y="603" type="curve"/>
      <point x="146" y="77" type="line" smooth="yes"/>
      <point x="146" y="-23"/>
      <point x="140" y="-28"/>
    </contour>
  </outline>
</glyph>
<glyph name="K" format="1">
  <advance width="653"/>
  <unicode hex="004B"/>
  <outline>
    <contour>
      <point x="338" y="808" type="move" name="top"/>
    </contour>
    <contour>
      <point x="48" y="24" type="curve" smooth="yes"/>
      <point x="48" y="16"/>
      <point x="51" y="0"/>
      <point x="67" y="0" type="curve" smooth="yes"/>
      <point x="234" y="0" type="line" smooth="yes"/>
      <point x="258" y="0"/>
      <point x="268" y="16"/>
      <point x="268" y="22" type="curve" smooth="yes"/>
      <point x="268" y="35"/>
      <point x="261" y="38"/>
      <point x="249" y="41" type="curve" smooth="yes"/>
      <point x="219" y="49"/>
      <point x="197" y="46"/>
      <point x="197" y="74" type="curve" smooth="yes"/>
      <point x="197" y="222" type="line"/>
      <point x="299" y="341" type="line"/>
      <point x="468" y="55" type="line"/>
      <point x="458" y="50"/>
      <point x="433" y="44"/>
      <point x="416" y="37" type="curve" smooth="yes"/>
      <point x="408" y="34"/>
      <point x="404" y="29"/>
      <point x="404" y="24" type="curve" smooth="yes"/>
      <point x="404" y="16"/>
      <point x="407" y="0"/>
      <point x="423" y="0" type="curve" smooth="yes"/>
      <point x="611" y="0" type="line" smooth="yes"/>
      <point x="635" y="0"/>
      <point x="645" y="16"/>
      <point x="645" y="22" type="curve" smooth="yes"/>
      <point x="645" y="35"/>
      <point x="638" y="38"/>
      <point x="626" y="41" type="curve" smooth="yes"/>
      <point x="596" y="49"/>
      <point x="572" y="57"/>
      <point x="565" y="67" type="curve" smooth="yes"/>
      <point x="354" y="405" type="line"/>
      <point x="516" y="593" type="line" smooth="yes"/>
      <point x="527" y="606"/>
      <point x="551" y="609"/>
      <point x="581" y="617" type="curve" smooth="yes"/>
      <point x="593" y="620"/>
      <point x="600" y="623"/>
      <point x="600" y="636" type="curve" smooth="yes"/>
      <point x="600" y="642"/>
      <point x="590" y="658"/>
      <point x="566" y="658" type="curve" smooth="yes"/>
      <point x="391" y="658" type="line" smooth="yes"/>
      <point x="375" y="658"/>
      <point x="372" y="642"/>
      <point x="372" y="634" type="curve" smooth="yes"/>
      <point x="372" y="629"/>
      <point x="376" y="624"/>
      <point x="384" y="621" type="curve" smooth="yes"/>
      <point x="401" y="614"/>
      <point x="428" y="606"/>
      <point x="436" y="603" type="curve"/>
      <point x="197" y="293" type="line"/>
      <point x="197" y="588" type="line"/>
      <point x="199" y="612"/>
      <point x="220" y="609"/>
      <point x="249" y="617" type="curve" smooth="yes"/>
      <point x="261" y="620"/>
      <point x="268" y="623"/>
      <point x="268" y="636" type="curve" smooth="yes"/>
      <point x="268" y="642"/>
      <point x="258" y="658"/>
      <point x="234" y="658" type="curve" smooth="yes"/>
      <point x="67" y="658" type="line" smooth="yes"/>
      <point x="51" y="658"/>
      <point x="48" y="642"/>
      <point x="48" y="634" type="curve" smooth="yes"/>
      <point x="48" y="629"/>
      <point x="52" y="624"/>
      <point x="60" y="621" type="curve" smooth="yes"/>
      <point x="77" y="614"/>
      <point x="102" y="608"/>
      <point x="112" y="603" type="curve"/>
      <point x="112" y="55" type="line"/>
      <point x="102" y="50"/>
      <point x="77" y="44"/>
      <point x="60" y="37" type="curve" smooth="yes"/>
      <point x="52" y="34"/>
      <point x="48" y="29"/>
    </contour>
  </outline>
</glyph>
<glyph name="L" format="1">
  <advance width="524"/>
  <unicode hex="004C"/>
  <outline>
    <contour>
      <point x="265" y="808" type="move" name="top"/>
    </contour>
    <contour>
      <point x="48" y="24" type="curve" smooth="yes"/>
      <point x="48" y="16"/>
      <point x="51" y="0"/>
      <point x="67" y="0" type="curve" smooth="yes"/>
      <point x="472" y="0" type="line" smooth="yes"/>
      <point x="481" y="0"/>
      <point x="488" y="60"/>
      <point x="491" y="114" type="curve"/>
      <point x="492" y="148"/>
      <point x="492" y="178"/>
      <point x="490" y="190" type="curve" smooth="yes"/>
      <point x="487" y="202"/>
      <point x="462" y="198"/>
      <point x="453" y="192" type="curve" smooth="yes"/>
      <point x="446" y="188"/>
      <point x="428" y="90"/>
      <point x="407" y="65" type="curve"/>
      <point x="383" y="48"/>
      <point x="260" y="47"/>
      <point x="200" y="47" type="curve"/>
      <point x="200" y="588" type="line"/>
      <point x="202" y="612"/>
      <point x="225" y="609"/>
      <point x="254" y="617" type="curve" smooth="yes"/>
      <point x="266" y="620"/>
      <point x="273" y="623"/>
      <point x="273" y="636" type="curve" smooth="yes"/>
      <point x="273" y="642"/>
      <point x="263" y="658"/>
      <point x="239" y="658" type="curve" smooth="yes"/>
      <point x="67" y="658" type="line" smooth="yes"/>
      <point x="51" y="658"/>
      <point x="48" y="642"/>
      <point x="48" y="634" type="curve" smooth="yes"/>
      <point x="48" y="629"/>
      <point x="52" y="624"/>
      <point x="60" y="621" type="curve" smooth="yes"/>
      <point x="77" y="614"/>
      <point x="102" y="608"/>
      <point x="112" y="603" type="curve"/>
      <point x="112" y="55" type="line"/>
      <point x="102" y="50"/>
      <point x="77" y="44"/>
      <point x="60" y="37" type="curve" smooth="yes"/>
      <point x="52" y="34"/>
      <point x="48" y="29"/>
    </contour>
  </outline>
</glyph>
<glyph name="M" format="1">
  <advance width="905"/>
  <unicode hex="004D"/>
  <outline>
    <contour>
      <point x="448" y="808" type="move" name="top"/>
    </contour>
    <contour>
      <point x="211" y="597" type="line"/>
      <point x="169" y="624" type="line"/>
      <point x="78" y="43" type="line"/>
      <point x="21" y="34"/>
      <point x="22" y="25"/>
      <point x="22" y="12" type="curve" smooth="yes"/>
      <point x="22" y="5"/>
      <point x="24" y="0"/>
      <point x="40" y="0" type="curve" smooth="yes"/>
      <point x="194" y="0" type="line" smooth="yes"/>
      <point x="216" y="0"/>
      <point x="224" y="5"/>
      <point x="224" y="11" type="curve" smooth="yes"/>
      <point x="224" y="35"/>
      <point x="194" y="41"/>
      <point x="149" y="45" type="curve"/>
    </contour>
    <contour>
      <point x="648" y="585" type="line"/>
      <point x="723" y="43" type="line"/>
      <point x="682" y="36"/>
      <point x="660" y="30"/>
      <point x="660" y="12" type="curve" smooth="yes"/>
      <point x="660" y="5"/>
      <point x="663" y="0"/>
      <point x="681" y="0" type="curve" smooth="yes"/>
      <point x="851" y="0" type="line" smooth="yes"/>
      <point x="875" y="0"/>
      <point x="884" y="5"/>
      <point x="884" y="11" type="curve" smooth="yes"/>
      <point x="884" y="35"/>
      <point x="859" y="41"/>
      <point x="817" y="45" type="curve"/>
      <point x="718" y="606" type="line"/>
      <point x="747" y="616"/>
      <point x="796" y="623"/>
      <point x="796" y="636" type="curve" smooth="yes"/>
      <point x="796" y="649"/>
      <point x="791" y="658"/>
      <point x="777" y="658" type="curve" smooth="yes"/>
      <point x="635" y="658" type="line" smooth="yes"/>
      <point x="618" y="658"/>
      <point x="612" y="651"/>
      <point x="609" y="641" type="curve" smooth="yes"/>
      <point x="608" y="636"/>
      <point x="597" y="625"/>
      <point x="427" y="30" type="curve"/>
      <point x="458" y="48" type="line"/>
      <point x="419" y="226" type="line"/>
      <point x="271" y="656" type="line"/>
      <point x="267" y="660"/>
      <point x="205" y="656"/>
      <point x="200" y="658" type="curve"/>
      <point x="109" y="658" type="line" smooth="yes"/>
      <point x="93" y="658"/>
      <point x="86" y="649"/>
      <point x="86" y="640" type="curve" smooth="yes"/>
      <point x="86" y="630"/>
      <point x="95" y="620"/>
      <point x="109" y="620" type="curve" smooth="yes"/>
      <point x="123" y="620"/>
      <point x="154" y="606"/>
      <point x="165" y="605" type="curve" smooth="yes"/>
      <point x="187" y="603" type="line" smooth="yes"/>
      <point x="210" y="601"/>
      <point x="213" y="584"/>
      <point x="219" y="561" type="curve"/>
      <point x="263" y="407" type="line"/>
      <point x="413" y="0" type="line"/>
      <point x="438" y="0"/>
      <point x="476" y="0"/>
      <point x="476" y="26" type="curve"/>
      <point x="643" y="569" type="line"/>
    </contour>
  </outline>
</glyph>
<glyph name="N" format="1">
  <advance width="689"/>
  <unicode hex="004E"/>
  <outline>
    <contour>
      <point x="359" y="808" type="move" name="top"/>
    </contour>
    <contour>
      <point x="39" y="24" type="curve" smooth="yes"/>
      <point x="39" y="16"/>
      <point x="42" y="0"/>
      <point x="58" y="0" type="curve" smooth="yes"/>
      <point x="202" y="0" type="line" smooth="yes"/>
      <point x="226" y="0"/>
      <point x="236" y="16"/>
      <point x="236" y="22" type="curve" smooth="yes"/>
      <point x="236" y="35"/>
      <point x="229" y="38"/>
      <point x="217" y="41" type="curve" smooth="yes"/>
      <point x="187" y="49"/>
      <point x="165" y="46"/>
      <point x="165" y="74" type="curve" smooth="yes"/>
      <point x="165" y="520" type="line"/>
      <point x="228" y="407" type="line"/>
      <point x="541" y="0" type="line"/>
      <point x="566" y="0"/>
      <point x="604" y="0"/>
      <point x="604" y="26" type="curve" smooth="yes"/>
      <point x="604" y="584" type="line" smooth="yes"/>
      <point x="604" y="612"/>
      <point x="626" y="609"/>
      <point x="656" y="617" type="curve" smooth="yes"/>
      <point x="668" y="620"/>
      <point x="675" y="623"/>
      <point x="675" y="636" type="curve" smooth="yes"/>
      <point x="675" y="642"/>
      <point x="665" y="658"/>
      <point x="641" y="658" type="curve" smooth="yes"/>
      <point x="495" y="658" type="line" smooth="yes"/>
      <point x="479" y="658"/>
      <point x="476" y="642"/>
      <point x="476" y="634" type="curve" smooth="yes"/>
      <point x="476" y="629"/>
      <point x="480" y="624"/>
      <point x="488" y="621" type="curve" smooth="yes"/>
      <point x="505" y="615"/>
      <point x="530" y="608"/>
      <point x="540" y="603" type="curve"/>
      <point x="540" y="104" type="line"/>
      <point x="490" y="206" type="line"/>
      <point x="170" y="635" type="line" smooth="yes"/>
      <point x="159" y="649"/>
      <point x="152" y="658"/>
      <point x="138" y="658" type="curve" smooth="yes"/>
      <point x="58" y="658" type="line" smooth="yes"/>
      <point x="42" y="658"/>
      <point x="39" y="636"/>
      <point x="39" y="628" type="curve" smooth="yes"/>
      <point x="39" y="623"/>
      <point x="43" y="618"/>
      <point x="51" y="615" type="curve" smooth="yes"/>
      <point x="67" y="608"/>
      <point x="101" y="599"/>
      <point x="103" y="586" type="curve"/>
      <point x="103" y="55" type="line"/>
      <point x="93" y="50"/>
      <point x="68" y="44"/>
      <point x="51" y="37" type="curve" smooth="yes"/>
      <point x="43" y="34"/>
      <point x="39" y="29"/>
    </contour>
  </outline>
</glyph>
<glyph name="P" format="1">
  <advance width="550"/>
  <unicode hex="0050"/>
  <outline>
    <contour>
      <point x="288" y="808" type="move" name="top"/>
    </contour>
    <contour>
      <point x="200" y="614" type="line"/>
      <point x="229" y="658" type="line"/>
      <point x="112" y="658" type="line"/>
      <point x="112" y="10" type="line"/>
      <point x="200" y="10" type="line"/>
    </contour>
    <contour>
      <point x="149" y="600" type="line"/>
      <point x="180" y="609"/>
      <point x="225" y="612"/>
      <point x="260" y="612" type="curve" smooth="yes"/>
      <point x="377" y="612"/>
      <point x="440" y="580"/>
      <point x="440" y="471" type="curve" smooth="yes"/>
      <point x="440" y="336"/>
      <point x="370" y="274"/>
      <point x="257" y="274" type="curve" smooth="yes"/>
      <point x="233" y="274"/>
      <point x="213" y="278"/>
      <point x="194" y="280" type="curve"/>
      <point x="186" y="231" type="line"/>
      <point x="209" y="228"/>
      <point x="234" y="228"/>
      <point x="243" y="228" type="curve" smooth="yes"/>
      <point x="415" y="228"/>
      <point x="530" y="304"/>
      <point x="530" y="480" type="curve" smooth="yes"/>
      <point x="530" y="613"/>
      <point x="431" y="668"/>
      <point x="336" y="668" type="curve" smooth="yes"/>
      <point x="262" y="668"/>
      <point x="234" y="658"/>
      <point x="156" y="658" type="curve"/>
    </contour>
    <contour>
      <point x="48" y="634" type="curve" smooth="yes"/>
      <point x="48" y="629"/>
      <point x="52" y="624"/>
      <point x="60" y="621" type="curve" smooth="yes"/>
      <point x="77" y="614"/>
      <point x="102" y="608"/>
      <point x="112" y="603" type="curve"/>
      <point x="122" y="635" type="line"/>
      <point x="112" y="658" type="line"/>
      <point x="67" y="658" type="line" smooth="yes"/>
      <point x="51" y="658"/>
      <point x="48" y="642"/>
    </contour>
    <contour>
      <point x="48" y="24" type="curve" smooth="yes"/>
      <point x="48" y="16"/>
      <point x="51" y="0"/>
      <point x="67" y="0" type="curve" smooth="yes"/>
      <point x="249" y="0" type="line" smooth="yes"/>
      <point x="273" y="0"/>
      <point x="283" y="16"/>
      <point x="283" y="22" type="curve" smooth="yes"/>
      <point x="283" y="35"/>
      <point x="276" y="38"/>
      <point x="264" y="41" type="curve" smooth="yes"/>
      <point x="234" y="49"/>
      <point x="200" y="46"/>
      <point x="200" y="74" type="curve"/>
      <point x="112" y="55" type="line"/>
      <point x="102" y="50"/>
      <point x="77" y="44"/>
      <point x="60" y="37" type="curve" smooth="yes"/>
      <point x="52" y="34"/>
      <point x="48" y="29"/>
    </contour>
  </outline>
</glyph>
<glyph name="Q" format="1">
  <advance width="661"/>
  <unicode hex="0051"/>
  <outline>
    <contour>
      <point x="376" y="808" type="move" name="top"/>
    </contour>
    <contour>
      <point x="356" y="1" type="line"/>
      <point x="422" y="-85"/>
      <point x="503" y="-184"/>
      <point x="606" y="-184" type="curve" smooth="yes"/>
      <point x="631" y="-184"/>
      <point x="685" y="-131"/>
      <point x="685" y="-120" type="curve" smooth="yes"/>
      <point x="685" y="-108"/>
      <point x="680" y="-103"/>
      <point x="659" y="-103" type="curve" smooth="yes"/>
      <point x="576" y="-103"/>
      <point x="487" y="-53"/>
      <point x="391" y="18" type="curve"/>
    </contour>
    <component base="O"/>
  </outline>
</glyph>
<glyph name="R" format="1">
  <advance width="609"/>
  <unicode hex="0052"/>
  <outline>
    <contour>
      <point x="324" y="808" type="move" name="top"/>
    </contour>
    <contour>
      <point x="48" y="24" type="curve" smooth="yes"/>
      <point x="48" y="16"/>
      <point x="51" y="0"/>
      <point x="67" y="0" type="curve" smooth="yes"/>
      <point x="251" y="0" type="line" smooth="yes"/>
      <point x="275" y="0"/>
      <point x="285" y="16"/>
      <point x="285" y="22" type="curve" smooth="yes"/>
      <point x="285" y="35"/>
      <point x="278" y="38"/>
      <point x="266" y="41" type="curve" smooth="yes"/>
      <point x="236" y="49"/>
      <point x="202" y="46"/>
      <point x="202" y="74" type="curve" smooth="yes"/>
      <point x="202" y="281" type="line"/>
      <point x="316" y="281" type="line" smooth="yes"/>
      <point x="353" y="281"/>
      <point x="390" y="238"/>
      <point x="428" y="109" type="curve"/>
      <point x="460" y="16"/>
      <point x="469" y="0"/>
      <point x="494" y="0" type="curve" smooth="yes"/>
      <point x="576" y="0" type="line" smooth="yes"/>
      <point x="613" y="0"/>
      <point x="616" y="15"/>
      <point x="616" y="21" type="curve" smooth="yes"/>
      <point x="616" y="39"/>
      <point x="594" y="41"/>
      <point x="574" y="45" type="curve" smooth="yes"/>
      <point x="564" y="47"/>
      <point x="544" y="73"/>
      <point x="535" y="94" type="curve"/>
      <point x="498" y="191"/>
      <point x="468" y="289"/>
      <point x="392" y="300" type="curve"/>
      <point x="404" y="304"/>
      <point x="417" y="310"/>
      <point x="431" y="318" type="curve" smooth="yes"/>
      <point x="493" y="357"/>
      <point x="521" y="426"/>
      <point x="521" y="493" type="curve" smooth="yes"/>
      <point x="521" y="607"/>
      <point x="434" y="667"/>
      <point x="328" y="667" type="curve" smooth="yes"/>
      <point x="255" y="667"/>
      <point x="218" y="658"/>
      <point x="160" y="658" type="curve" smooth="yes"/>
      <point x="67" y="658" type="line" smooth="yes"/>
      <point x="51" y="658"/>
      <point x="48" y="642"/>
      <point x="48" y="634" type="curve" smooth="yes"/>
      <point x="48" y="629"/>
      <point x="52" y="624"/>
      <point x="60" y="621" type="curve" smooth="yes"/>
      <point x="77" y="614"/>
      <point x="102" y="608"/>
      <point x="112" y="603" type="curve"/>
      <point x="112" y="55" type="line"/>
      <point x="102" y="50"/>
      <point x="77" y="44"/>
      <point x="60" y="37" type="curve" smooth="yes"/>
      <point x="52" y="34"/>
      <point x="48" y="29"/>
    </contour>
    <contour>
      <point x="202" y="331" type="curve"/>
      <point x="202" y="610" type="line"/>
      <point x="218" y="611"/>
      <point x="248" y="613"/>
      <point x="269" y="613" type="curve" smooth="yes"/>
      <point x="371" y="613"/>
      <point x="430" y="584"/>
      <point x="430" y="471" type="curve" smooth="yes"/>
      <point x="430" y="375"/>
      <point x="384" y="331"/>
      <point x="279" y="330" type="curve" smooth="yes"/>
      <point x="250" y="330"/>
      <point x="224" y="330"/>
    </contour>
  </outline>
</glyph>
<glyph name="S" format="1">
  <advance width="501"/>
  <unicode hex="0053"/>
  <outline>
    <contour>
      <point x="266" y="808" type="move" name="top"/>
    </contour>
    <contour>
      <point x="58" y="33" type="curve" smooth="yes"/>
      <point x="87" y="8"/>
      <point x="181" y="-16"/>
      <point x="237" y="-16" type="curve" smooth="yes"/>
      <point x="357" y="-16"/>
      <point x="472" y="69"/>
      <point x="472" y="179" type="curve" smooth="yes"/>
      <point x="472" y="313"/>
      <point x="370" y="348"/>
      <point x="279" y="382" type="curve" smooth="yes"/>
      <point x="202" y="411"/>
      <point x="131" y="438"/>
      <point x="131" y="520" type="curve" smooth="yes"/>
      <point x="131" y="581"/>
      <point x="186" y="614"/>
      <point x="244" y="614" type="curve" smooth="yes"/>
      <point x="318" y="614"/>
      <point x="365" y="590"/>
      <point x="387" y="553" type="curve"/>
      <point x="387" y="553"/>
      <point x="401" y="483"/>
      <point x="417" y="483" type="curve" smooth="yes"/>
      <point x="426" y="483"/>
      <point x="436" y="488"/>
      <point x="436" y="499" type="curve" smooth="yes"/>
      <point x="437" y="526"/>
      <point x="438" y="566"/>
      <point x="440" y="590" type="curve" smooth="yes"/>
      <point x="444" y="631"/>
      <point x="359" y="672"/>
      <point x="290" y="672" type="curve" smooth="yes"/>
      <point x="169" y="672"/>
      <point x="60" y="600"/>
      <point x="60" y="490" type="curve" smooth="yes"/>
      <point x="60" y="357"/>
      <point x="161" y="322"/>
      <point x="252" y="290" type="curve" smooth="yes"/>
      <point x="326" y="264"/>
      <point x="397" y="238"/>
      <point x="397" y="142" type="curve" smooth="yes"/>
      <point x="397" y="91"/>
      <point x="338" y="45"/>
      <point x="280" y="45" type="curve" smooth="yes"/>
      <point x="177" y="45"/>
      <point x="120" y="76"/>
      <point x="109" y="112" type="curve"/>
      <point x="109" y="112"/>
      <point x="94" y="188"/>
      <point x="78" y="188" type="curve" smooth="yes"/>
      <point x="69" y="188"/>
      <point x="59" y="183"/>
      <point x="59" y="171" type="curve" smooth="yes"/>
      <point x="58" y="144"/>
      <point x="57" y="83"/>
      <point x="55" y="59" type="curve" smooth="yes"/>
      <point x="53" y="44"/>
      <point x="55" y="35"/>
    </contour>
  </outline>
</glyph>
<glyph name="T" format="1">
  <advance width="621"/>
  <unicode hex="0054"/>
  <outline>
    <contour>
      <point x="316" y="808" type="move" name="top"/>
    </contour>
    <contour>
      <point x="170" y="29" type="curve" smooth="yes"/>
      <point x="170" y="21"/>
      <point x="173" y="0"/>
      <point x="189" y="0" type="curve" smooth="yes"/>
      <point x="421" y="0" type="line" smooth="yes"/>
      <point x="445" y="0"/>
      <point x="455" y="21"/>
      <point x="455" y="27" type="curve" smooth="yes"/>
      <point x="455" y="40"/>
      <point x="448" y="43"/>
      <point x="436" y="46" type="curve" smooth="yes"/>
      <point x="406" y="54"/>
      <point x="362" y="51"/>
      <point x="360" y="77" type="curve"/>
      <point x="360" y="610" type="line"/>
      <point x="399" y="610" type="line" smooth="yes"/>
      <point x="444" y="610"/>
      <point x="479" y="609"/>
      <point x="497" y="597" type="curve"/>
      <point x="517" y="572"/>
      <point x="530" y="428"/>
      <point x="537" y="424" type="curve" smooth="yes"/>
      <point x="553" y="414"/>
      <point x="575" y="429"/>
      <point x="578" y="441" type="curve" smooth="yes"/>
      <point x="581" y="454"/>
      <point x="583" y="537"/>
      <point x="583" y="570" type="curve" smooth="yes"/>
      <point x="583" y="614"/>
      <point x="580" y="658"/>
      <point x="572" y="658" type="curve"/>
      <point x="40" y="658" type="line" smooth="yes"/>
      <point x="27" y="658"/>
      <point x="46" y="472"/>
      <point x="54" y="441" type="curve" smooth="yes"/>
      <point x="57" y="429"/>
      <point x="96" y="409"/>
      <point x="104" y="428" type="curve"/>
      <point x="114" y="458"/>
      <point x="91" y="573"/>
      <point x="123" y="597" type="curve" smooth="yes"/>
      <point x="140" y="609"/>
      <point x="184" y="610"/>
      <point x="228" y="610" type="curve" smooth="yes"/>
      <point x="270" y="610" type="line"/>
      <point x="270" y="60" type="line"/>
      <point x="260" y="55"/>
      <point x="199" y="49"/>
      <point x="182" y="42" type="curve" smooth="yes"/>
      <point x="174" y="39"/>
      <point x="170" y="34"/>
    </contour>
  </outline>
</glyph>
<glyph name="U" format="1">
  <advance width="628"/>
  <unicode hex="0055"/>
  <outline>
    <contour>
      <point x="311" y="808" type="move" name="top"/>
    </contour>
    <contour>
      <point x="485" y="315" type="line" smooth="yes"/>
      <point x="485" y="68"/>
      <point x="435" y="42"/>
      <point x="335" y="42" type="curve" smooth="yes"/>
      <point x="199" y="42"/>
      <point x="169" y="113"/>
      <point x="169" y="305" type="curve" smooth="yes"/>
      <point x="169" y="615" type="line"/>
      <point x="76" y="615" type="line"/>
      <point x="76" y="254" type="line" smooth="yes"/>
      <point x="76" y="73"/>
      <point x="153" y="-16"/>
      <point x="308" y="-16" type="curve" smooth="yes"/>
      <point x="506" y="-16"/>
      <point x="555" y="134"/>
      <point x="555" y="287" type="curve" smooth="yes"/>
      <point x="555" y="617" type="line"/>
      <point x="485" y="615" type="line"/>
    </contour>
    <contour>
      <point x="32" y="634" type="curve" smooth="yes"/>
      <point x="32" y="629"/>
      <point x="37" y="624"/>
      <point x="44" y="621" type="curve" smooth="yes"/>
      <point x="55" y="614"/>
      <point x="70" y="608"/>
      <point x="76" y="603" type="curve"/>
      <point x="169" y="584" type="line"/>
      <point x="169" y="612"/>
      <point x="197" y="609"/>
      <point x="227" y="617" type="curve" smooth="yes"/>
      <point x="239" y="620"/>
      <point x="246" y="623"/>
      <point x="246" y="636" type="curve" smooth="yes"/>
      <point x="246" y="642"/>
      <point x="236" y="658"/>
      <point x="212" y="658" type="curve" smooth="yes"/>
      <point x="51" y="658" type="line" smooth="yes"/>
      <point x="35" y="658"/>
      <point x="32" y="642"/>
    </contour>
    <contour>
      <point x="421" y="634" type="curve" smooth="yes"/>
      <point x="421" y="629"/>
      <point x="425" y="624"/>
      <point x="433" y="621" type="curve" smooth="yes"/>
      <point x="450" y="614"/>
      <point x="475" y="608"/>
      <point x="485" y="603" type="curve"/>
      <point x="555" y="584" type="line"/>
      <point x="555" y="612"/>
      <point x="573" y="609"/>
      <point x="597" y="617" type="curve" smooth="yes"/>
      <point x="609" y="620"/>
      <point x="616" y="623"/>
      <point x="616" y="636" type="curve" smooth="yes"/>
      <point x="616" y="642"/>
      <point x="606" y="658"/>
      <point x="582" y="658" type="curve" smooth="yes"/>
      <point x="440" y="658" type="line" smooth="yes"/>
      <point x="423" y="658"/>
      <point x="421" y="642"/>
    </contour>
  </outline>
</glyph>
<glyph name="V" format="1">
  <advance width="594"/>
  <unicode hex="0056"/>
  <outline>
    <contour>
      <point x="298" y="808" type="move" name="top"/>
    </contour>
    <contour>
      <point x="275" y="-10" type="line"/>
      <point x="316" y="-10" type="line"/>
      <point x="558" y="608" type="line"/>
      <point x="488" y="612" type="line"/>
      <point x="280" y="22" type="line"/>
      <point x="280" y="22"/>
      <point x="333" y="60"/>
      <point x="333" y="60" type="curve"/>
      <point x="122" y="612" type="line"/>
      <point x="28" y="608" type="line"/>
    </contour>
    <contour>
      <point x="-24" y="634" type="curve" smooth="yes"/>
      <point x="-24" y="629"/>
      <point x="-20" y="624"/>
      <point x="-12" y="621" type="curve" smooth="yes"/>
      <point x="5" y="614"/>
      <point x="21" y="608"/>
      <point x="31" y="603" type="curve"/>
      <point x="115" y="584" type="line"/>
      <point x="115" y="612"/>
      <point x="146" y="609"/>
      <point x="176" y="617" type="curve" smooth="yes"/>
      <point x="188" y="620"/>
      <point x="195" y="623"/>
      <point x="195" y="636" type="curve" smooth="yes"/>
      <point x="195" y="642"/>
      <point x="185" y="658"/>
      <point x="161" y="658" type="curve" smooth="yes"/>
      <point x="-5" y="658" type="line" smooth="yes"/>
      <point x="-21" y="658"/>
      <point x="-24" y="642"/>
    </contour>
    <contour>
      <point x="412" y="634" type="curve" smooth="yes"/>
      <point x="412" y="629"/>
      <point x="416" y="624"/>
      <point x="424" y="621" type="curve" smooth="yes"/>
      <point x="441" y="614"/>
      <point x="476" y="608"/>
      <point x="486" y="603" type="curve"/>
      <point x="548" y="584" type="line"/>
      <point x="560" y="612"/>
      <point x="568" y="609"/>
      <point x="598" y="617" type="curve" smooth="yes"/>
      <point x="610" y="620"/>
      <point x="617" y="623"/>
      <point x="617" y="636" type="curve" smooth="yes"/>
      <point x="617" y="642"/>
      <point x="611" y="658"/>
      <point x="587" y="658" type="curve" smooth="yes"/>
      <point x="431" y="658" type="line" smooth="yes"/>
      <point x="415" y="658"/>
      <point x="412" y="642"/>
    </contour>
  </outline>
</glyph>
<glyph name="W" format="1">
  <advance width="805"/>
  <unicode hex="0057"/>
  <outline>
    <contour>
      <point x="421" y="808" type="move" name="top"/>
    </contour>
    <contour>
      <point x="221" y="-10" type="line"/>
      <point x="262" y="-10" type="line"/>
      <point x="416" y="396" type="line"/>
      <point x="548" y="-10" type="line"/>
      <point x="590" y="-10" type="line"/>
      <point x="797" y="584" type="line"/>
      <point x="809" y="612"/>
      <point x="817" y="609"/>
      <point x="847" y="617" type="curve" smooth="yes"/>
      <point x="859" y="620"/>
      <point x="866" y="623"/>
      <point x="866" y="636" type="curve" smooth="yes"/>
      <point x="866" y="642"/>
      <point x="860" y="658"/>
      <point x="836" y="658" type="curve" smooth="yes"/>
      <point x="680" y="658" type="line" smooth="yes"/>
      <point x="664" y="658"/>
      <point x="661" y="642"/>
      <point x="661" y="634" type="curve" smooth="yes"/>
      <point x="661" y="629"/>
      <point x="665" y="624"/>
      <point x="673" y="621" type="curve" smooth="yes"/>
      <point x="690" y="614"/>
      <point x="722" y="608"/>
      <point x="732" y="603" type="curve"/>
      <point x="585" y="128" type="line"/>
      <point x="442" y="593" type="line"/>
      <point x="450" y="611"/>
      <point x="479" y="610"/>
      <point x="524" y="617" type="curve"/>
      <point x="536" y="620"/>
      <point x="543" y="623"/>
      <point x="543" y="636" type="curve" smooth="yes"/>
      <point x="543" y="642"/>
      <point x="533" y="658"/>
      <point x="509" y="658" type="curve" smooth="yes"/>
      <point x="308" y="658" type="line" smooth="yes"/>
      <point x="292" y="658"/>
      <point x="289" y="642"/>
      <point x="289" y="634" type="curve" smooth="yes"/>
      <point x="289" y="629"/>
      <point x="293" y="624"/>
      <point x="301" y="621" type="curve" smooth="yes"/>
      <point x="318" y="614"/>
      <point x="339" y="608"/>
      <point x="349" y="603" type="curve"/>
      <point x="385" y="492" type="line"/>
      <point x="257" y="116" type="line"/>
      <point x="100" y="591" type="line"/>
      <point x="105" y="609"/>
      <point x="127" y="610"/>
      <point x="153" y="617" type="curve" smooth="yes"/>
      <point x="165" y="620"/>
      <point x="172" y="623"/>
      <point x="172" y="636" type="curve" smooth="yes"/>
      <point x="172" y="642"/>
      <point x="162" y="658"/>
      <point x="138" y="658" type="curve" smooth="yes"/>
      <point x="-31" y="658" type="line" smooth="yes"/>
      <point x="-47" y="658"/>
      <point x="-50" y="642"/>
      <point x="-50" y="634" type="curve" smooth="yes"/>
      <point x="-50" y="629"/>
      <point x="-46" y="624"/>
      <point x="-38" y="621" type="curve" smooth="yes"/>
      <point x="-21" y="614"/>
      <point x="-6" y="609"/>
      <point x="4" y="604" type="curve"/>
    </contour>
  </outline>
</glyph>
<glyph name="X" format="1">
  <advance width="609"/>
  <unicode hex="0058"/>
  <outline>
    <contour>
      <point x="312" y="808" type="move" name="top"/>
    </contour>
    <contour>
      <point x="13" y="24" type="curve" smooth="yes"/>
      <point x="13" y="16"/>
      <point x="16" y="0"/>
      <point x="32" y="0" type="curve" smooth="yes"/>
      <point x="197" y="0" type="line" smooth="yes"/>
      <point x="221" y="0"/>
      <point x="231" y="16"/>
      <point x="231" y="22" type="curve" smooth="yes"/>
      <point x="231" y="35"/>
      <point x="224" y="38"/>
      <point x="212" y="41" type="curve" smooth="yes"/>
      <point x="183" y="48"/>
      <point x="162" y="46"/>
      <point x="161" y="71" type="curve"/>
      <point x="294" y="288" type="line"/>
      <point x="442" y="54" type="line"/>
      <point x="431" y="49"/>
      <point x="404" y="44"/>
      <point x="388" y="37" type="curve" smooth="yes"/>
      <point x="380" y="34"/>
      <point x="376" y="29"/>
      <point x="376" y="24" type="curve" smooth="yes"/>
      <point x="376" y="16"/>
      <point x="379" y="0"/>
      <point x="395" y="0" type="curve" smooth="yes"/>
      <point x="577" y="0" type="line" smooth="yes"/>
      <point x="601" y="0"/>
      <point x="611" y="16"/>
      <point x="611" y="22" type="curve" smooth="yes"/>
      <point x="611" y="35"/>
      <point x="604" y="38"/>
      <point x="592" y="41" type="curve" smooth="yes"/>
      <point x="568" y="47"/>
      <point x="556" y="48"/>
      <point x="541" y="63" type="curve"/>
      <point x="348" y="340" type="line"/>
      <point x="525" y="586" type="line" smooth="yes"/>
      <point x="546" y="614"/>
      <point x="551" y="609"/>
      <point x="581" y="617" type="curve" smooth="yes"/>
      <point x="593" y="620"/>
      <point x="600" y="623"/>
      <point x="600" y="636" type="curve" smooth="yes"/>
      <point x="600" y="642"/>
      <point x="594" y="658"/>
      <point x="570" y="658" type="curve" smooth="yes"/>
      <point x="414" y="658" type="line" smooth="yes"/>
      <point x="398" y="658"/>
      <point x="395" y="642"/>
      <point x="395" y="634" type="curve" smooth="yes"/>
      <point x="395" y="629"/>
      <point x="399" y="624"/>
      <point x="407" y="621" type="curve" smooth="yes"/>
      <point x="424" y="614"/>
      <point x="450" y="611"/>
      <point x="460" y="606" type="curve"/>
      <point x="316" y="382" type="line"/>
      <point x="176" y="607" type="line"/>
      <point x="189" y="611"/>
      <point x="206" y="612"/>
      <point x="223" y="617" type="curve" smooth="yes"/>
      <point x="235" y="620"/>
      <point x="242" y="623"/>
      <point x="242" y="636" type="curve" smooth="yes"/>
      <point x="242" y="642"/>
      <point x="232" y="658"/>
      <point x="208" y="658" type="curve" smooth="yes"/>
      <point x="32" y="658" type="line" smooth="yes"/>
      <point x="16" y="658"/>
      <point x="13" y="642"/>
      <point x="13" y="634" type="curve" smooth="yes"/>
      <point x="13" y="629"/>
      <point x="17" y="624"/>
      <point x="25" y="621" type="curve" smooth="yes"/>
      <point x="42" y="614"/>
      <point x="64" y="608"/>
      <point x="74" y="603" type="curve"/>
      <point x="263" y="328" type="line"/>
      <point x="75" y="55" type="line"/>
      <point x="65" y="50"/>
      <point x="42" y="44"/>
      <point x="25" y="37" type="curve" smooth="yes"/>
      <point x="17" y="34"/>
      <point x="13" y="29"/>
    </contour>
  </outline>
</glyph>
<glyph name="Y" format="1">
  <advance width="546"/>
  <unicode hex="0059"/>
  <outline>
    <contour>
      <point x="281" y="808" type="move" name="top"/>
    </contour>
    <contour>
      <point x="214" y="328" type="line"/>
      <point x="234" y="285" type="line"/>
      <point x="234" y="50" type="line"/>
      <point x="324" y="50" type="line"/>
      <point x="324" y="321" type="line"/>
      <point x="287" y="312" type="line"/>
    </contour>
    <contour>
      <point x="250" y="247" type="line"/>
      <point x="310" y="247" type="line"/>
      <point x="512" y="608" type="line"/>
      <point x="448" y="612" type="line"/>
      <point x="256" y="258" type="line"/>
      <point x="256" y="258"/>
      <point x="299" y="306"/>
      <point x="299" y="306" type="curve"/>
      <point x="130" y="612" type="line"/>
      <point x="36" y="608" type="line"/>
    </contour>
    <contour>
      <point x="-17" y="634" type="curve" smooth="yes"/>
      <point x="-17" y="629"/>
      <point x="-13" y="624"/>
      <point x="-5" y="621" type="curve" smooth="yes"/>
      <point x="12" y="614"/>
      <point x="29" y="608"/>
      <point x="39" y="603" type="curve"/>
      <point x="123" y="584" type="line"/>
      <point x="123" y="612"/>
      <point x="153" y="609"/>
      <point x="183" y="617" type="curve" smooth="yes"/>
      <point x="195" y="620"/>
      <point x="202" y="623"/>
      <point x="202" y="636" type="curve" smooth="yes"/>
      <point x="202" y="642"/>
      <point x="192" y="658"/>
      <point x="168" y="658" type="curve" smooth="yes"/>
      <point x="2" y="658" type="line" smooth="yes"/>
      <point x="-14" y="658"/>
      <point x="-17" y="642"/>
    </contour>
    <contour>
      <point x="366" y="634" type="curve" smooth="yes"/>
      <point x="366" y="629"/>
      <point x="370" y="624"/>
      <point x="378" y="621" type="curve" smooth="yes"/>
      <point x="395" y="614"/>
      <point x="433" y="608"/>
      <point x="443" y="603" type="curve"/>
      <point x="498" y="583" type="line"/>
      <point x="516" y="610"/>
      <point x="522" y="609"/>
      <point x="552" y="617" type="curve" smooth="yes"/>
      <point x="564" y="620"/>
      <point x="571" y="623"/>
      <point x="571" y="636" type="curve" smooth="yes"/>
      <point x="571" y="642"/>
      <point x="565" y="658"/>
      <point x="541" y="658" type="curve" smooth="yes"/>
      <point x="385" y="658" type="line" smooth="yes"/>
      <point x="369" y="658"/>
      <point x="366" y="642"/>
    </contour>
    <contour>
      <point x="140" y="29" type="curve" smooth="yes"/>
      <point x="140" y="21"/>
      <point x="143" y="0"/>
      <point x="159" y="0" type="curve" smooth="yes"/>
      <point x="387" y="0" type="line" smooth="yes"/>
      <point x="411" y="0"/>
      <point x="421" y="21"/>
      <point x="421" y="27" type="curve" smooth="yes"/>
      <point x="421" y="40"/>
      <point x="414" y="43"/>
      <point x="402" y="46" type="curve" smooth="yes"/>
      <point x="372" y="54"/>
      <point x="324" y="51"/>
      <point x="324" y="79" type="curve"/>
      <point x="234" y="60" type="line"/>
      <point x="224" y="55"/>
      <point x="169" y="49"/>
      <point x="152" y="42" type="curve" smooth="yes"/>
      <point x="144" y="39"/>
      <point x="140" y="34"/>
    </contour>
  </outline>
</glyph>
<glyph name="Z" format="1">
  <advance width="564"/>
  <unicode hex="005A"/>
  <outline>
    <contour>
      <point x="309" y="808" type="move" name="top"/>
    </contour>
    <contour>
      <point x="35" y="46" type="curve" smooth="yes"/>
      <point x="35" y="38"/>
      <point x="50" y="0"/>
      <point x="72" y="0" type="curve" smooth="yes"/>
      <point x="509" y="0" type="line"/>
      <point x="519" y="3"/>
      <point x="536" y="146"/>
      <point x="535" y="173" type="curve" smooth="yes"/>
      <point x="535" y="185"/>
      <point x="514" y="190"/>
      <point x="506" y="190" type="curve" smooth="yes"/>
      <point x="490" y="190"/>
      <point x="467" y="104"/>
      <point x="436" y="70" type="curve"/>
      <point x="409" y="44"/>
      <point x="240" y="46"/>
      <point x="122" y="46" type="curve"/>
      <point x="189" y="130" type="line"/>
      <point x="504" y="589" type="line"/>
      <point x="522" y="614"/>
      <point x="492" y="658"/>
      <point x="481" y="658" type="curve" smooth="yes"/>
      <point x="101" y="658" type="line"/>
      <point x="94" y="655"/>
      <point x="94" y="645"/>
      <point x="94" y="633" type="curve" smooth="yes"/>
      <point x="95" y="586"/>
      <point x="82" y="531"/>
      <point x="79" y="503" type="curve"/>
      <point x="74" y="491"/>
      <point x="103" y="478"/>
      <point x="119" y="486" type="curve" smooth="yes"/>
      <point x="133" y="493"/>
      <point x="155" y="577"/>
      <point x="155" y="577" type="curve"/>
      <point x="169" y="600"/>
      <point x="245" y="614"/>
      <point x="420" y="614" type="curve"/>
      <point x="378" y="564" type="line"/>
      <point x="64" y="110" type="line"/>
      <point x="41" y="79"/>
      <point x="35" y="64"/>
    </contour>
  </outline>
</glyph>
<glyph name="bracketleft" format="1">
  <advance width="416"/>
  <unicode hex="005B"/>
  <outline>
    <contour>
      <point x="94" y="-161" type="line"/>
      <point x="272" y="-161" type="line" smooth="yes"/>
      <point x="290" y="-161"/>
      <point x="292" y="-156"/>
      <point x="292" y="-148" type="curve" smooth="yes"/>
      <point x="292" y="-135"/>
      <point x="279" y="-126"/>
      <point x="184" y="-117" type="curve"/>
      <point x="184" y="615" type="line"/>
      <point x="259" y="615"/>
      <point x="280" y="620"/>
      <point x="280" y="641" type="curve" smooth="yes"/>
      <point x="280" y="652"/>
      <point x="285" y="658"/>
      <point x="217" y="658" type="curve" smooth="yes"/>
      <point x="94" y="658" type="line"/>
    </contour>
  </outline>
</glyph>
<glyph name="backslash" format="1">
  <advance width="429"/>
  <unicode hex="005C"/>
  <outline>
    <contour>
      <point x="324" y="-119" type="line"/>
      <point x="334" y="-135"/>
      <point x="367" y="-150"/>
      <point x="387" y="-150" type="curve" smooth="yes"/>
      <point x="402" y="-150"/>
      <point x="403" y="-143"/>
      <point x="400" y="-120" type="curve"/>
      <point x="98" y="694" type="line"/>
      <point x="89" y="708"/>
      <point x="66" y="719"/>
      <point x="46" y="719" type="curve" smooth="yes"/>
      <point x="31" y="719"/>
      <point x="21" y="710"/>
      <point x="32" y="685" type="curve"/>
    </contour>
  </outline>
</glyph>
<glyph name="grave" format="1">
  <advance width="239"/>
  <unicode hex="0060"/>
  <outline>
    <contour>
      <point x="119" y="808" type="move" name="_top"/>
    </contour>
    <contour>
      <point x="154" y="552" type="curve"/>
      <point x="177" y="541"/>
      <point x="204" y="568"/>
      <point x="201" y="573" type="curve" smooth="yes"/>
      <point x="88" y="768" type="line" smooth="yes"/>
      <point x="73" y="794"/>
      <point x="13" y="722"/>
      <point x="18" y="710" type="curve" smooth="yes"/>
      <point x="39" y="662"/>
      <point x="127" y="573"/>
    </contour>
  </outline>
</glyph>
<glyph name="b" format="1">
  <advance width="498"/>
  <unicode hex="0062"/>
  <outline>
    <contour>
      <point x="334" y="808" type="move" name="top"/>
    </contour>
    <contour>
      <point x="59" y="42" type="line"/>
      <point x="144" y="63" type="line"/>
      <point x="144" y="397" type="line"/>
      <point x="136" y="406" type="line"/>
      <point x="144" y="561" type="line"/>
      <point x="144" y="714" type="line"/>
      <point x="141" y="723"/>
      <point x="132" y="723"/>
      <point x="121" y="723" type="curve" smooth="yes"/>
      <point x="91" y="723"/>
      <point x="41" y="716"/>
      <point x="20" y="701" type="curve" smooth="yes"/>
      <point x="13" y="696"/>
      <point x="13" y="686"/>
      <point x="13" y="680" type="curve" smooth="yes"/>
      <point x="13" y="672"/>
      <point x="31" y="663"/>
      <point x="60" y="659" type="curve"/>
    </contour>
    <contour>
      <point x="130" y="362" type="line"/>
      <point x="160" y="405"/>
      <point x="197" y="421"/>
      <point x="234" y="421" type="curve" smooth="yes"/>
      <point x="326" y="421"/>
      <point x="374" y="341"/>
      <point x="374" y="222" type="curve" smooth="yes"/>
      <point x="374" y="124"/>
      <point x="341" y="41"/>
      <point x="251" y="41" type="curve" smooth="yes"/>
      <point x="224" y="41"/>
      <point x="160" y="50"/>
      <point x="138" y="91" type="curve"/>
      <point x="59" y="42" type="line"/>
      <point x="85" y="14"/>
      <point x="144" y="-16"/>
      <point x="215" y="-16" type="curve" smooth="yes"/>
      <point x="305" y="-16"/>
      <point x="382" y="32"/>
      <point x="423" y="93" type="curve"/>
      <point x="457" y="141"/>
      <point x="471" y="213"/>
      <point x="471" y="266" type="curve" smooth="yes"/>
      <point x="471" y="400"/>
      <point x="380" y="477"/>
      <point x="280" y="477" type="curve" smooth="yes"/>
      <point x="187" y="477"/>
      <point x="122" y="415"/>
      <point x="73" y="341" type="curve"/>
      <point x="73" y="338" type="line"/>
      <point x="71" y="334"/>
      <point x="71" y="333"/>
      <point x="71" y="331" type="curve" smooth="yes"/>
      <point x="71" y="327"/>
      <point x="78" y="322"/>
      <point x="89" y="322" type="curve" smooth="yes"/>
      <point x="106" y="322"/>
      <point x="121" y="353"/>
      <point x="129" y="362" type="curve"/>
    </contour>
  </outline>
</glyph>
<glyph name="c" format="1">
  <advance width="419"/>
  <unicode hex="0063"/>
  <outline>
    <contour>
      <point x="253" y="808" type="move" name="top"/>
    </contour>
    <contour>
      <point x="234" y="426" type="curve" smooth="yes"/>
      <point x="275" y="426"/>
      <point x="290" y="412"/>
      <point x="297" y="351" type="curve" smooth="yes"/>
      <point x="299" y="328"/>
      <point x="309" y="321"/>
      <point x="320" y="322" type="curve" smooth="yes"/>
      <point x="350" y="327"/>
      <point x="390" y="344"/>
      <point x="389" y="387" type="curve" smooth="yes"/>
      <point x="387" y="458"/>
      <point x="316" y="477"/>
      <point x="265" y="477" type="curve" smooth="yes"/>
      <point x="122" y="477"/>
      <point x="32" y="366"/>
      <point x="32" y="202" type="curve" smooth="yes"/>
      <point x="32" y="88"/>
      <point x="99" y="-16"/>
      <point x="241" y="-16" type="curve" smooth="yes"/>
      <point x="297" y="-16"/>
      <point x="338" y="7"/>
      <point x="377" y="37" type="curve" smooth="yes"/>
      <point x="387" y="45"/>
      <point x="396" y="60"/>
      <point x="396" y="68" type="curve" smooth="yes"/>
      <point x="396" y="74"/>
      <point x="390" y="82"/>
      <point x="373" y="82" type="curve" smooth="yes"/>
      <point x="352" y="82"/>
      <point x="345" y="77"/>
      <point x="335" y="71" type="curve" smooth="yes"/>
      <point x="318" y="59"/>
      <point x="298" y="42"/>
      <point x="266" y="42" type="curve" smooth="yes"/>
      <point x="164" y="42"/>
      <point x="124" y="144"/>
      <point x="124" y="240" type="curve" smooth="yes"/>
      <point x="124" y="343"/>
      <point x="154" y="426"/>
    </contour>
  </outline>
</glyph>
<glyph name="d" format="1">
  <advance width="522"/>
  <unicode hex="0064"/>
  <outline>
    <contour>
      <point x="137" y="808" type="move" name="top"/>
    </contour>
    <contour>
      <point x="29" y="195" type="curve" smooth="yes"/>
      <point x="29" y="62"/>
      <point x="121" y="-16"/>
      <point x="220" y="-16" type="curve" smooth="yes"/>
      <point x="282" y="-16"/>
      <point x="324" y="7"/>
      <point x="361" y="45" type="curve"/>
      <point x="361" y="19" type="line" smooth="yes"/>
      <point x="361" y="-6"/>
      <point x="375" y="-16"/>
      <point x="401" y="-16" type="curve" smooth="yes"/>
      <point x="461" y="-16"/>
      <point x="499" y="25"/>
      <point x="499" y="35" type="curve" smooth="yes"/>
      <point x="499" y="44"/>
      <point x="496" y="50"/>
      <point x="484" y="50" type="curve" smooth="yes"/>
      <point x="479" y="50"/>
      <point x="469" y="49"/>
      <point x="464" y="48" type="curve" smooth="yes"/>
      <point x="457" y="46"/>
      <point x="446" y="43"/>
      <point x="440" y="43" type="curve"/>
      <point x="440" y="714" type="line"/>
      <point x="437" y="723"/>
      <point x="426" y="723"/>
      <point x="417" y="723" type="curve" smooth="yes"/>
      <point x="371" y="723"/>
      <point x="302" y="710"/>
      <point x="283" y="694" type="curve" smooth="yes"/>
      <point x="276" y="689"/>
      <point x="276" y="679"/>
      <point x="276" y="673" type="curve" smooth="yes"/>
      <point x="276" y="665"/>
      <point x="327" y="656"/>
      <point x="356" y="652" type="curve"/>
      <point x="356" y="558" type="line"/>
      <point x="361" y="466" type="line"/>
      <point x="338" y="473"/>
      <point x="311" y="477"/>
      <point x="283" y="477" type="curve" smooth="yes"/>
      <point x="193" y="477"/>
      <point x="119" y="428"/>
      <point x="77" y="368" type="curve"/>
      <point x="41" y="320"/>
      <point x="29" y="247"/>
    </contour>
    <contour>
      <point x="264" y="39" type="curve" smooth="yes"/>
      <point x="172" y="39"/>
      <point x="126" y="120"/>
      <point x="126" y="237" type="curve" smooth="yes"/>
      <point x="126" y="353"/>
      <point x="159" y="419"/>
      <point x="248" y="419" type="curve" smooth="yes"/>
      <point x="275" y="419"/>
      <point x="332" y="415"/>
      <point x="356" y="381" type="curve"/>
      <point x="357" y="77" type="line"/>
      <point x="329" y="52"/>
      <point x="293" y="39"/>
    </contour>
  </outline>
</glyph>
<glyph name="e" format="1">
  <advance width="481"/>
  <unicode hex="0065"/>
  <outline>
    <contour>
      <point x="261" y="808" type="move" name="top"/>
    </contour>
    <contour>
      <point x="116" y="221" type="curve"/>
      <point x="400" y="221" type="line" smooth="yes"/>
      <point x="418" y="221"/>
      <point x="440" y="220"/>
      <point x="440" y="240" type="curve" smooth="yes"/>
      <point x="437" y="343"/>
      <point x="417" y="477"/>
      <point x="265" y="477" type="curve" smooth="yes"/>
      <point x="125" y="477"/>
      <point x="37" y="356"/>
      <point x="37" y="202" type="curve" smooth="yes"/>
      <point x="37" y="88"/>
      <point x="99" y="-16"/>
      <point x="241" y="-16" type="curve" smooth="yes"/>
      <point x="329" y="-16"/>
      <point x="378" y="12"/>
      <point x="414" y="42" type="curve" smooth="yes"/>
      <point x="424" y="50"/>
      <point x="426" y="58"/>
      <point x="426" y="66" type="curve" smooth="yes"/>
      <point x="426" y="72"/>
      <point x="422" y="77"/>
      <point x="412" y="77" type="curve" smooth="yes"/>
      <point x="400" y="77"/>
      <point x="388" y="70"/>
      <point x="375" y="64" type="curve" smooth="yes"/>
      <point x="354" y="54"/>
      <point x="325" y="42"/>
      <point x="266" y="42" type="curve" smooth="yes"/>
      <point x="168" y="42"/>
      <point x="129" y="144"/>
      <point x="129" y="240" type="curve" smooth="yes"/>
      <point x="129" y="343"/>
      <point x="161" y="423"/>
      <point x="234" y="423" type="curve" smooth="yes"/>
      <point x="339" y="423"/>
      <point x="342" y="335"/>
      <point x="342" y="235" type="curve"/>
      <point x="408" y="276" type="line"/>
      <point x="97" y="265" type="line"/>
      <point x="79" y="258"/>
      <point x="83" y="218"/>
    </contour>
  </outline>
</glyph>
<glyph name="f" format="1">
  <advance width="323"/>
  <unicode hex="0066"/>
  <outline>
    <contour>
      <point x="64" y="921" type="move" name="top"/>
    </contour>
    <contour>
      <point x="35" y="20" type="curve" smooth="yes"/>
      <point x="35" y="12"/>
      <point x="38" y="0"/>
      <point x="54" y="0" type="curve" smooth="yes"/>
      <point x="245" y="0" type="line" smooth="yes"/>
      <point x="269" y="0"/>
      <point x="279" y="6"/>
      <point x="279" y="22" type="curve" smooth="yes"/>
      <point x="279" y="35"/>
      <point x="272" y="38"/>
      <point x="260" y="41" type="curve" smooth="yes"/>
      <point x="230" y="49"/>
      <point x="185" y="46"/>
      <point x="183" y="72" type="curve"/>
      <point x="183" y="401" type="line"/>
      <point x="261" y="401" type="line"/>
      <point x="280" y="403"/>
      <point x="297" y="430"/>
      <point x="297" y="446" type="curve" smooth="yes"/>
      <point x="297" y="451"/>
      <point x="293" y="457"/>
      <point x="280" y="458" type="curve"/>
      <point x="183" y="458" type="line"/>
      <point x="183" y="526" type="line" smooth="yes"/>
      <point x="183" y="575"/>
      <point x="188" y="679"/>
      <point x="246" y="679" type="curve" smooth="yes"/>
      <point x="274" y="679"/>
      <point x="282" y="661"/>
      <point x="282" y="637" type="curve" smooth="yes"/>
      <point x="282" y="621"/>
      <point x="290" y="614"/>
      <point x="300" y="614" type="curve" smooth="yes"/>
      <point x="327" y="614"/>
      <point x="370" y="643"/>
      <point x="370" y="664" type="curve" smooth="yes"/>
      <point x="370" y="711"/>
      <point x="314" y="733"/>
      <point x="287" y="733" type="curve" smooth="yes"/>
      <point x="171" y="733"/>
      <point x="98" y="620"/>
      <point x="98" y="500" type="curve" smooth="yes"/>
      <point x="98" y="458" type="line"/>
      <point x="86" y="456"/>
      <point x="22" y="430"/>
      <point x="22" y="413" type="curve" smooth="yes"/>
      <point x="22" y="409"/>
      <point x="26" y="401"/>
      <point x="35" y="401" type="curve" smooth="yes"/>
      <point x="98" y="401" type="line"/>
      <point x="98" y="51" type="line"/>
      <point x="88" y="46"/>
      <point x="64" y="40"/>
      <point x="47" y="33" type="curve" smooth="yes"/>
      <point x="39" y="30"/>
      <point x="35" y="25"/>
    </contour>
  </outline>
</glyph>
<glyph name="g" format="1">
  <advance width="484"/>
  <unicode hex="0067"/>
  <outline>
    <contour>
      <point x="227" y="808" type="move" name="top"/>
    </contour>
    <contour>
      <point x="47" y="299" type="curve" smooth="yes"/>
      <point x="47" y="203"/>
      <point x="118" y="160"/>
      <point x="231" y="160" type="curve" smooth="yes"/>
      <point x="336" y="160"/>
      <point x="427" y="215"/>
      <point x="427" y="345" type="curve" smooth="yes"/>
      <point x="427" y="426"/>
      <point x="351" y="478"/>
      <point x="265" y="477" type="curve" smooth="yes"/>
      <point x="135" y="476"/>
      <point x="47" y="414"/>
    </contour>
    <contour>
      <point x="128" y="339" type="curve" smooth="yes"/>
      <point x="128" y="407"/>
      <point x="154" y="426"/>
      <point x="224" y="428" type="curve" smooth="yes"/>
      <point x="293" y="430"/>
      <point x="349" y="388"/>
      <point x="349" y="306" type="curve" smooth="yes"/>
      <point x="349" y="234"/>
      <point x="308" y="210"/>
      <point x="244" y="210" type="curve" smooth="yes"/>
      <point x="161" y="210"/>
      <point x="128" y="256"/>
    </contour>
    <contour>
      <point x="183" y="187" type="line"/>
      <point x="144" y="163"/>
      <point x="82" y="115"/>
      <point x="84" y="68" type="curve" smooth="yes"/>
      <point x="86" y="32"/>
      <point x="101" y="0"/>
      <point x="146" y="0" type="curve" smooth="yes"/>
      <point x="293" y="0"/>
      <point x="367" y="-37"/>
      <point x="367" y="-89" type="curve" smooth="yes"/>
      <point x="367" y="-177"/>
      <point x="353" y="-218"/>
      <point x="246" y="-218" type="curve" smooth="yes"/>
      <point x="146" y="-218"/>
      <point x="109" y="-173"/>
      <point x="109" y="-107" type="curve" smooth="yes"/>
      <point x="109" y="-55"/>
      <point x="139" y="-14"/>
      <point x="195" y="12" type="curve"/>
      <point x="175" y="22" type="line"/>
      <point x="128" y="7"/>
      <point x="26" y="-38"/>
      <point x="26" y="-134" type="curve" smooth="yes"/>
      <point x="26" y="-219"/>
      <point x="79" y="-277"/>
      <point x="185" y="-277" type="curve" smooth="yes"/>
      <point x="291" y="-277"/>
      <point x="445" y="-215"/>
      <point x="447" y="-63" type="curve" smooth="yes"/>
      <point x="448" y="4"/>
      <point x="386" y="53"/>
      <point x="229" y="58" type="curve"/>
      <point x="193" y="58"/>
      <point x="172" y="64"/>
      <point x="172" y="89" type="curve" smooth="yes"/>
      <point x="172" y="131"/>
      <point x="197" y="163"/>
      <point x="214" y="181" type="curve"/>
    </contour>
    <contour>
      <point x="359" y="441" type="line"/>
      <point x="380" y="452"/>
      <point x="429" y="457"/>
      <point x="465" y="483" type="curve" smooth="yes"/>
      <point x="490" y="501"/>
      <point x="487" y="531"/>
      <point x="483" y="536" type="curve" smooth="yes"/>
      <point x="472" y="553"/>
      <point x="445" y="564"/>
      <point x="431" y="545" type="curve" smooth="yes"/>
      <point x="411" y="522"/>
      <point x="361" y="479"/>
      <point x="331" y="455" type="curve"/>
    </contour>
  </outline>
</glyph>
<glyph name="h" format="1">
  <advance width="527"/>
  <unicode hex="0068"/>
  <outline>
    <contour>
      <point x="316" y="808" type="move" name="top"/>
    </contour>
    <contour>
      <point x="20" y="20" type="curve" smooth="yes"/>
      <point x="20" y="12"/>
      <point x="23" y="0"/>
      <point x="39" y="0" type="curve" smooth="yes"/>
      <point x="205" y="0" type="line" smooth="yes"/>
      <point x="229" y="0"/>
      <point x="239" y="6"/>
      <point x="239" y="22" type="curve" smooth="yes"/>
      <point x="239" y="35"/>
      <point x="232" y="38"/>
      <point x="220" y="41" type="curve" smooth="yes"/>
      <point x="190" y="49"/>
      <point x="161" y="46"/>
      <point x="161" y="74" type="curve" smooth="yes"/>
      <point x="161" y="376" type="line"/>
      <point x="191" y="403"/>
      <point x="237" y="417"/>
      <point x="277" y="417" type="curve" smooth="yes"/>
      <point x="330" y="417"/>
      <point x="365" y="382"/>
      <point x="365" y="289" type="curve" smooth="yes"/>
      <point x="365" y="50" type="line"/>
      <point x="355" y="45"/>
      <point x="341" y="40"/>
      <point x="325" y="33" type="curve" smooth="yes"/>
      <point x="317" y="30"/>
      <point x="313" y="25"/>
      <point x="313" y="20" type="curve" smooth="yes"/>
      <point x="313" y="12"/>
      <point x="316" y="0"/>
      <point x="332" y="0" type="curve" smooth="yes"/>
      <point x="494" y="0" type="line" smooth="yes"/>
      <point x="518" y="0"/>
      <point x="528" y="16"/>
      <point x="528" y="22" type="curve" smooth="yes"/>
      <point x="528" y="35"/>
      <point x="521" y="38"/>
      <point x="509" y="41" type="curve" smooth="yes"/>
      <point x="479" y="49"/>
      <point x="451" y="46"/>
      <point x="451" y="74" type="curve" smooth="yes"/>
      <point x="451" y="329" type="line" smooth="yes"/>
      <point x="451" y="362"/>
      <point x="450" y="399"/>
      <point x="424" y="432" type="curve"/>
      <point x="426" y="432" type="line"/>
      <point x="405" y="469"/>
      <point x="362" y="477"/>
      <point x="317" y="477" type="curve" smooth="yes"/>
      <point x="258" y="477"/>
      <point x="206" y="451"/>
      <point x="161" y="418" type="curve"/>
      <point x="161" y="714" type="line"/>
      <point x="158" y="723"/>
      <point x="149" y="723"/>
      <point x="138" y="723" type="curve" smooth="yes"/>
      <point x="108" y="723"/>
      <point x="54" y="716"/>
      <point x="33" y="701" type="curve" smooth="yes"/>
      <point x="26" y="696"/>
      <point x="26" y="686"/>
      <point x="26" y="680" type="curve" smooth="yes"/>
      <point x="26" y="672"/>
      <point x="44" y="663"/>
      <point x="73" y="659" type="curve"/>
      <point x="73" y="51" type="line"/>
      <point x="63" y="46"/>
      <point x="49" y="40"/>
      <point x="32" y="33" type="curve" smooth="yes"/>
      <point x="24" y="30"/>
      <point x="20" y="25"/>
    </contour>
  </outline>
</glyph>
<glyph name="i" format="1">
  <advance width="280"/>
  <unicode hex="0069"/>
  <outline>
    <contour>
      <point x="134" y="808" type="move" name="top"/>
    </contour>
    <component base="dotlessi"/>
    <component base="dotaccent" xOffset="48"/>
  </outline>
</glyph>
<glyph name="j" format="1">
  <advance width="250"/>
  <unicode hex="006A"/>
  <outline>
    <contour>
      <point x="90" y="808" type="move" name="top"/>
    </contour>
    <component base="dotaccent" xOffset="43"/>
    <component base="dotlessj"/>
  </outline>
</glyph>
<glyph name="k" format="1">
  <advance width="498"/>
  <unicode hex="006B"/>
  <outline>
    <contour>
      <point x="248" y="808" type="move" name="top"/>
    </contour>
    <contour>
      <point x="20" y="20" type="curve" smooth="yes"/>
      <point x="20" y="12"/>
      <point x="23" y="0"/>
      <point x="39" y="0" type="curve" smooth="yes"/>
      <point x="192" y="0" type="line" smooth="yes"/>
      <point x="216" y="0"/>
      <point x="226" y="6"/>
      <point x="226" y="22" type="curve" smooth="yes"/>
      <point x="226" y="35"/>
      <point x="219" y="38"/>
      <point x="207" y="41" type="curve" smooth="yes"/>
      <point x="182" y="49"/>
      <point x="158" y="46"/>
      <point x="158" y="74" type="curve" smooth="yes"/>
      <point x="158" y="157" type="line"/>
      <point x="233" y="232" type="line"/>
      <point x="349" y="46" type="line"/>
      <point x="319" y="33" type="line" smooth="yes"/>
      <point x="311" y="30"/>
      <point x="307" y="25"/>
      <point x="307" y="20" type="curve" smooth="yes"/>
      <point x="307" y="12"/>
      <point x="310" y="0"/>
      <point x="326" y="0" type="curve" smooth="yes"/>
      <point x="488" y="0" type="line" smooth="yes"/>
      <point x="512" y="0"/>
      <point x="522" y="16"/>
      <point x="522" y="22" type="curve" smooth="yes"/>
      <point x="522" y="35"/>
      <point x="515" y="38"/>
      <point x="503" y="41" type="curve" smooth="yes"/>
      <point x="473" y="49"/>
      <point x="458" y="43"/>
      <point x="441" y="63" type="curve"/>
      <point x="291" y="288" type="line"/>
      <point x="399" y="395" type="line"/>
      <point x="418" y="412" type="line"/>
      <point x="443" y="414"/>
      <point x="469" y="423"/>
      <point x="469" y="446" type="curve" smooth="yes"/>
      <point x="469" y="453"/>
      <point x="461" y="458"/>
      <point x="438" y="458" type="curve" smooth="yes"/>
      <point x="287" y="458" type="line" smooth="yes"/>
      <point x="272" y="458"/>
      <point x="265" y="444"/>
      <point x="265" y="436" type="curve" smooth="yes"/>
      <point x="265" y="422"/>
      <point x="303" y="416"/>
      <point x="327" y="412" type="curve"/>
      <point x="158" y="222" type="line"/>
      <point x="158" y="714" type="line"/>
      <point x="155" y="723"/>
      <point x="146" y="723"/>
      <point x="135" y="723" type="curve" smooth="yes"/>
      <point x="105" y="723"/>
      <point x="51" y="716"/>
      <point x="30" y="701" type="curve" smooth="yes"/>
      <point x="23" y="696"/>
      <point x="23" y="686"/>
      <point x="23" y="680" type="curve" smooth="yes"/>
      <point x="23" y="672"/>
      <point x="44" y="663"/>
      <point x="73" y="659" type="curve"/>
      <point x="73" y="51" type="line"/>
      <point x="63" y="46"/>
      <point x="49" y="40"/>
      <point x="32" y="33" type="curve" smooth="yes"/>
      <point x="24" y="30"/>
      <point x="20" y="25"/>
    </contour>
  </outline>
</glyph>
<glyph name="l" format="1">
  <advance width="255"/>
  <unicode hex="006C"/>
  <outline>
    <contour>
      <point x="123" y="808" type="move" name="top"/>
    </contour>
    <contour>
      <point x="31" y="20" type="curve" smooth="yes"/>
      <point x="31" y="12"/>
      <point x="34" y="0"/>
      <point x="50" y="0" type="curve" smooth="yes"/>
      <point x="205" y="0" type="line" smooth="yes"/>
      <point x="229" y="0"/>
      <point x="239" y="6"/>
      <point x="239" y="22" type="curve" smooth="yes"/>
      <point x="239" y="35"/>
      <point x="232" y="38"/>
      <point x="220" y="41" type="curve" smooth="yes"/>
      <point x="190" y="49"/>
      <point x="168" y="46"/>
      <point x="168" y="74" type="curve" smooth="yes"/>
      <point x="168" y="714" type="line"/>
      <point x="165" y="720"/>
      <point x="156" y="723"/>
      <point x="145" y="723" type="curve" smooth="yes"/>
      <point x="115" y="723"/>
      <point x="59" y="716"/>
      <point x="38" y="701" type="curve" smooth="yes"/>
      <point x="31" y="696"/>
      <point x="31" y="686"/>
      <point x="31" y="680" type="curve" smooth="yes"/>
      <point x="31" y="672"/>
      <point x="55" y="663"/>
      <point x="84" y="659" type="curve"/>
      <point x="84" y="51" type="line"/>
      <point x="74" y="46"/>
      <point x="60" y="40"/>
      <point x="43" y="33" type="curve" smooth="yes"/>
      <point x="35" y="30"/>
      <point x="31" y="25"/>
    </contour>
  </outline>
</glyph>
<glyph name="m" format="1">
  <advance width="835"/>
  <unicode hex="006D"/>
  <outline>
    <contour>
      <point x="422" y="808" type="move" name="top"/>
    </contour>
    <contour>
      <point x="477" y="329" type="line" smooth="yes"/>
      <point x="477" y="362"/>
      <point x="474" y="398"/>
      <point x="448" y="432" type="curve"/>
      <point x="423" y="467"/>
      <point x="384" y="477"/>
      <point x="340" y="477" type="curve" smooth="yes"/>
      <point x="254" y="477"/>
      <point x="184" y="421"/>
      <point x="126" y="365" type="curve"/>
      <point x="119" y="353"/>
      <point x="115" y="352"/>
      <point x="115" y="350" type="curve" smooth="yes"/>
      <point x="115" y="345"/>
      <point x="124" y="342"/>
      <point x="134" y="342" type="curve" smooth="yes"/>
      <point x="150" y="342"/>
      <point x="169" y="356"/>
      <point x="183" y="370" type="curve" smooth="yes"/>
      <point x="213" y="401"/>
      <point x="260" y="417"/>
      <point x="300" y="417" type="curve" smooth="yes"/>
      <point x="352" y="417"/>
      <point x="391" y="382"/>
      <point x="391" y="289" type="curve" smooth="yes"/>
      <point x="391" y="43" type="line"/>
      <point x="477" y="57" type="line"/>
    </contour>
    <contour>
      <point x="759" y="329" type="line" smooth="yes"/>
      <point x="759" y="362"/>
      <point x="757" y="398"/>
      <point x="733" y="432" type="curve" smooth="yes"/>
      <point x="709" y="467"/>
      <point x="667" y="477"/>
      <point x="625" y="477" type="curve" smooth="yes"/>
      <point x="545" y="477"/>
      <point x="475" y="422"/>
      <point x="420" y="365" type="curve"/>
      <point x="412" y="353"/>
      <point x="409" y="355"/>
      <point x="409" y="352" type="curve" smooth="yes"/>
      <point x="409" y="348"/>
      <point x="419" y="344"/>
      <point x="428" y="344" type="curve" smooth="yes"/>
      <point x="444" y="344"/>
      <point x="465" y="361"/>
      <point x="484" y="378" type="curve"/>
      <point x="506" y="406"/>
      <point x="552" y="417"/>
      <point x="586" y="417" type="curve" smooth="yes"/>
      <point x="638" y="417"/>
      <point x="673" y="382"/>
      <point x="673" y="289" type="curve" smooth="yes"/>
      <point x="674" y="42" type="line"/>
      <point x="759" y="57" type="line"/>
    </contour>
    <contour>
      <point x="182" y="391" type="line"/>
      <point x="172" y="402" type="line"/>
      <point x="172" y="457" type="line"/>
      <point x="170" y="465"/>
      <point x="161" y="467"/>
      <point x="148" y="467" type="curve" smooth="yes"/>
      <point x="107" y="467"/>
      <point x="34" y="436"/>
      <point x="34" y="409" type="curve" smooth="yes"/>
      <point x="34" y="399"/>
      <point x="69" y="385"/>
      <point x="96" y="380" type="curve"/>
      <point x="96" y="42" type="line"/>
      <point x="182" y="57" type="line"/>
    </contour>
    <contour>
      <point x="43" y="20" type="curve" smooth="yes"/>
      <point x="43" y="12"/>
      <point x="46" y="0"/>
      <point x="62" y="0" type="curve" smooth="yes"/>
      <point x="216" y="0" type="line" smooth="yes"/>
      <point x="240" y="0"/>
      <point x="250" y="6"/>
      <point x="250" y="22" type="curve" smooth="yes"/>
      <point x="250" y="35"/>
      <point x="243" y="38"/>
      <point x="231" y="41" type="curve" smooth="yes"/>
      <point x="201" y="49"/>
      <point x="182" y="46"/>
      <point x="182" y="74" type="curve" smooth="yes"/>
      <point x="182" y="74"/>
      <point x="96" y="51"/>
      <point x="96" y="51" type="curve"/>
      <point x="86" y="46"/>
      <point x="72" y="40"/>
      <point x="55" y="33" type="curve" smooth="yes"/>
      <point x="47" y="30"/>
      <point x="43" y="25"/>
    </contour>
    <contour>
      <point x="340" y="20" type="curve" smooth="yes"/>
      <point x="340" y="12"/>
      <point x="343" y="0"/>
      <point x="359" y="0" type="curve" smooth="yes"/>
      <point x="510" y="0" type="line" smooth="yes"/>
      <point x="534" y="0"/>
      <point x="544" y="16"/>
      <point x="544" y="22" type="curve" smooth="yes"/>
      <point x="544" y="35"/>
      <point x="537" y="38"/>
      <point x="525" y="41" type="curve" smooth="yes"/>
      <point x="495" y="49"/>
      <point x="477" y="46"/>
      <point x="477" y="74" type="curve" smooth="yes"/>
      <point x="477" y="74"/>
      <point x="391" y="51"/>
      <point x="391" y="51" type="curve"/>
      <point x="381" y="46"/>
      <point x="369" y="40"/>
      <point x="352" y="33" type="curve" smooth="yes"/>
      <point x="344" y="30"/>
      <point x="340" y="25"/>
    </contour>
    <contour>
      <point x="623" y="20" type="curve" smooth="yes"/>
      <point x="623" y="12"/>
      <point x="626" y="0"/>
      <point x="642" y="0" type="curve" smooth="yes"/>
      <point x="792" y="0" type="line" smooth="yes"/>
      <point x="816" y="0"/>
      <point x="826" y="16"/>
      <point x="826" y="22" type="curve" smooth="yes"/>
      <point x="826" y="35"/>
      <point x="819" y="38"/>
      <point x="807" y="41" type="curve" smooth="yes"/>
      <point x="777" y="49"/>
      <point x="759" y="46"/>
      <point x="759" y="74" type="curve" smooth="yes"/>
      <point x="759" y="74"/>
      <point x="674" y="51"/>
      <point x="674" y="51" type="curve"/>
      <point x="664" y="46"/>
      <point x="652" y="40"/>
      <point x="635" y="33" type="curve" smooth="yes"/>
      <point x="627" y="30"/>
      <point x="623" y="25"/>
    </contour>
  </outline>
</glyph>
<glyph name="n" format="1">
  <advance width="554"/>
  <unicode hex="006E"/>
  <outline>
    <contour>
      <point x="292" y="808" type="move" name="top"/>
    </contour>
    <contour>
      <point x="43" y="20" type="curve" smooth="yes"/>
      <point x="43" y="12"/>
      <point x="46" y="0"/>
      <point x="62" y="0" type="curve" smooth="yes"/>
      <point x="216" y="0" type="line" smooth="yes"/>
      <point x="240" y="0"/>
      <point x="250" y="6"/>
      <point x="250" y="22" type="curve" smooth="yes"/>
      <point x="250" y="35"/>
      <point x="243" y="38"/>
      <point x="231" y="41" type="curve" smooth="yes"/>
      <point x="201" y="49"/>
      <point x="182" y="46"/>
      <point x="182" y="74" type="curve" smooth="yes"/>
      <point x="182" y="375" type="line"/>
      <point x="212" y="403"/>
      <point x="260" y="419"/>
      <point x="300" y="419" type="curve" smooth="yes"/>
      <point x="352" y="419"/>
      <point x="390" y="384"/>
      <point x="390" y="291" type="curve" smooth="yes"/>
      <point x="390" y="51" type="line"/>
      <point x="380" y="46"/>
      <point x="368" y="40"/>
      <point x="351" y="33" type="curve" smooth="yes"/>
      <point x="343" y="30"/>
      <point x="339" y="25"/>
      <point x="339" y="20" type="curve" smooth="yes"/>
      <point x="339" y="12"/>
      <point x="342" y="0"/>
      <point x="358" y="0" type="curve" smooth="yes"/>
      <point x="503" y="0" type="line" smooth="yes"/>
      <point x="527" y="0"/>
      <point x="537" y="16"/>
      <point x="537" y="22" type="curve" smooth="yes"/>
      <point x="537" y="35"/>
      <point x="530" y="38"/>
      <point x="518" y="41" type="curve" smooth="yes"/>
      <point x="490" y="48"/>
      <point x="479" y="46"/>
      <point x="478" y="68" type="curve"/>
      <point x="478" y="329" type="line" smooth="yes"/>
      <point x="478" y="362"/>
      <point x="474" y="398"/>
      <point x="447" y="432" type="curve"/>
      <point x="422" y="467"/>
      <point x="384" y="477"/>
      <point x="339" y="477" type="curve" smooth="yes"/>
      <point x="271" y="477"/>
      <point x="219" y="447"/>
      <point x="172" y="406" type="curve"/>
      <point x="172" y="457" type="line"/>
      <point x="170" y="465"/>
      <point x="161" y="467"/>
      <point x="148" y="467" type="curve" smooth="yes"/>
      <point x="107" y="467"/>
      <point x="34" y="436"/>
      <point x="34" y="409" type="curve" smooth="yes"/>
      <point x="34" y="399"/>
      <point x="69" y="385"/>
      <point x="96" y="380" type="curve"/>
      <point x="96" y="51" type="line"/>
      <point x="86" y="46"/>
      <point x="72" y="40"/>
      <point x="55" y="33" type="curve" smooth="yes"/>
      <point x="47" y="30"/>
      <point x="43" y="25"/>
    </contour>
  </outline>
</glyph>
<glyph name="q" format="1">
  <advance width="501"/>
  <unicode hex="0071"/>
  <outline>
    <contour>
      <point x="218" y="808" type="move" name="top"/>
    </contour>
    <contour>
      <point x="366" y="103" type="curve"/>
      <point x="337" y="61"/>
      <point x="301" y="39"/>
      <point x="264" y="39" type="curve" smooth="yes"/>
      <point x="172" y="39"/>
      <point x="118" y="120"/>
      <point x="118" y="237" type="curve" smooth="yes"/>
      <point x="118" y="337"/>
      <point x="157" y="419"/>
      <point x="246" y="419" type="curve" smooth="yes"/>
      <point x="275" y="419"/>
      <point x="339" y="410"/>
      <point x="360" y="370" type="curve"/>
      <point x="437" y="418" type="line"/>
      <point x="411" y="447"/>
      <point x="355" y="477"/>
      <point x="283" y="477" type="curve" smooth="yes"/>
      <point x="193" y="477"/>
      <point x="117" y="428"/>
      <point x="75" y="368" type="curve"/>
      <point x="39" y="320"/>
      <point x="27" y="247"/>
      <point x="27" y="195" type="curve" smooth="yes"/>
      <point x="27" y="62"/>
      <point x="115" y="-16"/>
      <point x="218" y="-16" type="curve" smooth="yes"/>
      <point x="311" y="-16"/>
      <point x="377" y="36"/>
      <point x="426" y="109" type="curve"/>
      <point x="427" y="112"/>
      <point x="428" y="115"/>
      <point x="428" y="119" type="curve" smooth="yes"/>
      <point x="428" y="123"/>
      <point x="421" y="127"/>
      <point x="410" y="127" type="curve" smooth="yes"/>
      <point x="391" y="127"/>
      <point x="374" y="111"/>
    </contour>
    <contour>
      <point x="355" y="-175" type="line"/>
      <point x="438" y="-173" type="line"/>
      <point x="438" y="453" type="line"/>
      <point x="435" y="464"/>
      <point x="426" y="467"/>
      <point x="417" y="467" type="curve" smooth="yes"/>
      <point x="373" y="467"/>
      <point x="323" y="448"/>
      <point x="323" y="421" type="curve" smooth="yes"/>
      <point x="323" y="411"/>
      <point x="330" y="399"/>
      <point x="355" y="395" type="curve"/>
    </contour>
    <contour>
      <point x="279" y="-197" type="curve" smooth="yes"/>
      <point x="279" y="-205"/>
      <point x="282" y="-217"/>
      <point x="298" y="-217" type="curve" smooth="yes"/>
      <point x="460" y="-217" type="line" smooth="yes"/>
      <point x="484" y="-217"/>
      <point x="494" y="-211"/>
      <point x="494" y="-195" type="curve" smooth="yes"/>
      <point x="494" y="-182"/>
      <point x="488" y="-179"/>
      <point x="475" y="-176" type="curve" smooth="yes"/>
      <point x="455" y="-168"/>
      <point x="438" y="-171"/>
      <point x="438" y="-143" type="curve" smooth="yes"/>
      <point x="438" y="-143"/>
      <point x="355" y="-166"/>
      <point x="355" y="-166" type="curve"/>
      <point x="341" y="-171"/>
      <point x="316" y="-177"/>
      <point x="291" y="-184" type="curve" smooth="yes"/>
      <point x="285" y="-187"/>
      <point x="279" y="-192"/>
    </contour>
  </outline>
</glyph>
<glyph name="r" format="1">
  <advance width="393"/>
  <unicode hex="0072"/>
  <outline>
    <contour>
      <point x="244" y="808" type="move" name="top"/>
    </contour>
    <contour>
      <point x="177" y="279" type="curve" smooth="yes"/>
      <point x="177" y="324"/>
      <point x="220" y="410"/>
      <point x="257" y="410" type="curve" smooth="yes"/>
      <point x="282" y="410"/>
      <point x="294" y="403"/>
      <point x="300" y="373" type="curve" smooth="yes"/>
      <point x="303" y="356"/>
      <point x="311" y="351"/>
      <point x="321" y="352" type="curve" smooth="yes"/>
      <point x="348" y="355"/>
      <point x="385" y="379"/>
      <point x="382" y="404" type="curve" smooth="yes"/>
      <point x="375" y="464"/>
      <point x="327" y="477"/>
      <point x="300" y="477" type="curve" smooth="yes"/>
      <point x="196" y="477"/>
      <point x="139" y="326"/>
      <point x="130" y="222" type="curve" smooth="yes"/>
      <point x="129" y="213"/>
      <point x="177" y="250"/>
    </contour>
    <contour>
      <point x="91" y="43" type="line"/>
      <point x="177" y="45" type="line"/>
      <point x="177" y="340" type="line"/>
      <point x="167" y="364" type="line"/>
      <point x="167" y="457" type="line"/>
      <point x="165" y="465"/>
      <point x="153" y="467"/>
      <point x="143" y="467" type="curve" smooth="yes"/>
      <point x="102" y="467"/>
      <point x="29" y="436"/>
      <point x="29" y="409" type="curve" smooth="yes"/>
      <point x="29" y="399"/>
      <point x="64" y="385"/>
      <point x="91" y="380" type="curve"/>
    </contour>
    <contour>
      <point x="38" y="20" type="curve" smooth="yes"/>
      <point x="38" y="12"/>
      <point x="41" y="0"/>
      <point x="57" y="0" type="curve" smooth="yes"/>
      <point x="237" y="0" type="line" smooth="yes"/>
      <point x="261" y="0"/>
      <point x="271" y="6"/>
      <point x="271" y="22" type="curve" smooth="yes"/>
      <point x="271" y="35"/>
      <point x="264" y="38"/>
      <point x="252" y="41" type="curve" smooth="yes"/>
      <point x="212" y="49"/>
      <point x="177" y="46"/>
      <point x="177" y="74" type="curve" smooth="yes"/>
      <point x="177" y="74"/>
      <point x="91" y="51"/>
      <point x="91" y="51" type="curve"/>
      <point x="81" y="46"/>
      <point x="67" y="40"/>
      <point x="50" y="33" type="curve" smooth="yes"/>
      <point x="42" y="30"/>
      <point x="38" y="25"/>
    </contour>
  </outline>
</glyph>
<glyph name="s" format="1">
  <advance width="409"/>
  <unicode hex="0073"/>
  <outline>
    <contour>
      <point x="219" y="808" type="move" name="top"/>
    </contour>
    <contour>
      <point x="48" y="44" type="curve"/>
      <point x="71" y="8"/>
      <point x="140" y="-16"/>
      <point x="190" y="-16" type="curve" smooth="yes"/>
      <point x="279" y="-16"/>
      <point x="376" y="32"/>
      <point x="376" y="123" type="curve" smooth="yes"/>
      <point x="376" y="278"/>
      <point x="130" y="261"/>
      <point x="130" y="366" type="curve" smooth="yes"/>
      <point x="130" y="407"/>
      <point x="158" y="422"/>
      <point x="187" y="422" type="curve" smooth="yes"/>
      <point x="262" y="422"/>
      <point x="283" y="408"/>
      <point x="295" y="378" type="curve"/>
      <point x="295" y="378"/>
      <point x="309" y="328"/>
      <point x="325" y="328" type="curve" smooth="yes"/>
      <point x="334" y="328"/>
      <point x="343" y="333"/>
      <point x="344" y="345" type="curve" smooth="yes"/>
      <point x="347" y="372"/>
      <point x="348" y="392"/>
      <point x="349" y="418" type="curve" smooth="yes"/>
      <point x="349" y="420"/>
      <point x="348" y="429"/>
      <point x="347" y="431" type="curve" smooth="yes"/>
      <point x="341" y="453"/>
      <point x="295" y="477"/>
      <point x="233" y="477" type="curve" smooth="yes"/>
      <point x="150" y="477"/>
      <point x="55" y="422"/>
      <point x="55" y="332" type="curve" smooth="yes"/>
      <point x="55" y="180"/>
      <point x="295" y="207"/>
      <point x="295" y="94" type="curve" smooth="yes"/>
      <point x="295" y="56"/>
      <point x="259" y="33"/>
      <point x="224" y="33" type="curve" smooth="yes"/>
      <point x="170" y="33"/>
      <point x="123" y="62"/>
      <point x="108" y="88" type="curve" smooth="yes"/>
      <point x="99" y="103"/>
      <point x="91" y="150"/>
      <point x="75" y="150" type="curve" smooth="yes"/>
      <point x="66" y="150"/>
      <point x="53" y="144"/>
      <point x="53" y="132" type="curve" smooth="yes"/>
      <point x="52" y="106"/>
      <point x="50" y="69"/>
    </contour>
  </outline>
</glyph>
<glyph name="t" format="1">
  <advance width="321"/>
  <unicode hex="0074"/>
  <outline>
    <contour>
      <point x="173" y="808" type="move" name="top"/>
    </contour>
    <contour>
      <point x="40" y="402" type="curve"/>
      <point x="82" y="402" type="line"/>
      <point x="82" y="57" type="line" smooth="yes"/>
      <point x="82" y="12"/>
      <point x="113" y="-13"/>
      <point x="146" y="-13" type="curve" smooth="yes"/>
      <point x="205" y="-13"/>
      <point x="235" y="-4"/>
      <point x="278" y="15" type="curve" smooth="yes"/>
      <point x="301" y="25"/>
      <point x="298" y="38"/>
      <point x="298" y="45" type="curve" smooth="yes"/>
      <point x="298" y="50"/>
      <point x="289" y="60"/>
      <point x="274" y="57" type="curve" smooth="yes"/>
      <point x="253" y="52"/>
      <point x="234" y="46"/>
      <point x="217" y="46" type="curve" smooth="yes"/>
      <point x="170" y="46"/>
      <point x="169" y="52"/>
      <point x="169" y="147" type="curve" smooth="yes"/>
      <point x="169" y="402" type="line"/>
      <point x="253" y="402" type="line"/>
      <point x="272" y="403"/>
      <point x="284" y="424"/>
      <point x="284" y="440" type="curve" smooth="yes"/>
      <point x="284" y="450"/>
      <point x="281" y="458"/>
      <point x="264" y="458" type="curve" smooth="yes"/>
      <point x="169" y="458" type="line"/>
      <point x="169" y="582" type="line"/>
      <point x="164" y="585"/>
      <point x="148" y="586"/>
      <point x="138" y="586" type="curve" smooth="yes"/>
      <point x="109" y="586"/>
      <point x="108" y="512"/>
      <point x="90" y="478" type="curve" smooth="yes"/>
      <point x="60" y="430"/>
      <point x="32" y="444"/>
      <point x="32" y="418" type="curve" smooth="yes"/>
      <point x="32" y="413"/>
      <point x="34" y="404"/>
    </contour>
  </outline>
</glyph>
<glyph name="w" format="1">
  <advance width="679"/>
  <unicode hex="0077"/>
  <outline>
    <contour>
      <point x="339" y="808" type="move" name="top"/>
    </contour>
    <contour>
      <point x="443" y="-10" type="line"/>
      <point x="487" y="-10" type="line"/>
      <point x="646" y="412" type="line"/>
      <point x="673" y="414"/>
      <point x="697" y="422"/>
      <point x="697" y="446" type="curve" smooth="yes"/>
      <point x="697" y="451"/>
      <point x="688" y="458"/>
      <point x="669" y="458" type="curve" smooth="yes"/>
      <point x="528" y="458" type="line" smooth="yes"/>
      <point x="513" y="458"/>
      <point x="507" y="444"/>
      <point x="507" y="435" type="curve" smooth="yes"/>
      <point x="507" y="421"/>
      <point x="561" y="416"/>
      <point x="587" y="412" type="curve"/>
      <point x="447" y="22" type="line"/>
      <point x="447" y="22"/>
      <point x="495" y="52"/>
      <point x="495" y="52" type="curve"/>
      <point x="377" y="412" type="line"/>
      <point x="410" y="416"/>
      <point x="438" y="421"/>
      <point x="438" y="435" type="curve" smooth="yes"/>
      <point x="438" y="444"/>
      <point x="431" y="458"/>
      <point x="416" y="458" type="curve" smooth="yes"/>
      <point x="277" y="458" type="line" smooth="yes"/>
      <point x="258" y="458"/>
      <point x="246" y="451"/>
      <point x="246" y="446" type="curve" smooth="yes"/>
      <point x="246" y="422"/>
      <point x="260" y="414"/>
      <point x="285" y="412" type="curve"/>
      <point x="293" y="395" type="line"/>
    </contour>
    <contour>
      <point x="316" y="334" type="line"/>
      <point x="206" y="22" type="line"/>
      <point x="206" y="22"/>
      <point x="254" y="52"/>
      <point x="254" y="52" type="curve"/>
      <point x="125" y="412" type="line"/>
      <point x="151" y="416"/>
      <point x="174" y="421"/>
      <point x="174" y="435" type="curve" smooth="yes"/>
      <point x="174" y="444"/>
      <point x="167" y="458"/>
      <point x="151" y="458" type="curve" smooth="yes"/>
      <point x="11" y="458" type="line" smooth="yes"/>
      <point x="-8" y="458"/>
      <point x="-16" y="451"/>
      <point x="-16" y="446" type="curve" smooth="yes"/>
      <point x="-16" y="422"/>
      <point x="5" y="414"/>
      <point x="30" y="412" type="curve"/>
      <point x="38" y="395" type="line"/>
      <point x="201" y="-10" type="line"/>
      <point x="242" y="-10" type="line"/>
      <point x="349" y="272" type="line"/>
    </contour>
  </outline>
</glyph>
<glyph name="x" format="1">
  <advance width="497"/>
  <unicode hex="0078"/>
  <outline>
    <contour>
      <point x="249" y="808" type="move" name="top"/>
    </contour>
    <contour>
      <point x="222" y="209" type="line"/>
      <point x="267" y="198" type="line"/>
      <point x="438" y="407" type="line"/>
      <point x="365" y="407" type="line"/>
      <point x="229" y="233" type="line"/>
      <point x="229" y="233"/>
      <point x="270" y="257"/>
      <point x="270" y="257" type="curve"/>
      <point x="165" y="407" type="line"/>
      <point x="51" y="412" type="line"/>
    </contour>
    <contour>
      <point x="269" y="251" type="line"/>
      <point x="239" y="264" type="line"/>
      <point x="65" y="51" type="line"/>
      <point x="133" y="45" type="line"/>
      <point x="275" y="242" type="line"/>
      <point x="275" y="242"/>
      <point x="221" y="212"/>
      <point x="221" y="212" type="curve"/>
      <point x="335" y="51" type="line"/>
      <point x="428" y="69" type="line"/>
    </contour>
    <contour>
      <point x="12" y="20" type="curve" smooth="yes"/>
      <point x="12" y="12"/>
      <point x="15" y="0"/>
      <point x="31" y="0" type="curve" smooth="yes"/>
      <point x="171" y="0" type="line" smooth="yes"/>
      <point x="195" y="0"/>
      <point x="205" y="6"/>
      <point x="205" y="22" type="curve" smooth="yes"/>
      <point x="205" y="35"/>
      <point x="199" y="38"/>
      <point x="186" y="41" type="curve"/>
      <point x="167" y="49"/>
      <point x="151" y="46"/>
      <point x="151" y="74" type="curve" smooth="yes"/>
      <point x="151" y="74"/>
      <point x="65" y="51"/>
      <point x="65" y="51" type="curve"/>
      <point x="55" y="46"/>
      <point x="41" y="40"/>
      <point x="24" y="33" type="curve" smooth="yes"/>
      <point x="16" y="30"/>
      <point x="12" y="25"/>
    </contour>
    <contour>
      <point x="491" y="438" type="curve" smooth="yes"/>
      <point x="491" y="446"/>
      <point x="488" y="458"/>
      <point x="472" y="458" type="curve" smooth="yes"/>
      <point x="332" y="458" type="line" smooth="yes"/>
      <point x="308" y="458"/>
      <point x="298" y="452"/>
      <point x="298" y="436" type="curve" smooth="yes"/>
      <point x="298" y="423"/>
      <point x="304" y="420"/>
      <point x="317" y="417" type="curve"/>
      <point x="336" y="409"/>
      <point x="352" y="412"/>
      <point x="352" y="384" type="curve" smooth="yes"/>
      <point x="352" y="384"/>
      <point x="438" y="407"/>
      <point x="438" y="407" type="curve"/>
      <point x="448" y="412"/>
      <point x="462" y="418"/>
      <point x="479" y="425" type="curve" smooth="yes"/>
      <point x="487" y="428"/>
      <point x="491" y="433"/>
    </contour>
    <contour>
      <point x="216" y="438" type="curve" smooth="yes"/>
      <point x="216" y="446"/>
      <point x="213" y="458"/>
      <point x="197" y="458" type="curve" smooth="yes"/>
      <point x="40" y="458" type="line" smooth="yes"/>
      <point x="16" y="458"/>
      <point x="6" y="452"/>
      <point x="6" y="436" type="curve" smooth="yes"/>
      <point x="6" y="423"/>
      <point x="12" y="420"/>
      <point x="25" y="417" type="curve" smooth="yes"/>
      <point x="34" y="415"/>
      <point x="51" y="412"/>
      <point x="71" y="389" type="curve"/>
      <point x="71" y="389"/>
      <point x="165" y="407"/>
      <point x="165" y="407" type="curve"/>
      <point x="175" y="412"/>
      <point x="187" y="418"/>
      <point x="204" y="425" type="curve" smooth="yes"/>
      <point x="212" y="428"/>
      <point x="216" y="433"/>
    </contour>
    <contour>
      <point x="289" y="20" type="curve" smooth="yes"/>
      <point x="289" y="12"/>
      <point x="292" y="0"/>
      <point x="308" y="0" type="curve" smooth="yes"/>
      <point x="464" y="0" type="line" smooth="yes"/>
      <point x="488" y="0"/>
      <point x="498" y="6"/>
      <point x="498" y="22" type="curve" smooth="yes"/>
      <point x="498" y="35"/>
      <point x="492" y="38"/>
      <point x="479" y="41" type="curve" smooth="yes"/>
      <point x="470" y="43"/>
      <point x="448" y="46"/>
      <point x="428" y="69" type="curve"/>
      <point x="381" y="71" type="line"/>
      <point x="335" y="51" type="line"/>
      <point x="325" y="46"/>
      <point x="318" y="40"/>
      <point x="301" y="33" type="curve" smooth="yes"/>
      <point x="293" y="30"/>
      <point x="289" y="25"/>
    </contour>
  </outline>
</glyph>
<glyph name="z" format="1">
  <advance width="436"/>
  <unicode hex="007A"/>
  <outline>
    <contour>
      <point x="225" y="808" type="move" name="top"/>
    </contour>
    <contour>
      <point x="31" y="44" type="curve" smooth="yes"/>
      <point x="31" y="36"/>
      <point x="46" y="0"/>
      <point x="68" y="0" type="curve" smooth="yes"/>
      <point x="392" y="0" type="line"/>
      <point x="400" y="2"/>
      <point x="401" y="64"/>
      <point x="401" y="105" type="curve" smooth="yes"/>
      <point x="401" y="135" type="line" smooth="yes"/>
      <point x="401" y="147"/>
      <point x="381" y="153"/>
      <point x="370" y="153" type="curve" smooth="yes"/>
      <point x="353" y="153"/>
      <point x="350" y="101"/>
      <point x="321" y="67" type="curve" smooth="yes"/>
      <point x="302" y="43"/>
      <point x="200" y="45"/>
      <point x="143" y="45" type="curve" smooth="yes"/>
      <point x="129" y="45"/>
      <point x="130" y="50"/>
      <point x="143" y="70" type="curve"/>
      <point x="201" y="149"/>
      <point x="295" y="253"/>
      <point x="396" y="389" type="curve" smooth="yes"/>
      <point x="414" y="414"/>
      <point x="386" y="458"/>
      <point x="374" y="458" type="curve" smooth="yes"/>
      <point x="61" y="458" type="line"/>
      <point x="53" y="456"/>
      <point x="53" y="445"/>
      <point x="53" y="433" type="curve" smooth="yes"/>
      <point x="55" y="386"/>
      <point x="47" y="359"/>
      <point x="44" y="330" type="curve" smooth="yes"/>
      <point x="43" y="318"/>
      <point x="62" y="305"/>
      <point x="80" y="313" type="curve" smooth="yes"/>
      <point x="94" y="320"/>
      <point x="110" y="377"/>
      <point x="110" y="377" type="curve"/>
      <point x="125" y="400"/>
      <point x="101" y="419"/>
      <point x="281" y="419" type="curve" smooth="yes"/>
      <point x="300" y="419"/>
      <point x="300" y="408"/>
      <point x="270" y="369" type="curve"/>
      <point x="215" y="293"/>
      <point x="114" y="176"/>
      <point x="61" y="108" type="curve" smooth="yes"/>
      <point x="37" y="77"/>
      <point x="31" y="62"/>
    </contour>
  </outline>
</glyph>
<glyph name="braceleft" format="1">
  <advance width="415"/>
  <unicode hex="007B"/>
  <outline>
    <contour>
      <point x="95" y="9" type="line" smooth="yes"/>
      <point x="95" y="-115"/>
      <point x="142" y="-161"/>
      <point x="211" y="-161" type="curve" smooth="yes"/>
      <point x="248" y="-161" type="line" smooth="yes"/>
      <point x="317" y="-161"/>
      <point x="313" y="-156"/>
      <point x="313" y="-144" type="curve" smooth="yes"/>
      <point x="313" y="-126"/>
      <point x="306" y="-116"/>
      <point x="246" y="-118" type="curve" smooth="yes"/>
      <point x="224" y="-119"/>
      <point x="185" y="-95"/>
      <point x="185" y="-17" type="curve"/>
      <point x="183" y="165" type="line"/>
      <point x="181" y="213"/>
      <point x="156" y="266"/>
      <point x="64" y="266" type="curve" smooth="yes"/>
      <point x="64" y="266"/>
      <point x="64" y="249"/>
      <point x="64" y="249" type="curve"/>
      <point x="156" y="249"/>
      <point x="183" y="302"/>
      <point x="183" y="350" type="curve" smooth="yes"/>
      <point x="185" y="514" type="line"/>
      <point x="185" y="592"/>
      <point x="224" y="616"/>
      <point x="246" y="615" type="curve" smooth="yes"/>
      <point x="306" y="613"/>
      <point x="313" y="623"/>
      <point x="313" y="641" type="curve" smooth="yes"/>
      <point x="313" y="652"/>
      <point x="317" y="658"/>
      <point x="248" y="658" type="curve" smooth="yes"/>
      <point x="211" y="658" type="line" smooth="yes"/>
      <point x="142" y="658"/>
      <point x="95" y="612"/>
      <point x="95" y="488" type="curve" smooth="yes"/>
      <point x="95" y="340" type="line" smooth="yes"/>
      <point x="95" y="290"/>
      <point x="66" y="276"/>
      <point x="33" y="276" type="curve" smooth="yes"/>
      <point x="33" y="276"/>
      <point x="33" y="237"/>
      <point x="33" y="237" type="curve"/>
      <point x="66" y="237"/>
      <point x="95" y="220"/>
      <point x="95" y="183" type="curve" smooth="yes"/>
    </contour>
  </outline>
</glyph>
<glyph name="bar" format="1">
  <advance width="196"/>
  <unicode hex="007C"/>
  <outline>
    <contour>
      <point x="137" y="-244" type="curve"/>
      <point x="137" y="111"/>
      <point x="139" y="467"/>
      <point x="139" y="821" type="curve"/>
      <point x="131" y="862"/>
      <point x="59" y="819"/>
      <point x="57" y="787" type="curve"/>
      <point x="57" y="431"/>
      <point x="55" y="76"/>
      <point x="55" y="-279" type="curve"/>
      <point x="74" y="-312"/>
      <point x="129" y="-270"/>
    </contour>
  </outline>
</glyph>
<glyph name="asciitilde" format="1">
  <advance width="666"/>
  <unicode hex="007E"/>
  <outline>
    <contour>
      <point x="203" y="281" type="curve" smooth="yes"/>
      <point x="293" y="281"/>
      <point x="318" y="195"/>
      <point x="436" y="195" type="curve" smooth="yes"/>
      <point x="513" y="195"/>
      <point x="550" y="266"/>
      <point x="575" y="304" type="curve" smooth="yes"/>
      <point x="588" y="325"/>
      <point x="534" y="333"/>
      <point x="531" y="328" type="curve"/>
      <point x="510" y="307"/>
      <point x="489" y="254"/>
      <point x="452" y="254" type="curve" smooth="yes"/>
      <point x="363" y="254"/>
      <point x="310" y="340"/>
      <point x="219" y="340" type="curve" smooth="yes"/>
      <point x="142" y="340"/>
      <point x="115" y="280"/>
      <point x="93" y="241" type="curve" smooth="yes"/>
      <point x="80" y="220"/>
      <point x="131" y="212"/>
      <point x="134" y="217" type="curve"/>
      <point x="156" y="238"/>
      <point x="169" y="281"/>
    </contour>
  </outline>
</glyph>
<glyph name="currency" format="1">
  <advance width="670"/>
  <unicode hex="00A4"/>
  <outline>
    <contour>
      <point x="89" y="112" type="curve" smooth="yes"/>
      <point x="84" y="99"/>
      <point x="141" y="28"/>
      <point x="158" y="55" type="curve"/>
      <point x="248" y="168" type="line"/>
      <point x="270" y="160"/>
      <point x="296" y="157"/>
      <point x="323" y="157" type="curve" smooth="yes"/>
      <point x="363" y="157"/>
      <point x="402" y="166"/>
      <point x="435" y="186" type="curve"/>
      <point x="525" y="52" type="line"/>
      <point x="540" y="25"/>
      <point x="600" y="97"/>
      <point x="595" y="109" type="curve" smooth="yes"/>
      <point x="574" y="158"/>
      <point x="502" y="195"/>
      <point x="476" y="215" type="curve"/>
      <point x="475" y="215" type="line"/>
      <point x="522" y="251"/>
      <point x="537" y="305"/>
      <point x="537" y="348" type="curve" smooth="yes"/>
      <point x="537" y="380"/>
      <point x="529" y="414"/>
      <point x="511" y="442" type="curve"/>
      <point x="548" y="464"/>
      <point x="609" y="497"/>
      <point x="626" y="536" type="curve" smooth="yes"/>
      <point x="631" y="548"/>
      <point x="574" y="620"/>
      <point x="556" y="594" type="curve"/>
      <point x="470" y="484" type="line"/>
      <point x="442" y="503"/>
      <point x="405" y="515"/>
      <point x="355" y="515" type="curve" smooth="yes"/>
      <point x="303" y="515"/>
      <point x="259" y="500"/>
      <point x="225" y="477" type="curve"/>
      <point x="134" y="594" type="line"/>
      <point x="119" y="619"/>
      <point x="62" y="548"/>
      <point x="67" y="536" type="curve" smooth="yes"/>
      <point x="84" y="495"/>
      <point x="149" y="461"/>
      <point x="186" y="440" type="curve"/>
      <point x="159" y="406"/>
      <point x="144" y="364"/>
      <point x="144" y="321" type="curve" smooth="yes"/>
      <point x="144" y="267"/>
      <point x="163" y="226"/>
      <point x="193" y="199" type="curve"/>
      <point x="156" y="178"/>
      <point x="104" y="148"/>
    </contour>
    <contour>
      <point x="358" y="204" type="curve" smooth="yes"/>
      <point x="254" y="204"/>
      <point x="228" y="284"/>
      <point x="228" y="348" type="curve" smooth="yes"/>
      <point x="228" y="403"/>
      <point x="245" y="469"/>
      <point x="325" y="469" type="curve" smooth="yes"/>
      <point x="426" y="469"/>
      <point x="454" y="389"/>
      <point x="454" y="321" type="curve" smooth="yes"/>
      <point x="454" y="261"/>
      <point x="431" y="204"/>
    </contour>
  </outline>
</glyph>
<glyph name="section" format="1">
  <advance width="601"/>
  <unicode hex="00A7"/>
  <outline>
    <contour>
      <point x="183" y="472" type="line"/>
      <point x="132" y="433"/>
      <point x="101" y="417"/>
      <point x="101" y="357" type="curve" smooth="yes"/>
      <point x="101" y="262"/>
      <point x="181" y="232"/>
      <point x="289" y="210" type="curve"/>
      <point x="365" y="193"/>
      <point x="438" y="184"/>
      <point x="438" y="112" type="curve" smooth="yes"/>
      <point x="438" y="76"/>
      <point x="388" y="45"/>
      <point x="326" y="45" type="curve" smooth="yes"/>
      <point x="226" y="45"/>
      <point x="163" y="76"/>
      <point x="152" y="112" type="curve"/>
      <point x="152" y="112"/>
      <point x="137" y="188"/>
      <point x="121" y="188" type="curve" smooth="yes"/>
      <point x="112" y="188"/>
      <point x="102" y="183"/>
      <point x="102" y="171" type="curve" smooth="yes"/>
      <point x="101" y="144"/>
      <point x="100" y="83"/>
      <point x="98" y="59" type="curve" smooth="yes"/>
      <point x="96" y="44"/>
      <point x="98" y="35"/>
      <point x="101" y="33" type="curve" smooth="yes"/>
      <point x="129" y="8"/>
      <point x="229" y="-16"/>
      <point x="285" y="-16" type="curve" smooth="yes"/>
      <point x="406" y="-16"/>
      <point x="513" y="57"/>
      <point x="513" y="148" type="curve" smooth="yes"/>
      <point x="513" y="250"/>
      <point x="409" y="271"/>
      <point x="315" y="294" type="curve"/>
      <point x="221" y="310"/>
      <point x="172" y="330"/>
      <point x="172" y="387" type="curve" smooth="yes"/>
      <point x="172" y="423"/>
      <point x="194" y="452"/>
      <point x="225" y="473" type="curve"/>
    </contour>
    <contour>
      <point x="423" y="229" type="line"/>
      <point x="461" y="259"/>
      <point x="486" y="297"/>
      <point x="486" y="339" type="curve" smooth="yes"/>
      <point x="486" y="435"/>
      <point x="414" y="465"/>
      <point x="320" y="487" type="curve" smooth="yes"/>
      <point x="243" y="505"/>
      <point x="172" y="527"/>
      <point x="172" y="590" type="curve" smooth="yes"/>
      <point x="172" y="631"/>
      <point x="227" y="653"/>
      <point x="286" y="653" type="curve" smooth="yes"/>
      <point x="362" y="653"/>
      <point x="410" y="629"/>
      <point x="433" y="593" type="curve"/>
      <point x="433" y="593"/>
      <point x="447" y="522"/>
      <point x="463" y="522" type="curve" smooth="yes"/>
      <point x="472" y="522"/>
      <point x="482" y="527"/>
      <point x="482" y="539" type="curve"/>
      <point x="484" y="566"/>
      <point x="485" y="605"/>
      <point x="487" y="629" type="curve" smooth="yes"/>
      <point x="491" y="671"/>
      <point x="402" y="711"/>
      <point x="331" y="711" type="curve" smooth="yes"/>
      <point x="210" y="711"/>
      <point x="101" y="651"/>
      <point x="101" y="560" type="curve" smooth="yes"/>
      <point x="101" y="458"/>
      <point x="202" y="426"/>
      <point x="294" y="403" type="curve"/>
      <point x="370" y="388"/>
      <point x="413" y="368"/>
      <point x="413" y="303" type="curve" smooth="yes"/>
      <point x="413" y="275"/>
      <point x="404" y="249"/>
      <point x="387" y="227" type="curve"/>
    </contour>
  </outline>
</glyph>
<glyph name="ordfeminine" format="1">
  <advance width="485"/>
  <unicode hex="00AA"/>
  <outline>
    <contour>
      <point x="225" y="808" type="move" name="top"/>
    </contour>
    <contour>
      <point x="351" y="512" type="line" smooth="yes"/>
      <point x="245" y="506"/>
      <point x="92" y="478"/>
      <point x="92" y="368" type="curve" smooth="yes"/>
      <point x="92" y="325"/>
      <point x="124" y="273"/>
      <point x="207" y="273" type="curve" smooth="yes"/>
      <point x="263" y="273"/>
      <point x="306" y="307"/>
      <point x="340" y="344" type="curve"/>
      <point x="340" y="344"/>
      <point x="363" y="347"/>
      <point x="370" y="355" type="curve"/>
      <point x="377" y="360"/>
      <point x="381" y="364"/>
      <point x="381" y="364" type="curve"/>
      <point x="381" y="371"/>
      <point x="374" y="377"/>
      <point x="361" y="377" type="curve" smooth="yes"/>
      <point x="347" y="377"/>
      <point x="329" y="370"/>
      <point x="316" y="359" type="curve"/>
      <point x="300" y="338"/>
      <point x="274" y="326"/>
      <point x="248" y="326" type="curve" smooth="yes"/>
      <point x="194" y="326"/>
      <point x="175" y="353"/>
      <point x="175" y="394" type="curve" smooth="yes"/>
      <point x="175" y="454"/>
      <point x="263" y="464"/>
      <point x="323" y="467" type="curve" smooth="yes"/>
      <point x="340" y="468"/>
      <point x="381" y="491"/>
      <point x="381" y="501" type="curve" smooth="yes"/>
      <point x="381" y="510"/>
      <point x="374" y="511"/>
      <point x="356" y="512" type="curve" smooth="yes"/>
    </contour>
    <contour>
      <point x="187" y="579" type="line" smooth="yes"/>
      <point x="186" y="583"/>
      <point x="184" y="589"/>
      <point x="184" y="592" type="curve" smooth="yes"/>
      <point x="184" y="616"/>
      <point x="199" y="619"/>
      <point x="238" y="619" type="curve" smooth="yes"/>
      <point x="260" y="619"/>
      <point x="285" y="613"/>
      <point x="297" y="594" type="curve"/>
      <point x="307" y="575"/>
      <point x="310" y="546"/>
      <point x="310" y="521" type="curve" smooth="yes"/>
      <point x="310" y="303" type="line" smooth="yes"/>
      <point x="310" y="280"/>
      <point x="329" y="271"/>
      <point x="350" y="271" type="curve" smooth="yes"/>
      <point x="402" y="271"/>
      <point x="433" y="306"/>
      <point x="433" y="315" type="curve" smooth="yes"/>
      <point x="433" y="324"/>
      <point x="427" y="331"/>
      <point x="412" y="331" type="curve" smooth="yes"/>
      <point x="410" y="331"/>
      <point x="408" y="330"/>
      <point x="406" y="330" type="curve" smooth="yes"/>
      <point x="400" y="330" type="line"/>
      <point x="389" y="326" type="line"/>
      <point x="389" y="326"/>
      <point x="389" y="331"/>
      <point x="389" y="334" type="curve" smooth="yes"/>
      <point x="389" y="549" type="line"/>
      <point x="387" y="609"/>
      <point x="369" y="673"/>
      <point x="274" y="673" type="curve" smooth="yes"/>
      <point x="201" y="673"/>
      <point x="102" y="625"/>
      <point x="102" y="564" type="curve" smooth="yes"/>
      <point x="102" y="551"/>
      <point x="104" y="529"/>
      <point x="131" y="529" type="curve" smooth="yes"/>
      <point x="154" y="529"/>
      <point x="190" y="552"/>
      <point x="190" y="572" type="curve" smooth="yes"/>
      <point x="190" y="574"/>
      <point x="190" y="576"/>
      <point x="188" y="578" type="curve" smooth="yes"/>
    </contour>
  </outline>
</glyph>
<glyph name="logicalnot" format="1">
  <advance width="582"/>
  <unicode hex="00AC"/>
  <outline>
    <contour>
      <point x="118" y="320" type="curve"/>
      <point x="420" y="320" type="line"/>
      <point x="420" y="156" type="line" smooth="yes"/>
      <point x="420" y="121"/>
      <point x="486" y="155"/>
      <point x="486" y="173" type="curve" smooth="yes"/>
      <point x="486" y="348" type="line" smooth="yes"/>
      <point x="486" y="361"/>
      <point x="482" y="367"/>
      <point x="475" y="370" type="curve" smooth="yes"/>
      <point x="472" y="372"/>
      <point x="466" y="373"/>
      <point x="459" y="374" type="curve"/>
      <point x="125" y="374" type="line" smooth="yes"/>
      <point x="109" y="374"/>
      <point x="91" y="354"/>
      <point x="91" y="338" type="curve" smooth="yes"/>
      <point x="91" y="328"/>
      <point x="99" y="320"/>
    </contour>
  </outline>
</glyph>
<glyph name="degree" format="1">
  <advance width="346"/>
  <unicode hex="00B0"/>
  <outline>
    <contour>
      <point x="174" y="808" type="move" name="_top"/>
    </contour>
    <contour>
      <point x="164" y="527" type="curve" smooth="yes"/>
      <point x="260" y="527"/>
      <point x="319" y="596"/>
      <point x="319" y="674" type="curve" smooth="yes"/>
      <point x="319" y="765"/>
      <point x="243" y="802"/>
      <point x="186" y="802" type="curve" smooth="yes"/>
      <point x="90" y="802"/>
      <point x="27" y="736"/>
      <point x="27" y="660" type="curve" smooth="yes"/>
      <point x="27" y="567"/>
      <point x="104" y="527"/>
    </contour>
    <contour>
      <point x="175" y="579" type="curve" smooth="yes"/>
      <point x="146" y="577"/>
      <point x="102" y="598"/>
      <point x="97" y="655" type="curve" smooth="yes"/>
      <point x="92" y="704"/>
      <point x="117" y="752"/>
      <point x="174" y="752" type="curve" smooth="yes"/>
      <point x="199" y="752"/>
      <point x="245" y="732"/>
      <point x="249" y="675" type="curve" smooth="yes"/>
      <point x="253" y="626"/>
      <point x="240" y="583"/>
    </contour>
  </outline>
</glyph>
<glyph name="plusminus" format="1">
  <advance width="582"/>
  <unicode hex="00B1"/>
  <outline>
    <contour>
      <point x="254" y="174" type="line"/>
      <point x="276" y="128"/>
      <point x="316" y="184"/>
      <point x="320" y="201" type="curve"/>
      <point x="320" y="320" type="line"/>
      <point x="418" y="320" type="line"/>
      <point x="446" y="323"/>
      <point x="514" y="370"/>
      <point x="459" y="374" type="curve"/>
      <point x="320" y="374" type="line"/>
      <point x="320" y="508" type="line"/>
      <point x="319" y="526"/>
      <point x="311" y="533"/>
      <point x="302" y="533" type="curve" smooth="yes"/>
      <point x="283" y="533"/>
      <point x="257" y="507"/>
      <point x="254" y="488" type="curve"/>
      <point x="254" y="374" type="line"/>
      <point x="145" y="374" type="line"/>
      <point x="128" y="370"/>
      <point x="73" y="339"/>
      <point x="118" y="320" type="curve"/>
      <point x="254" y="320" type="line"/>
    </contour>
    <contour>
      <point x="118" y="0" type="curve"/>
      <point x="418" y="0" type="line" smooth="yes"/>
      <point x="462" y="0"/>
      <point x="514" y="49"/>
      <point x="459" y="54" type="curve"/>
      <point x="145" y="54" type="line"/>
      <point x="128" y="49"/>
      <point x="73" y="19"/>
    </contour>
  </outline>
</glyph>
<glyph name="acute" format="1">
  <advance width="239"/>
  <unicode hex="00B4"/>
  <outline>
    <contour>
      <point x="118" y="808" type="move" name="_top"/>
    </contour>
    <contour>
      <point x="84" y="552" type="curve"/>
      <point x="111" y="573"/>
      <point x="199" y="662"/>
      <point x="220" y="710" type="curve" smooth="yes"/>
      <point x="225" y="722"/>
      <point x="168" y="794"/>
      <point x="150" y="768" type="curve"/>
      <point x="37" y="573" type="line" smooth="yes"/>
      <point x="34" y="568"/>
      <point x="64" y="541"/>
    </contour>
  </outline>
</glyph>
<glyph name="mu" format="1">
  <advance width="508"/>
  <unicode hex="00B5"/>
  <outline>
    <contour>
      <point x="351" y="19" type="line" smooth="yes"/>
      <point x="351" y="-6"/>
      <point x="375" y="-16"/>
      <point x="398" y="-16" type="curve" smooth="yes"/>
      <point x="457" y="-16"/>
      <point x="497" y="25"/>
      <point x="497" y="35" type="curve" smooth="yes"/>
      <point x="497" y="44"/>
      <point x="490" y="50"/>
      <point x="475" y="50" type="curve" smooth="yes"/>
      <point x="466" y="50"/>
      <point x="466" y="49"/>
      <point x="460" y="48" type="curve" smooth="yes"/>
      <point x="453" y="46"/>
      <point x="445" y="43"/>
      <point x="438" y="43" type="curve" smooth="yes"/>
      <point x="438" y="43"/>
      <point x="438" y="56"/>
      <point x="438" y="60" type="curve" smooth="yes"/>
      <point x="438" y="447" type="line"/>
      <point x="435" y="458"/>
      <point x="425" y="459"/>
      <point x="416" y="459" type="curve" smooth="yes"/>
      <point x="355" y="459"/>
      <point x="291" y="432"/>
      <point x="291" y="413" type="curve" smooth="yes"/>
      <point x="291" y="405"/>
      <point x="324" y="390"/>
      <point x="351" y="386" type="curve"/>
    </contour>
    <contour>
      <point x="153" y="450" type="line"/>
      <point x="151" y="459"/>
      <point x="142" y="460"/>
      <point x="132" y="460" type="curve" smooth="yes"/>
      <point x="72" y="460"/>
      <point x="23" y="433"/>
      <point x="23" y="414" type="curve" smooth="yes"/>
      <point x="23" y="404"/>
      <point x="40" y="391"/>
      <point x="67" y="387" type="curve"/>
      <point x="67" y="187" type="line" smooth="yes"/>
      <point x="67" y="155"/>
      <point x="108" y="91"/>
      <point x="132" y="56" type="curve"/>
      <point x="144" y="12"/>
      <point x="202" y="-17"/>
      <point x="244" y="-17" type="curve" smooth="yes"/>
      <point x="329" y="-17"/>
      <point x="355" y="34"/>
      <point x="411" y="87" type="curve"/>
      <point x="420" y="98"/>
      <point x="423" y="104"/>
      <point x="423" y="107" type="curve" smooth="yes"/>
      <point x="423" y="111"/>
      <point x="412" y="114"/>
      <point x="405" y="114" type="curve" smooth="yes"/>
      <point x="387" y="114"/>
      <point x="376" y="97"/>
      <point x="362" y="84" type="curve" smooth="yes"/>
      <point x="358" y="81" type="line" smooth="yes"/>
      <point x="328" y="56"/>
      <point x="296" y="39"/>
      <point x="260" y="39" type="curve" smooth="yes"/>
      <point x="204" y="39"/>
      <point x="153" y="67"/>
      <point x="153" y="168" type="curve" smooth="yes"/>
    </contour>
    <contour>
      <point x="147" y="205" type="line"/>
      <point x="139" y="219"/>
      <point x="119" y="231"/>
      <point x="101" y="231" type="curve" smooth="yes"/>
      <point x="83" y="231"/>
      <point x="67" y="219"/>
      <point x="67" y="187" type="curve" smooth="yes"/>
      <point x="67" y="157"/>
      <point x="72" y="45"/>
      <point x="72" y="15" type="curve" smooth="yes"/>
      <point x="72" y="-73"/>
      <point x="49" y="-148"/>
      <point x="19" y="-148" type="curve" smooth="yes"/>
      <point x="11" y="-148"/>
      <point x="0" y="-149"/>
      <point x="0" y="-154" type="curve" smooth="yes"/>
      <point x="0" y="-179"/>
      <point x="82" y="-188"/>
      <point x="105" y="-188" type="curve" smooth="yes"/>
      <point x="139" y="-188"/>
      <point x="149" y="-154"/>
      <point x="149" y="-85" type="curve" smooth="yes"/>
      <point x="149" y="-69"/>
      <point x="149" y="-51"/>
      <point x="148" y="-32" type="curve"/>
    </contour>
  </outline>
</glyph>
<glyph name="one.superior" format="1">
  <advance width="336"/>
  <unicode hex="00B9"/>
  <outline>
    <contour>
      <point x="58" y="270" type="curve" smooth="yes"/>
      <point x="281" y="270" type="line" smooth="yes"/>
      <point x="305" y="270"/>
      <point x="316" y="275"/>
      <point x="316" y="290" type="curve" smooth="yes"/>
      <point x="316" y="301"/>
      <point x="309" y="309"/>
      <point x="294" y="311" type="curve" smooth="yes"/>
      <point x="285" y="312"/>
      <point x="223" y="306"/>
      <point x="223" y="333" type="curve" smooth="yes"/>
      <point x="223" y="725" type="line" smooth="yes"/>
      <point x="223" y="733"/>
      <point x="199" y="747"/>
      <point x="186" y="747" type="curve" smooth="yes"/>
      <point x="161" y="747"/>
      <point x="98" y="697"/>
      <point x="40" y="672" type="curve" smooth="yes"/>
      <point x="30" y="667"/>
      <point x="26" y="661"/>
      <point x="26" y="655" type="curve" smooth="yes"/>
      <point x="26" y="643"/>
      <point x="40" y="635"/>
      <point x="55" y="635" type="curve" smooth="yes"/>
      <point x="79" y="635"/>
      <point x="111" y="649"/>
      <point x="138" y="662" type="curve"/>
      <point x="138" y="317" type="line"/>
      <point x="69" y="307"/>
      <point x="33" y="309"/>
      <point x="33" y="289" type="curve" smooth="yes"/>
      <point x="33" y="281"/>
      <point x="37" y="270"/>
    </contour>
  </outline>
</glyph>
<glyph name="guillemotright" format="1">
  <advance width="765"/>
  <unicode hex="00BB"/>
  <outline>
    <contour>
      <point x="290" y="808" type="move" name="_top"/>
    </contour>
    <component base="guilsinglleft" xScale="-1.0" xOffset="485"/>
    <component base="guilsinglleft" xScale="-1.0" xOffset="759"/>
  </outline>
</glyph>
<glyph name="Aring" format="1">
  <advance width="571"/>
  <unicode hex="00C5"/>
  <outline>
    <contour>
      <point x="-15" y="0" type="curve" smooth="yes"/>
      <point x="139" y="0" type="line" smooth="yes"/>
      <point x="163" y="0"/>
      <point x="173" y="6"/>
      <point x="173" y="22" type="curve" smooth="yes"/>
      <point x="173" y="35"/>
      <point x="166" y="38"/>
      <point x="154" y="41" type="curve" smooth="yes"/>
      <point x="124" y="49"/>
      <point x="105" y="46"/>
      <point x="105" y="73" type="curve"/>
      <point x="146" y="197" type="line"/>
      <point x="238" y="197"/>
      <point x="305" y="196"/>
      <point x="395" y="196" type="curve"/>
      <point x="409" y="150"/>
      <point x="425" y="102"/>
      <point x="444" y="50" type="curve"/>
      <point x="406" y="33" type="line" smooth="yes"/>
      <point x="398" y="30"/>
      <point x="394" y="25"/>
      <point x="394" y="20" type="curve" smooth="yes"/>
      <point x="394" y="12"/>
      <point x="397" y="0"/>
      <point x="413" y="0" type="curve" smooth="yes"/>
      <point x="565" y="0" type="line" smooth="yes"/>
      <point x="589" y="0"/>
      <point x="599" y="16"/>
      <point x="599" y="22" type="curve" smooth="yes"/>
      <point x="599" y="35"/>
      <point x="592" y="38"/>
      <point x="580" y="41" type="curve" smooth="yes"/>
      <point x="550" y="49"/>
      <point x="544" y="52"/>
      <point x="532" y="79" type="curve"/>
      <point x="448" y="301"/>
      <point x="414" y="420"/>
      <point x="325" y="642" type="curve"/>
      <point x="391" y="659"/>
      <point x="430" y="710"/>
      <point x="430" y="773" type="curve" smooth="yes"/>
      <point x="430" y="864"/>
      <point x="354" y="891"/>
      <point x="297" y="891" type="curve" smooth="yes"/>
      <point x="201" y="891"/>
      <point x="138" y="835"/>
      <point x="138" y="759" type="curve" smooth="yes"/>
      <point x="138" y="682"/>
      <point x="190" y="648"/>
      <point x="242" y="639" type="curve"/>
      <point x="237" y="632"/>
      <point x="233" y="624"/>
      <point x="229" y="615" type="curve"/>
      <point x="30" y="50" type="line"/>
      <point x="19" y="45"/>
      <point x="-5" y="40"/>
      <point x="-22" y="33" type="curve" smooth="yes"/>
      <point x="-30" y="30"/>
      <point x="-34" y="25"/>
      <point x="-34" y="20" type="curve" smooth="yes"/>
      <point x="-34" y="12"/>
      <point x="-31" y="0"/>
    </contour>
    <contour>
      <point x="286" y="688" type="curve" smooth="yes"/>
      <point x="257" y="686"/>
      <point x="213" y="696"/>
      <point x="208" y="754" type="curve" smooth="yes"/>
      <point x="203" y="803"/>
      <point x="238" y="838"/>
      <point x="285" y="841" type="curve" smooth="yes"/>
      <point x="310" y="843"/>
      <point x="356" y="831"/>
      <point x="360" y="774" type="curve" smooth="yes"/>
      <point x="364" y="725"/>
      <point x="331" y="692"/>
    </contour>
    <contour>
      <point x="165" y="254" type="curve"/>
      <point x="271" y="568" type="line"/>
      <point x="317" y="449"/>
      <point x="346" y="351"/>
      <point x="377" y="252" type="curve"/>
      <point x="303" y="252"/>
      <point x="247" y="254"/>
    </contour>
  </outline>
</glyph>
<glyph name="AE" format="1">
  <advance width="795"/>
  <unicode hex="00C6"/>
  <outline>
    <contour>
      <point x="502" y="808" type="move" name="top"/>
    </contour>
    <contour>
      <point x="128" y="43" type="curve"/>
      <point x="344" y="563" type="line"/>
      <point x="387" y="658" type="line"/>
      <point x="348" y="652"/>
      <point x="319" y="652"/>
      <point x="302" y="610" type="curve"/>
      <point x="46" y="16" type="line"/>
      <point x="44" y="-30"/>
      <point x="120" y="28"/>
    </contour>
    <contour>
      <point x="411" y="198" type="line"/>
      <point x="426" y="200"/>
      <point x="439" y="215"/>
      <point x="439" y="229" type="curve" smooth="yes"/>
      <point x="439" y="241"/>
      <point x="430" y="252"/>
      <point x="406" y="254" type="curve"/>
      <point x="180" y="254" type="line"/>
      <point x="170" y="251"/>
      <point x="156" y="237"/>
      <point x="156" y="223" type="curve" smooth="yes"/>
      <point x="156" y="213"/>
      <point x="163" y="204"/>
      <point x="183" y="198" type="curve"/>
    </contour>
    <contour>
      <point x="4" y="20" type="curve" smooth="yes"/>
      <point x="4" y="12"/>
      <point x="7" y="0"/>
      <point x="23" y="0" type="curve" smooth="yes"/>
      <point x="175" y="0" type="line" smooth="yes"/>
      <point x="199" y="0"/>
      <point x="209" y="6"/>
      <point x="209" y="22" type="curve" smooth="yes"/>
      <point x="209" y="35"/>
      <point x="202" y="38"/>
      <point x="190" y="41" type="curve" smooth="yes"/>
      <point x="160" y="49"/>
      <point x="141" y="46"/>
      <point x="141" y="74" type="curve" smooth="yes"/>
      <point x="141" y="74"/>
      <point x="62" y="51"/>
      <point x="62" y="51" type="curve"/>
      <point x="52" y="46"/>
      <point x="33" y="40"/>
      <point x="16" y="33" type="curve" smooth="yes"/>
      <point x="8" y="30"/>
      <point x="4" y="25"/>
    </contour>
    <contour>
      <point x="197" y="634" type="curve" smooth="yes"/>
      <point x="197" y="629"/>
      <point x="201" y="623"/>
      <point x="209" y="621" type="curve" smooth="yes"/>
      <point x="226" y="617"/>
      <point x="290" y="618"/>
      <point x="302" y="610" type="curve"/>
      <point x="330" y="629" type="line"/>
      <point x="374" y="658" type="line"/>
      <point x="216" y="658" type="line" smooth="yes"/>
      <point x="200" y="658"/>
      <point x="197" y="642"/>
    </contour>
    <contour>
      <point x="623" y="305" type="line"/>
      <point x="644" y="307"/>
      <point x="661" y="350"/>
      <point x="661" y="367" type="curve" smooth="yes"/>
      <point x="661" y="372"/>
      <point x="657" y="377"/>
      <point x="644" y="378" type="curve"/>
      <point x="467" y="374" type="line"/>
      <point x="437" y="322" type="line"/>
    </contour>
    <contour>
      <point x="622" y="613" type="line" smooth="yes"/>
      <point x="649" y="613"/>
      <point x="657" y="608"/>
      <point x="663" y="594" type="curve" smooth="yes"/>
      <point x="678" y="561"/>
      <point x="686" y="528"/>
      <point x="708" y="528" type="curve" smooth="yes"/>
      <point x="728" y="528"/>
      <point x="744" y="596"/>
      <point x="744" y="628" type="curve" smooth="yes"/>
      <point x="744" y="656"/>
      <point x="701" y="658"/>
      <point x="657" y="658" type="curve" smooth="yes"/>
      <point x="380" y="658" type="line"/>
      <point x="380" y="0" type="line"/>
      <point x="754" y="0" type="line" smooth="yes"/>
      <point x="759" y="0"/>
      <point x="766" y="63"/>
      <point x="766" y="111" type="curve" smooth="yes"/>
      <point x="766" y="165"/>
      <point x="758" y="178"/>
      <point x="724" y="178" type="curve" smooth="yes"/>
      <point x="717" y="178"/>
      <point x="701" y="80"/>
      <point x="673" y="63" type="curve" smooth="yes"/>
      <point x="656" y="53"/>
      <point x="599" y="49"/>
      <point x="545" y="49" type="curve" smooth="yes"/>
      <point x="515" y="49"/>
      <point x="489" y="50"/>
      <point x="469" y="50" type="curve"/>
      <point x="469" y="613" type="line"/>
    </contour>
    <contour>
      <point x="316" y="24" type="curve" smooth="yes"/>
      <point x="316" y="16"/>
      <point x="319" y="0"/>
      <point x="335" y="0" type="curve" smooth="yes"/>
      <point x="380" y="0" type="line"/>
      <point x="390" y="23" type="line"/>
      <point x="380" y="55" type="line"/>
      <point x="370" y="50"/>
      <point x="345" y="44"/>
      <point x="328" y="37" type="curve" smooth="yes"/>
      <point x="320" y="34"/>
      <point x="316" y="29"/>
    </contour>
  </outline>
</glyph>
<glyph name="multiply" format="1">
  <advance width="512"/>
  <unicode hex="00D7"/>
  <outline>
    <contour>
      <point x="59" y="432" type="curve"/>
      <point x="180" y="301"/>
      <point x="298" y="204"/>
      <point x="419" y="73" type="curve"/>
      <point x="437" y="71"/>
      <point x="472" y="96"/>
      <point x="473" y="116" type="curve"/>
      <point x="349" y="247"/>
      <point x="232" y="344"/>
      <point x="110" y="476" type="curve"/>
      <point x="95" y="484"/>
      <point x="48" y="446"/>
    </contour>
    <contour>
      <point x="123" y="79" type="curve" smooth="yes"/>
      <point x="248" y="203"/>
      <point x="336" y="323"/>
      <point x="464" y="447" type="curve"/>
      <point x="491" y="485"/>
      <point x="406" y="483"/>
      <point x="401" y="479" type="curve" smooth="yes"/>
      <point x="276" y="356"/>
      <point x="188" y="234"/>
      <point x="62" y="110" type="curve" smooth="yes"/>
      <point x="35" y="83"/>
      <point x="67" y="74"/>
      <point x="94" y="74" type="curve" smooth="yes"/>
      <point x="107" y="74"/>
      <point x="120" y="76"/>
    </contour>
  </outline>
</glyph>
<glyph name="Oslash" format="1">
  <advance width="655"/>
  <unicode hex="00D8"/>
  <outline>
    <contour>
      <point x="94" y="-59" type="curve" smooth="yes"/>
      <point x="83" y="-84"/>
      <point x="94" y="-94"/>
      <point x="109" y="-94" type="curve" smooth="yes"/>
      <point x="126" y="-94"/>
      <point x="149" y="-83"/>
      <point x="161" y="-69" type="curve"/>
      <point x="202" y="8" type="line"/>
      <point x="216" y="52" type="line"/>
      <point x="486" y="554" type="line"/>
      <point x="509" y="590" type="line"/>
      <point x="580" y="714" type="line"/>
      <point x="590" y="736"/>
      <point x="582" y="744"/>
      <point x="566" y="744" type="curve" smooth="yes"/>
      <point x="544" y="744"/>
      <point x="514" y="729"/>
      <point x="504" y="713" type="curve"/>
      <point x="459" y="622" type="line"/>
      <point x="448" y="588" type="line"/>
      <point x="171" y="64" type="line"/>
      <point x="148" y="39" type="line"/>
      <point x="135" y="11"/>
      <point x="111" y="-24"/>
    </contour>
    <component base="O" xOffset="-3"/>
  </outline>
</glyph>
<glyph name="Thorn" format="1">
  <advance width="542"/>
  <unicode hex="00DE"/>
  <outline>
    <contour>
      <point x="48" y="24" type="curve" smooth="yes"/>
      <point x="48" y="16"/>
      <point x="51" y="0"/>
      <point x="67" y="0" type="curve" smooth="yes"/>
      <point x="251" y="0" type="line" smooth="yes"/>
      <point x="275" y="0"/>
      <point x="285" y="16"/>
      <point x="285" y="22" type="curve" smooth="yes"/>
      <point x="285" y="35"/>
      <point x="278" y="38"/>
      <point x="266" y="41" type="curve" smooth="yes"/>
      <point x="236" y="49"/>
      <point x="202" y="46"/>
      <point x="202" y="74" type="curve" smooth="yes"/>
      <point x="202" y="131" type="line"/>
      <point x="218" y="129"/>
      <point x="232" y="128"/>
      <point x="239" y="128" type="curve" smooth="yes"/>
      <point x="298" y="128"/>
      <point x="377" y="130"/>
      <point x="432" y="170" type="curve"/>
      <point x="494" y="212"/>
      <point x="526" y="279"/>
      <point x="526" y="350" type="curve" smooth="yes"/>
      <point x="526" y="404"/>
      <point x="504" y="472"/>
      <point x="442" y="508" type="curve" smooth="yes"/>
      <point x="401" y="533"/>
      <point x="345" y="541"/>
      <point x="313" y="541" type="curve" smooth="yes"/>
      <point x="258" y="541"/>
      <point x="239" y="537"/>
      <point x="202" y="535" type="curve"/>
      <point x="202" y="588" type="line"/>
      <point x="204" y="612"/>
      <point x="225" y="609"/>
      <point x="254" y="617" type="curve" smooth="yes"/>
      <point x="266" y="620"/>
      <point x="273" y="623"/>
      <point x="273" y="636" type="curve" smooth="yes"/>
      <point x="273" y="642"/>
      <point x="263" y="658"/>
      <point x="239" y="658" type="curve" smooth="yes"/>
      <point x="67" y="658" type="line" smooth="yes"/>
      <point x="51" y="658"/>
      <point x="48" y="642"/>
      <point x="48" y="634" type="curve" smooth="yes"/>
      <point x="48" y="629"/>
      <point x="52" y="624"/>
      <point x="60" y="621" type="curve" smooth="yes"/>
      <point x="77" y="614"/>
      <point x="102" y="608"/>
      <point x="112" y="603" type="curve"/>
      <point x="112" y="55" type="line"/>
      <point x="102" y="50"/>
      <point x="77" y="44"/>
      <point x="60" y="37" type="curve" smooth="yes"/>
      <point x="52" y="34"/>
      <point x="48" y="29"/>
    </contour>
    <contour>
      <point x="202" y="190" type="curve"/>
      <point x="202" y="487" type="line"/>
      <point x="220" y="488"/>
      <point x="239" y="489"/>
      <point x="255" y="489" type="curve" smooth="yes"/>
      <point x="378" y="489"/>
      <point x="436" y="449"/>
      <point x="436" y="320" type="curve" smooth="yes"/>
      <point x="436" y="216"/>
      <point x="353" y="186"/>
      <point x="280" y="186" type="curve" smooth="yes"/>
      <point x="257" y="186"/>
      <point x="224" y="188"/>
    </contour>
  </outline>
</glyph>
<glyph name="ae" format="1">
  <advance width="733"/>
  <unicode hex="00E6"/>
  <outline>
    <contour>
      <point x="418" y="808" type="move" name="top"/>
    </contour>
    <contour>
      <point x="144" y="381" type="curve" smooth="yes"/>
      <point x="144" y="415"/>
      <point x="148" y="420"/>
      <point x="219" y="420" type="curve" smooth="yes"/>
      <point x="247" y="420"/>
      <point x="281" y="416"/>
      <point x="297" y="389" type="curve" smooth="yes"/>
      <point x="313" y="362"/>
      <point x="314" y="329"/>
      <point x="314" y="297" type="curve" smooth="yes"/>
      <point x="314" y="81" type="line"/>
      <point x="398" y="115" type="line"/>
      <point x="398" y="329" type="line"/>
      <point x="398" y="401"/>
      <point x="381" y="477"/>
      <point x="264" y="477" type="curve" smooth="yes"/>
      <point x="205" y="477"/>
      <point x="53" y="421"/>
      <point x="53" y="346" type="curve" smooth="yes"/>
      <point x="53" y="333"/>
      <point x="56" y="309"/>
      <point x="86" y="309" type="curve" smooth="yes"/>
      <point x="112" y="309"/>
      <point x="151" y="333"/>
      <point x="151" y="355" type="curve" smooth="yes"/>
      <point x="151" y="361"/>
      <point x="144" y="362"/>
    </contour>
    <contour>
      <point x="364" y="277" type="line" smooth="yes"/>
      <point x="213" y="276"/>
      <point x="39" y="235"/>
      <point x="39" y="101" type="curve" smooth="yes"/>
      <point x="39" y="50"/>
      <point x="77" y="-16"/>
      <point x="177" y="-16" type="curve" smooth="yes"/>
      <point x="255" y="-16"/>
      <point x="300" y="37"/>
      <point x="344" y="97" type="curve"/>
      <point x="321" y="106" type="line"/>
      <point x="299" y="68"/>
      <point x="259" y="40"/>
      <point x="227" y="40" type="curve" smooth="yes"/>
      <point x="155" y="40"/>
      <point x="133" y="81"/>
      <point x="133" y="134" type="curve" smooth="yes"/>
      <point x="133" y="215"/>
      <point x="247" y="226"/>
      <point x="325" y="230" type="curve" smooth="yes"/>
      <point x="345" y="231"/>
      <point x="392" y="257"/>
      <point x="392" y="269" type="curve" smooth="yes"/>
      <point x="392" y="276"/>
      <point x="386" y="276"/>
      <point x="367" y="277" type="curve" smooth="yes"/>
    </contour>
    <contour>
      <point x="368" y="221" type="curve"/>
      <point x="652" y="221" type="line" smooth="yes"/>
      <point x="670" y="221"/>
      <point x="692" y="220"/>
      <point x="692" y="240" type="curve" smooth="yes"/>
      <point x="689" y="343"/>
      <point x="669" y="477"/>
      <point x="517" y="477" type="curve" smooth="yes"/>
      <point x="377" y="477"/>
      <point x="314" y="356"/>
      <point x="314" y="202" type="curve" smooth="yes"/>
      <point x="314" y="88"/>
      <point x="351" y="-16"/>
      <point x="493" y="-16" type="curve" smooth="yes"/>
      <point x="581" y="-16"/>
      <point x="630" y="12"/>
      <point x="666" y="42" type="curve" smooth="yes"/>
      <point x="676" y="50"/>
      <point x="678" y="58"/>
      <point x="678" y="66" type="curve" smooth="yes"/>
      <point x="678" y="72"/>
      <point x="674" y="77"/>
      <point x="664" y="77" type="curve" smooth="yes"/>
      <point x="652" y="77"/>
      <point x="640" y="70"/>
      <point x="627" y="64" type="curve" smooth="yes"/>
      <point x="606" y="54"/>
      <point x="577" y="42"/>
      <point x="518" y="42" type="curve" smooth="yes"/>
      <point x="420" y="42"/>
      <point x="398" y="144"/>
      <point x="398" y="240" type="curve" smooth="yes"/>
      <point x="398" y="343"/>
      <point x="413" y="423"/>
      <point x="486" y="423" type="curve" smooth="yes"/>
      <point x="591" y="423"/>
      <point x="593" y="335"/>
      <point x="593" y="235" type="curve"/>
      <point x="660" y="276" type="line"/>
      <point x="349" y="265" type="line"/>
      <point x="331" y="258"/>
      <point x="335" y="218"/>
    </contour>
  </outline>
</glyph>
<glyph name="ccedilla" format="1">
  <advance width="419"/>
  <unicode hex="00E7"/>
  <outline>
    <contour>
      <point x="195" y="-12" type="curve"/>
      <point x="181" y="-100" type="line"/>
      <point x="187" y="-99"/>
      <point x="194" y="-99"/>
      <point x="200" y="-99" type="curve" smooth="yes"/>
      <point x="241" y="-99"/>
      <point x="279" y="-110"/>
      <point x="279" y="-146" type="curve" smooth="yes"/>
      <point x="279" y="-201"/>
      <point x="234" y="-211"/>
      <point x="191" y="-211" type="curve" smooth="yes"/>
      <point x="180" y="-211"/>
      <point x="163" y="-205"/>
      <point x="152" y="-205" type="curve" smooth="yes"/>
      <point x="147" y="-205"/>
      <point x="137" y="-223"/>
      <point x="137" y="-236" type="curve" smooth="yes"/>
      <point x="137" y="-257"/>
      <point x="203" y="-264"/>
      <point x="222" y="-264" type="curve" smooth="yes"/>
      <point x="302" y="-264"/>
      <point x="374" y="-221"/>
      <point x="374" y="-141" type="curve" smooth="yes"/>
      <point x="374" y="-84"/>
      <point x="312" y="-64"/>
      <point x="266" y="-64" type="curve"/>
      <point x="266" y="-14" type="line"/>
      <point x="309" y="-9"/>
      <point x="344" y="11"/>
      <point x="377" y="37" type="curve" smooth="yes"/>
      <point x="387" y="45"/>
      <point x="396" y="60"/>
      <point x="396" y="68" type="curve" smooth="yes"/>
      <point x="396" y="74"/>
      <point x="390" y="82"/>
      <point x="373" y="82" type="curve" smooth="yes"/>
      <point x="352" y="82"/>
      <point x="345" y="77"/>
      <point x="335" y="71" type="curve" smooth="yes"/>
      <point x="318" y="59"/>
      <point x="298" y="42"/>
      <point x="266" y="42" type="curve" smooth="yes"/>
      <point x="164" y="42"/>
      <point x="124" y="144"/>
      <point x="124" y="240" type="curve" smooth="yes"/>
      <point x="124" y="343"/>
      <point x="154" y="426"/>
      <point x="234" y="426" type="curve" smooth="yes"/>
      <point x="275" y="426"/>
      <point x="290" y="412"/>
      <point x="297" y="351" type="curve" smooth="yes"/>
      <point x="299" y="328"/>
      <point x="309" y="321"/>
      <point x="320" y="322" type="curve"/>
      <point x="350" y="327"/>
      <point x="390" y="344"/>
      <point x="389" y="387" type="curve" smooth="yes"/>
      <point x="387" y="458"/>
      <point x="316" y="477"/>
      <point x="265" y="477" type="curve" smooth="yes"/>
      <point x="122" y="477"/>
      <point x="32" y="366"/>
      <point x="32" y="202" type="curve" smooth="yes"/>
      <point x="32" y="101"/>
      <point x="84" y="8"/>
    </contour>
  </outline>
</glyph>
<glyph name="eth" format="1">
  <advance width="495"/>
  <unicode hex="00F0"/>
  <outline>
    <contour>
      <point x="216" y="-16" type="curve" smooth="yes"/>
      <point x="383" y="-16"/>
      <point x="457" y="118"/>
      <point x="457" y="264" type="curve" smooth="yes"/>
      <point x="457" y="322"/>
      <point x="450" y="412"/>
      <point x="422" y="472" type="curve" smooth="yes"/>
      <point x="374" y="576"/>
      <point x="322" y="647"/>
      <point x="248" y="700" type="curve"/>
      <point x="267" y="721"/>
      <point x="285" y="741"/>
      <point x="302" y="763" type="curve"/>
      <point x="334" y="815"/>
      <point x="278" y="797"/>
      <point x="260" y="782" type="curve"/>
      <point x="244" y="762"/>
      <point x="227" y="743"/>
      <point x="211" y="725" type="curve"/>
      <point x="175" y="746"/>
      <point x="134" y="765"/>
      <point x="86" y="783" type="curve"/>
      <point x="69" y="783"/>
      <point x="45" y="769"/>
      <point x="45" y="755" type="curve" smooth="yes"/>
      <point x="45" y="749"/>
      <point x="49" y="743"/>
      <point x="65" y="740" type="curve"/>
      <point x="105" y="726"/>
      <point x="141" y="707"/>
      <point x="174" y="684" type="curve"/>
      <point x="155" y="662"/>
      <point x="135" y="640"/>
      <point x="117" y="618" type="curve" smooth="yes"/>
      <point x="98" y="594"/>
      <point x="101" y="585"/>
      <point x="113" y="585" type="curve" smooth="yes"/>
      <point x="128" y="585"/>
      <point x="144" y="584"/>
      <point x="160" y="599" type="curve"/>
      <point x="175" y="618"/>
      <point x="191" y="637"/>
      <point x="208" y="656" type="curve"/>
      <point x="266" y="605"/>
      <point x="309" y="538"/>
      <point x="340" y="465" type="curve"/>
      <point x="317" y="473"/>
      <point x="294" y="477"/>
      <point x="276" y="477" type="curve" smooth="yes"/>
      <point x="108" y="477"/>
      <point x="37" y="341"/>
      <point x="37" y="222" type="curve" smooth="yes"/>
      <point x="37" y="87"/>
      <point x="99" y="-16"/>
    </contour>
    <contour>
      <point x="262" y="41" type="curve" smooth="yes"/>
      <point x="167" y="41"/>
      <point x="116" y="164"/>
      <point x="116" y="256" type="curve" smooth="yes"/>
      <point x="116" y="348"/>
      <point x="154" y="421"/>
      <point x="239" y="421" type="curve" smooth="yes"/>
      <point x="285" y="421"/>
      <point x="329" y="402"/>
      <point x="360" y="377" type="curve"/>
      <point x="373" y="331"/>
      <point x="378" y="292"/>
      <point x="378" y="232" type="curve" smooth="yes"/>
      <point x="378" y="138"/>
      <point x="364" y="41"/>
    </contour>
  </outline>
</glyph>
<glyph name="oslash" format="1">
  <advance width="528"/>
  <unicode hex="00F8"/>
  <outline>
    <contour>
      <point x="99" y="-61" type="curve" smooth="yes"/>
      <point x="88" y="-86"/>
      <point x="98" y="-95"/>
      <point x="113" y="-95" type="curve" smooth="yes"/>
      <point x="130" y="-95"/>
      <point x="143" y="-84"/>
      <point x="155" y="-70" type="curve"/>
      <point x="196" y="1" type="line" smooth="yes"/>
      <point x="200" y="8"/>
      <point x="203" y="25"/>
      <point x="206" y="32" type="curve"/>
      <point x="353" y="370" type="line"/>
      <point x="372" y="405" type="line"/>
      <point x="437" y="528" type="line"/>
      <point x="447" y="550"/>
      <point x="439" y="559"/>
      <point x="424" y="559" type="curve" smooth="yes"/>
      <point x="404" y="559"/>
      <point x="384" y="543"/>
      <point x="373" y="527" type="curve"/>
      <point x="331" y="437" type="line"/>
      <point x="326" y="423" type="line"/>
      <point x="171" y="64" type="line"/>
      <point x="152" y="38" type="line"/>
      <point x="139" y="10"/>
      <point x="116" y="-26"/>
    </contour>
    <component base="o"/>
  </outline>
</glyph>
<glyph name="thorn" format="1">
  <advance width="510"/>
  <unicode hex="00FE"/>
  <outline>
    <contour>
      <point x="141" y="-1" type="line"/>
      <point x="165" y="-10"/>
      <point x="194" y="-16"/>
      <point x="225" y="-16" type="curve" smooth="yes"/>
      <point x="315" y="-16"/>
      <point x="392" y="32"/>
      <point x="433" y="93" type="curve"/>
      <point x="467" y="141"/>
      <point x="481" y="213"/>
      <point x="481" y="266" type="curve" smooth="yes"/>
      <point x="481" y="400"/>
      <point x="390" y="477"/>
      <point x="290" y="477" type="curve" smooth="yes"/>
      <point x="231" y="477"/>
      <point x="184" y="452"/>
      <point x="144" y="416" type="curve"/>
      <point x="154" y="561" type="line"/>
      <point x="154" y="704" type="line"/>
      <point x="151" y="710"/>
      <point x="142" y="713"/>
      <point x="131" y="713" type="curve" smooth="yes"/>
      <point x="101" y="713"/>
      <point x="51" y="706"/>
      <point x="30" y="691" type="curve" smooth="yes"/>
      <point x="23" y="686"/>
      <point x="23" y="676"/>
      <point x="23" y="670" type="curve" smooth="yes"/>
      <point x="23" y="662"/>
      <point x="41" y="653"/>
      <point x="70" y="649" type="curve"/>
      <point x="70" y="-175" type="line"/>
      <point x="49" y="-184"/>
      <point x="25" y="-194"/>
      <point x="25" y="-206" type="curve" smooth="yes"/>
      <point x="25" y="-210"/>
      <point x="32" y="-215"/>
      <point x="44" y="-218" type="curve"/>
      <point x="159" y="-218" type="line" smooth="yes"/>
      <point x="204" y="-218"/>
      <point x="213" y="-213"/>
      <point x="213" y="-207" type="curve" smooth="yes"/>
      <point x="213" y="-183"/>
      <point x="198" y="-173"/>
      <point x="151" y="-173" type="curve"/>
      <point x="151" y="-64" type="line"/>
    </contour>
    <contour>
      <point x="152" y="81" type="curve"/>
      <point x="152" y="380" type="line"/>
      <point x="178" y="409"/>
      <point x="213" y="421"/>
      <point x="244" y="421" type="curve" smooth="yes"/>
      <point x="336" y="421"/>
      <point x="390" y="341"/>
      <point x="390" y="222" type="curve" smooth="yes"/>
      <point x="390" y="124"/>
      <point x="351" y="41"/>
      <point x="261" y="41" type="curve" smooth="yes"/>
      <point x="236" y="41"/>
      <point x="177" y="48"/>
    </contour>
  </outline>
</glyph>
<glyph name="aogonek" format="1">
  <advance width="481"/>
  <unicode hex="0105"/>
  <outline>
    <contour>
      <point x="478" y="-157" type="curve" smooth="yes"/>
      <point x="481" y="-154"/>
      <point x="482" y="-142"/>
      <point x="482" y="-136" type="curve" smooth="yes"/>
      <point x="482" y="-130"/>
      <point x="475" y="-112"/>
      <point x="463" y="-119" type="curve" smooth="yes"/>
      <point x="431" y="-136"/>
      <point x="408" y="-137"/>
      <point x="393" y="-137" type="curve" smooth="yes"/>
      <point x="367" y="-137"/>
      <point x="356" y="-110"/>
      <point x="356" y="-95" type="curve" smooth="yes"/>
      <point x="356" y="-23"/>
      <point x="397" y="-3"/>
      <point x="443" y="26" type="curve"/>
      <point x="423" y="33" type="line"/>
      <point x="386" y="18"/>
      <point x="265" y="-29"/>
      <point x="265" y="-113" type="curve" smooth="yes"/>
      <point x="265" y="-172"/>
      <point x="311" y="-209"/>
      <point x="371" y="-209" type="curve" smooth="yes"/>
      <point x="443" y="-209"/>
      <point x="461" y="-174"/>
    </contour>
    <component base="a" xOffset="-6"/>
  </outline>
</glyph>
